  0
SECTION
  2
HEADER
  9
$ACADVER
  1
AC1024
  9
$ACADMAINTVER
 70
6
  9
$DWGCODEPAGE
  3
ANSI_1252
  9
$LASTSAVEDBY
  1
ezdxf
  9
$INSBASE
 10
0.0
 20
0.0
 30
0.0
  9
$EXTMIN
 10
-100
 20
-100
 30
-100
  9
$EXTMAX
 10
100
 20
100
 30
100
  9
$LIMMIN
 10
0.0
 20
0.0
  9
$LIMMAX
 10
420.0
 20
297.0
  9
$ORTHOMODE
 70
0
  9
$REGENMODE
 70
1
  9
$FILLMODE
 70
1
  9
$QTEXTMODE
 70
0
  9
$MIRRTEXT
 70
1
  9
$LTSCALE
 40
1.0
  9
$ATTMODE
 70
1
  9
$TEXTSIZE
 40
2.5
  9
$TRACEWID
 40
1.0
  9
$TEXTSTYLE
  7
OpenSans
  9
$CLAYER
  8
0
  9
$CELTYPE
  6
ByLayer
  9
$CECOLOR
 62
256
  9
$CELTSCALE
 40
1.0
  9
$DISPSILH
 70
0
  9
$DIMSCALE
 40
1.0
  9
$DIMASZ
 40
0.175
  9
$DIMEXO
 40
0.125
  9
$DIMDLI
 40
3.75
  9
$DIMRND
 40
0.0
  9
$DIMDLE
 40
0.0
  9
$DIMEXE
 40
0.375
  9
$DIMTP
 40
0.0
  9
$DIMTM
 40
0.0
  9
$DIMTXT
 40
0.25
  9
$DIMCEN
 40
2.5
  9
$DIMTSZ
 40
0.0
  9
$DIMTOL
 70
0
  9
$DIMLIM
 70
0
  9
$DIMTIH
 70
0
  9
$DIMTOH
 70
0
  9
$DIMSE1
 70
0
  9
$DIMSE2
 70
0
  9
$DIMTAD
 70
1
  9
$DIMZIN
 70
8
  9
$DIMBLK
  1
ARCHTICK
  9
$DIMASO
 70
1
  9
$DIMSHO
 70
1
  9
$DIMPOST
  1

  9
$DIMAPOST
  1

  9
$DIMALT
 70
0
  9
$DIMALTD
 70
3
  9
$DIMALTF
 40
0.03937007874
  9
$DIMLFAC
 40
100.0
  9
$DIMTOFL
 70
1
  9
$DIMTVP
 40
0.0
  9
$DIMTIX
 70
0
  9
$DIMSOXD
 70
0
  9
$DIMSAH
 70
0
  9
$DIMBLK1
  1

  9
$DIMBLK2
  1

  9
$DIMSTYLE
  2
EZDXF
  9
$DIMCLRD
 70
0
  9
$DIMCLRE
 70
0
  9
$DIMCLRT
 70
0
  9
$DIMTFAC
 40
1.0
  9
$DIMGAP
 40
0.1
  9
$DIMJUST
 70
0
  9
$DIMSD1
 70
0
  9
$DIMSD2
 70
0
  9
$DIMTOLJ
 70
0
  9
$DIMTZIN
 70
8
  9
$DIMALTZ
 70
0
  9
$DIMALTTZ
 70
0
  9
$DIMUPT
 70
1
  9
$DIMDEC
 70
2
  9
$DIMTDEC
 70
2
  9
$DIMALTU
 70
2
  9
$DIMALTTD
 70
3
  9
$DIMTXSTY
  7
OpenSansCondensed-Light
  9
$DIMAUNIT
 70
0
  9
$DIMADEC
 70
0
  9
$DIMALTRND
 40
0.0
  9
$DIMAZIN
 70
0
  9
$DIMDSEP
 70
46
  9
$DIMATFIT
 70
3
  9
$DIMFRAC
 70
0
  9
$DIMLDRBLK
  1

  9
$DIMLUNIT
 70
2
  9
$DIMLWD
 70
-2
  9
$DIMLWE
 70
-2
  9
$DIMTMOVE
 70
2
  9
$DIMFXL
 40
1.0
  9
$DIMFXLON
 70
0
  9
$DIMJOGANG
 40
0.785398163397
  9
$DIMTFILL
 70
0
  9
$DIMTFILLCLR
 70
0
  9
$DIMARCSYM
 70
0
  9
$DIMLTYPE
  6

  9
$DIMLTEX1
  6

  9
$DIMLTEX2
  6

  9
$DIMTXTDIRECTION
 70
0
  9
$LUNITS
 70
2
  9
$LUPREC
 70
4
  9
$SKETCHINC
 40
1.0
  9
$FILLETRAD
 40
10.0
  9
$AUNITS
 70
0
  9
$AUPREC
 70
2
  9
$MENU
  1
.
  9
$ELEVATION
 40
0.0
  9
$PELEVATION
 40
0.0
  9
$THICKNESS
 40
0.0
  9
$LIMCHECK
 70
0
  9
$CHAMFERA
 40
0.0
  9
$CHAMFERB
 40
0.0
  9
$CHAMFERC
 40
0.0
  9
$CHAMFERD
 40
0.0
  9
$SKPOLY
 70
0
  9
$TDCREATE
 40
2459268.0882986113
  9
$TDUCREATE
 40
2458532.153996898
  9
$TDUPDATE
 40
2459268.088402778
  9
$TDUUPDATE
 40
2458532.1544311
  9
$TDINDWG
 40
0.0
  9
$TDUSRTIMER
 40
0.0
  9
$USRTIMER
 70
1
  9
$ANGBASE
 50
0.0
  9
$ANGDIR
 70
0
  9
$PDMODE
 70
0
  9
$PDSIZE
 40
0.0
  9
$PLINEWID
 40
0.0
  9
$SPLFRAME
 70
0
  9
$SPLINETYPE
 70
6
  9
$SPLINESEGS
 70
8
  9
$HANDSEED
  5
F9
  9
$SURFTAB1
 70
6
  9
$SURFTAB2
 70
6
  9
$SURFTYPE
 70
6
  9
$SURFU
 70
6
  9
$SURFV
 70
6
  9
$UCSBASE
  2

  9
$UCSNAME
  2

  9
$UCSORG
 10
0.0
 20
0.0
 30
0.0
  9
$UCSXDIR
 10
1.0
 20
0.0
 30
0.0
  9
$UCSYDIR
 10
0.0
 20
1.0
 30
0.0
  9
$UCSORTHOREF
  2

  9
$UCSORTHOVIEW
 70
0
  9
$UCSORGTOP
 10
0.0
 20
0.0
 30
0.0
  9
$UCSORGBOTTOM
 10
0.0
 20
0.0
 30
0.0
  9
$UCSORGLEFT
 10
0.0
 20
0.0
 30
0.0
  9
$UCSORGRIGHT
 10
0.0
 20
0.0
 30
0.0
  9
$UCSORGFRONT
 10
0.0
 20
0.0
 30
0.0
  9
$UCSORGBACK
 10
0.0
 20
0.0
 30
0.0
  9
$PUCSBASE
  2

  9
$PUCSNAME
  2

  9
$PUCSORG
 10
0.0
 20
0.0
 30
0.0
  9
$PUCSXDIR
 10
1.0
 20
0.0
 30
0.0
  9
$PUCSYDIR
 10
0.0
 20
1.0
 30
0.0
  9
$PUCSORTHOREF
  2

  9
$PUCSORTHOVIEW
 70
0
  9
$PUCSORGTOP
 10
0.0
 20
0.0
 30
0.0
  9
$PUCSORGBOTTOM
 10
0.0
 20
0.0
 30
0.0
  9
$PUCSORGLEFT
 10
0.0
 20
0.0
 30
0.0
  9
$PUCSORGRIGHT
 10
0.0
 20
0.0
 30
0.0
  9
$PUCSORGFRONT
 10
0.0
 20
0.0
 30
0.0
  9
$PUCSORGBACK
 10
0.0
 20
0.0
 30
0.0
  9
$USERI1
 70
0
  9
$USERI2
 70
0
  9
$USERI3
 70
0
  9
$USERI4
 70
0
  9
$USERI5
 70
0
  9
$USERR1
 40
0.0
  9
$USERR2
 40
0.0
  9
$USERR3
 40
0.0
  9
$USERR4
 40
0.0
  9
$USERR5
 40
0.0
  9
$WORLDVIEW
 70
1
  9
$SHADEDGE
 70
3
  9
$SHADEDIF
 70
70
  9
$TILEMODE
 70
1
  9
$MAXACTVP
 70
64
  9
$PINSBASE
 10
0.0
 20
0.0
 30
0.0
  9
$PLIMCHECK
 70
0
  9
$PEXTMIN
 10
1e+20
 20
1e+20
 30
1e+20
  9
$PEXTMAX
 10
-1e+20
 20
-1e+20
 30
-1e+20
  9
$PLIMMIN
 10
0.0
 20
0.0
  9
$PLIMMAX
 10
420.0
 20
297.0
  9
$UNITMODE
 70
0
  9
$VISRETAIN
 70
1
  9
$PLINEGEN
 70
0
  9
$PSLTSCALE
 70
1
  9
$TREEDEPTH
 70
3020
  9
$CMLSTYLE
  2
Standard
  9
$CMLJUST
 70
0
  9
$CMLSCALE
 40
20.0
  9
$PROXYGRAPHICS
 70
1
  9
$MEASUREMENT
 70
1
  9
$CELWEIGHT
370
-1
  9
$ENDCAPS
280
0
  9
$JOINSTYLE
280
0
  9
$LWDISPLAY
290
0
  9
$INSUNITS
 70
6
  9
$HYPERLINKBASE
  1

  9
$STYLESHEET
  1

  9
$XEDIT
290
1
  9
$CEPSNTYPE
380
0
  9
$PSTYLEMODE
290
1
  9
$FINGERPRINTGUID
  2
85FE01EC-7499-11EB-88D7-F82819B92F76
  9
$VERSIONGUID
  2
8B61E0EA-7499-11EB-9037-F82819B92F76
  9
$EXTNAMES
290
1
  9
$PSVPSCALE
 40
0.0
  9
$OLESTARTUP
290
0
  9
$SORTENTS
280
127
  9
$INDEXCTL
280
0
  9
$HIDETEXT
280
1
  9
$XCLIPFRAME
280
2
  9
$HALOGAP
280
0
  9
$OBSCOLOR
 70
257
  9
$OBSLTYPE
280
0
  9
$INTERSECTIONDISPLAY
280
0
  9
$INTERSECTIONCOLOR
 70
257
  9
$DIMASSOC
280
2
  9
$PROJECTNAME
  1

  9
$CAMERADISPLAY
290
0
  9
$LENSLENGTH
 40
50.0
  9
$CAMERAHEIGHT
 40
0.0
  9
$STEPSPERSEC
 40
24.0
  9
$STEPSIZE
 40
100.0
  9
$3DDWFPREC
 40
2.0
  9
$PSOLWIDTH
 40
0.005
  9
$PSOLHEIGHT
 40
0.08
  9
$LOFTANG1
 40
1.570796326795
  9
$LOFTANG2
 40
1.570796326795
  9
$LOFTMAG1
 40
0.0
  9
$LOFTMAG2
 40
0.0
  9
$LOFTPARAM
 70
7
  9
$LOFTNORMALS
280
1
  9
$LATITUDE
 40
37.795
  9
$LONGITUDE
 40
-122.394
  9
$NORTHDIRECTION
 40
0.0
  9
$TIMEZONE
 70
-8000
  9
$LIGHTGLYPHDISPLAY
280
1
  9
$TILEMODELIGHTSYNCH
280
1
  9
$CMATERIAL
347
20
  9
$SOLIDHIST
280
0
  9
$SHOWHIST
280
1
  9
$DWFFRAME
280
2
  9
$DGNFRAME
280
2
  9
$REALWORLDSCALE
290
1
  9
$INTERFERECOLOR
 62
256
  9
$CSHADOW
280
0
  9
$SHADOWPLANELOCATION
 40
0.0
  0
ENDSEC
  0
SECTION
  2
CLASSES
  0
CLASS
  1
ACDBDICTIONARYWDFLT
  2
AcDbDictionaryWithDefault
  3
ObjectDBX Classes
 90
0
 91
0
280
0
281
0
  0
CLASS
  1
SUN
  2
AcDbSun
  3
SCENEOE
 90
1153
 91
0
280
0
281
0
  0
CLASS
  1
VISUALSTYLE
  2
AcDbVisualStyle
  3
ObjectDBX Classes
 90
4095
 91
0
280
0
281
0
  0
CLASS
  1
MATERIAL
  2
AcDbMaterial
  3
ObjectDBX Classes
 90
1153
 91
0
280
0
281
0
  0
CLASS
  1
SCALE
  2
AcDbScale
  3
ObjectDBX Classes
 90
1153
 91
0
280
0
281
0
  0
CLASS
  1
TABLESTYLE
  2
AcDbTableStyle
  3
ObjectDBX Classes
 90
4095
 91
0
280
0
281
0
  0
CLASS
  1
MLEADERSTYLE
  2
AcDbMLeaderStyle
  3
ACDB_MLEADERSTYLE_CLASS
 90
4095
 91
0
280
0
281
0
  0
CLASS
  1
DICTIONARYVAR
  2
AcDbDictionaryVar
  3
ObjectDBX Classes
 90
0
 91
0
280
0
281
0
  0
CLASS
  1
CELLSTYLEMAP
  2
AcDbCellStyleMap
  3
ObjectDBX Classes
 90
1152
 91
0
280
0
281
0
  0
CLASS
  1
MENTALRAYRENDERSETTINGS
  2
AcDbMentalRayRenderSettings
  3
SCENEOE
 90
1024
 91
0
280
0
281
0
  0
CLASS
  1
ACDBDETAILVIEWSTYLE
  2
AcDbDetailViewStyle
  3
ObjectDBX Classes
 90
1025
 91
0
280
0
281
0
  0
CLASS
  1
ACDBSECTIONVIEWSTYLE
  2
AcDbSectionViewStyle
  3
ObjectDBX Classes
 90
1025
 91
0
280
0
281
0
  0
CLASS
  1
RASTERVARIABLES
  2
AcDbRasterVariables
  3
ISM
 90
0
 91
0
280
0
281
0
  0
CLASS
  1
ACDBPLACEHOLDER
  2
AcDbPlaceHolder
  3
ObjectDBX Classes
 90
0
 91
0
280
0
281
0
  0
CLASS
  1
LAYOUT
  2
AcDbLayout
  3
ObjectDBX Classes
 90
0
 91
0
280
0
281
0
  0
ENDSEC
  0
SECTION
  2
TABLES
  0
TABLE
  2
VPORT
  5
8
330
0
100
AcDbSymbolTable
 70
1
  0
VPORT
  5
23
330
8
100
AcDbSymbolTableRecord
100
AcDbViewportTableRecord
  2
*Active
 70
0
 10
0.0
 20
0.0
 11
1.0
 21
1.0
 12
70.0
 22
50.0
 13
0.0
 23
0.0
 14
0.5
 24
0.5
 15
0.5
 25
0.5
 16
0.0
 26
0.0
 36
1.0
 17
0.0
 27
0.0
 37
0.0
 40
1.0
 41
1.34
 42
50.0
 43
0.0
 44
0.0
 50
0.0
 51
0.0
 71
0
 72
1000
 73
1
 74
3
 75
0
 76
0
 77
0
 78
0
281
0
 65
0
146
0.0
  0
ENDTAB
  0
TABLE
  2
LTYPE
  5
2
330
0
100
AcDbSymbolTable
 70
21
  0
LTYPE
  5
24
330
2
100
AcDbSymbolTableRecord
100
AcDbLinetypeTableRecord
  2
ByBlock
 70
0
  3

 72
65
 73
0
 40
0.0
  0
LTYPE
  5
25
330
2
100
AcDbSymbolTableRecord
100
AcDbLinetypeTableRecord
  2
ByLayer
 70
0
  3

 72
65
 73
0
 40
0.0
  0
LTYPE
  5
26
330
2
100
AcDbSymbolTableRecord
100
AcDbLinetypeTableRecord
  2
Continuous
 70
0
  3

 72
65
 73
0
 40
0.0
  0
LTYPE
  5
2D
330
2
100
AcDbSymbolTableRecord
100
AcDbLinetypeTableRecord
  2
CENTER
 70
0
  3
Center ____ _ ____ _ ____ _ ____ _ ____ _ ____
 72
65
 73
4
 40
2.0
 49
1.25
 74
0
 49
-0.25
 74
0
 49
0.25
 74
0
 49
-0.25
 74
0
  0
LTYPE
  5
2E
330
2
100
AcDbSymbolTableRecord
100
AcDbLinetypeTableRecord
  2
CENTERX2
 70
0
  3
Center (2x) ________  __  ________  __  ________
 72
65
 73
4
 40
3.5
 49
2.5
 74
0
 49
-0.25
 74
0
 49
0.5
 74
0
 49
-0.25
 74
0
  0
LTYPE
  5
2F
330
2
100
AcDbSymbolTableRecord
100
AcDbLinetypeTableRecord
  2
CENTER2
 70
0
  3
Center (.5x) ____ _ ____ _ ____ _ ____ _ ____
 72
65
 73
4
 40
1.0
 49
0.625
 74
0
 49
-0.125
 74
0
 49
0.125
 74
0
 49
-0.125
 74
0
  0
LTYPE
  5
30
330
2
100
AcDbSymbolTableRecord
100
AcDbLinetypeTableRecord
  2
DASHED
 70
0
  3
Dashed __ __ __ __ __ __ __ __ __ __ __ __ __ _
 72
65
 73
2
 40
0.6
 49
0.5
 74
0
 49
-0.1
 74
0
  0
LTYPE
  5
31
330
2
100
AcDbSymbolTableRecord
100
AcDbLinetypeTableRecord
  2
DASHEDX2
 70
0
  3
Dashed (2x) ____  ____  ____  ____  ____  ____
 72
65
 73
2
 40
1.2
 49
1.0
 74
0
 49
-0.2
 74
0
  0
LTYPE
  5
32
330
2
100
AcDbSymbolTableRecord
100
AcDbLinetypeTableRecord
  2
DASHED2
 70
0
  3
Dashed (.5x) _ _ _ _ _ _ _ _ _ _ _ _ _ _
 72
65
 73
2
 40
0.3
 49
0.25
 74
0
 49
-0.05
 74
0
  0
LTYPE
  5
33
330
2
100
AcDbSymbolTableRecord
100
AcDbLinetypeTableRecord
  2
PHANTOM
 70
0
  3
Phantom ______  __  __  ______  __  __  ______
 72
65
 73
6
 40
2.5
 49
1.25
 74
0
 49
-0.25
 74
0
 49
0.25
 74
0
 49
-0.25
 74
0
 49
0.25
 74
0
 49
-0.25
 74
0
  0
LTYPE
  5
34
330
2
100
AcDbSymbolTableRecord
100
AcDbLinetypeTableRecord
  2
PHANTOMX2
 70
0
  3
Phantom (2x)____________    ____    ____    ____________
 72
65
 73
6
 40
4.25
 49
2.5
 74
0
 49
-0.25
 74
0
 49
0.5
 74
0
 49
-0.25
 74
0
 49
0.5
 74
0
 49
-0.25
 74
0
  0
LTYPE
  5
35
330
2
100
AcDbSymbolTableRecord
100
AcDbLinetypeTableRecord
  2
PHANTOM2
 70
0
  3
Phantom (.5x) ___ _ _ ___ _ _ ___ _ _ ___ _ _ ___
 72
65
 73
6
 40
1.25
 49
0.625
 74
0
 49
-0.125
 74
0
 49
0.125
 74
0
 49
-0.125
 74
0
 49
0.125
 74
0
 49
-0.125
 74
0
  0
LTYPE
  5
36
330
2
100
AcDbSymbolTableRecord
100
AcDbLinetypeTableRecord
  2
DASHDOT
 70
0
  3
Dash dot __ . __ . __ . __ . __ . __ . __ . __
 72
65
 73
4
 40
1.4
 49
1.0
 74
0
 49
-0.2
 74
0
 49
0.0
 74
0
 49
-0.2
 74
0
  0
LTYPE
  5
37
330
2
100
AcDbSymbolTableRecord
100
AcDbLinetypeTableRecord
  2
DASHDOTX2
 70
0
  3
Dash dot (2x) ____  .  ____  .  ____  .  ____
 72
65
 73
4
 40
2.4
 49
2.0
 74
0
 49
-0.2
 74
0
 49
0.0
 74
0
 49
-0.2
 74
0
  0
LTYPE
  5
38
330
2
100
AcDbSymbolTableRecord
100
AcDbLinetypeTableRecord
  2
DASHDOT2
 70
0
  3
Dash dot (.5x) _ . _ . _ . _ . _ . _ . _ . _
 72
65
 73
4
 40
0.7
 49
0.5
 74
0
 49
-0.1
 74
0
 49
0.0
 74
0
 49
-0.1
 74
0
  0
LTYPE
  5
39
330
2
100
AcDbSymbolTableRecord
100
AcDbLinetypeTableRecord
  2
DOT
 70
0
  3
Dot .  .  .  .  .  .  .  .  .  .  .  .  .  .  .  .
 72
65
 73
2
 40
0.2
 49
0.0
 74
0
 49
-0.2
 74
0
  0
LTYPE
  5
3A
330
2
100
AcDbSymbolTableRecord
100
AcDbLinetypeTableRecord
  2
DOTX2
 70
0
  3
Dot (2x) .    .    .    .    .    .    .    . 
 72
65
 73
2
 40
0.4
 49
0.0
 74
0
 49
-0.4
 74
0
  0
LTYPE
  5
3B
330
2
100
AcDbSymbolTableRecord
100
AcDbLinetypeTableRecord
  2
DOT2
 70
0
  3
Dot (.5) . . . . . . . . . . . . . . . . . . . 
 72
65
 73
2
 40
0.1
 49
0.0
 74
0
 49
-0.1
 74
0
  0
LTYPE
  5
3C
330
2
100
AcDbSymbolTableRecord
100
AcDbLinetypeTableRecord
  2
DIVIDE
 70
0
  3
Divide __ . . __ . . __ . . __ . . __ . . __
 72
65
 73
6
 40
1.6
 49
1.0
 74
0
 49
-0.2
 74
0
 49
0.0
 74
0
 49
-0.2
 74
0
 49
0.0
 74
0
 49
-0.2
 74
0
  0
LTYPE
  5
3D
330
2
100
AcDbSymbolTableRecord
100
AcDbLinetypeTableRecord
  2
DIVIDEX2
 70
0
  3
Divide (2x) ____  . .  ____  . .  ____  . .  ____
 72
65
 73
6
 40
2.6
 49
2.0
 74
0
 49
-0.2
 74
0
 49
0.0
 74
0
 49
-0.2
 74
0
 49
0.0
 74
0
 49
-0.2
 74
0
  0
LTYPE
  5
3E
330
2
100
AcDbSymbolTableRecord
100
AcDbLinetypeTableRecord
  2
DIVIDE2
 70
0
  3
Divide(.5x) _ . _ . _ . _ . _ . _ . _ . _
 72
65
 73
6
 40
0.8
 49
0.5
 74
0
 49
-0.1
 74
0
 49
0.0
 74
0
 49
-0.1
 74
0
 49
0.0
 74
0
 49
-0.1
 74
0
  0
ENDTAB
  0
TABLE
  2
LAYER
  5
1
330
0
100
AcDbSymbolTable
 70
7
  0
LAYER
  5
27
330
1
100
AcDbSymbolTableRecord
100
AcDbLayerTableRecord
  2
0
 70
0
 62
7
  6
Continuous
370
-3
390
13
347
21
  0
LAYER
  5
28
330
1
100
AcDbSymbolTableRecord
100
AcDbLayerTableRecord
  2
Defpoints
 70
0
 62
7
  6
Continuous
290
0
370
-3
390
13
347
21
  0
LAYER
  5
87
330
1
100
AcDbSymbolTableRecord
100
AcDbLayerTableRecord
  2
boundary_slab
 70
0
 62
3
  6
Continuous
370
-3
390
13
347
21
  0
LAYER
  5
92
330
1
100
AcDbSymbolTableRecord
100
AcDbLayerTableRecord
  2
top_x
 70
0
 62
4
  6
Continuous
370
-3
390
13
347
21
  0
LAYER
  5
93
330
1
100
AcDbSymbolTableRecord
100
AcDbLayerTableRecord
  2
top_y
 70
0
 62
5
  6
Continuous
370
-3
390
13
347
21
  0
LAYER
  5
94
330
1
100
AcDbSymbolTableRecord
100
AcDbLayerTableRecord
  2
bot_x
 70
0
 62
1
  6
Continuous
370
-3
390
13
347
21
  0
LAYER
  5
95
330
1
100
AcDbSymbolTableRecord
100
AcDbLayerTableRecord
  2
bot_y
 70
0
 62
2
  6
Continuous
370
-3
390
13
347
21
  0
ENDTAB
  0
TABLE
  2
STYLE
  5
5
330
0
100
AcDbSymbolTable
 70
26
  0
STYLE
  5
29
330
5
100
AcDbSymbolTableRecord
100
AcDbTextStyleTableRecord
  2
Standard
 70
0
 40
0.0
 41
1.0
 50
0.0
 71
0
 42
2.5
  3
txt
  4

  0
STYLE
  5
3F
330
5
100
AcDbSymbolTableRecord
100
AcDbTextStyleTableRecord
  2
OpenSans-Light
 70
0
 40
0.0
 41
1.0
 50
0.0
 71
0
 42
2.5
  3
OpenSans-Light.ttf
  4

  0
STYLE
  5
40
330
5
100
AcDbSymbolTableRecord
100
AcDbTextStyleTableRecord
  2
OpenSans-Light-Italic
 70
0
 40
0.0
 41
1.0
 50
0.0
 71
0
 42
2.5
  3
OpenSans-LightItalic.ttf
  4

  0
STYLE
  5
41
330
5
100
AcDbSymbolTableRecord
100
AcDbTextStyleTableRecord
  2
OpenSans
 70
0
 40
0.0
 41
1.0
 50
0.0
 71
0
 42
2.5
  3
OpenSans-Regular.ttf
  4

  0
STYLE
  5
42
330
5
100
AcDbSymbolTableRecord
100
AcDbTextStyleTableRecord
  2
OpenSans-Italic
 70
0
 40
0.0
 41
1.0
 50
0.0
 71
0
 42
2.5
  3
OpenSans-Italic.ttf
  4

  0
STYLE
  5
43
330
5
100
AcDbSymbolTableRecord
100
AcDbTextStyleTableRecord
  2
OpenSans-SemiBold
 70
0
 40
0.0
 41
1.0
 50
0.0
 71
0
 42
2.5
  3
OpenSans-SemiBold.ttf
  4

  0
STYLE
  5
44
330
5
100
AcDbSymbolTableRecord
100
AcDbTextStyleTableRecord
  2
OpenSans-SemiBoldItalic
 70
0
 40
0.0
 41
1.0
 50
0.0
 71
0
 42
2.5
  3
OpenSans-SemiBoldItalic.ttf
  4

  0
STYLE
  5
45
330
5
100
AcDbSymbolTableRecord
100
AcDbTextStyleTableRecord
  2
OpenSans-Bold
 70
0
 40
0.0
 41
1.0
 50
0.0
 71
0
 42
2.5
  3
OpenSans-Bold.ttf
  4

  0
STYLE
  5
46
330
5
100
AcDbSymbolTableRecord
100
AcDbTextStyleTableRecord
  2
OpenSans-BoldItalic
 70
0
 40
0.0
 41
1.0
 50
0.0
 71
0
 42
2.5
  3
OpenSans-BoldItalic.ttf
  4

  0
STYLE
  5
47
330
5
100
AcDbSymbolTableRecord
100
AcDbTextStyleTableRecord
  2
OpenSans-ExtraBold
 70
0
 40
0.0
 41
1.0
 50
0.0
 71
0
 42
2.5
  3
OpenSans-ExtraBold.ttf
  4

  0
STYLE
  5
48
330
5
100
AcDbSymbolTableRecord
100
AcDbTextStyleTableRecord
  2
OpenSans-ExtraBoldItalic
 70
0
 40
0.0
 41
1.0
 50
0.0
 71
0
 42
2.5
  3
OpenSans-ExtraBoldItalic.ttf
  4

  0
STYLE
  5
49
330
5
100
AcDbSymbolTableRecord
100
AcDbTextStyleTableRecord
  2
OpenSansCondensed-Bold
 70
0
 40
0.0
 41
1.0
 50
0.0
 71
0
 42
2.5
  3
OpenSansCondensed-Bold.ttf
  4

  0
STYLE
  5
4A
330
5
100
AcDbSymbolTableRecord
100
AcDbTextStyleTableRecord
  2
OpenSansCondensed-Light
 70
0
 40
0.0
 41
1.0
 50
0.0
 71
0
 42
2.5
  3
OpenSansCondensed-Light.ttf
  4

  0
STYLE
  5
4B
330
5
100
AcDbSymbolTableRecord
100
AcDbTextStyleTableRecord
  2
OpenSansCondensed-Italic
 70
0
 40
0.0
 41
1.0
 50
0.0
 71
0
 42
2.5
  3
OpenSansCondensed-LightItalic.ttf
  4

  0
STYLE
  5
4C
330
5
100
AcDbSymbolTableRecord
100
AcDbTextStyleTableRecord
  2
LiberationSans
 70
0
 40
0.0
 41
1.0
 50
0.0
 71
0
 42
2.5
  3
LiberationSans-Regular.ttf
  4

  0
STYLE
  5
4D
330
5
100
AcDbSymbolTableRecord
100
AcDbTextStyleTableRecord
  2
LiberationSans-Bold
 70
0
 40
0.0
 41
1.0
 50
0.0
 71
0
 42
2.5
  3
LiberationSans-Bold.ttf
  4

  0
STYLE
  5
4E
330
5
100
AcDbSymbolTableRecord
100
AcDbTextStyleTableRecord
  2
LiberationSans-BoldItalic
 70
0
 40
0.0
 41
1.0
 50
0.0
 71
0
 42
2.5
  3
LiberationSans-BoldItalic.ttf
  4

  0
STYLE
  5
4F
330
5
100
AcDbSymbolTableRecord
100
AcDbTextStyleTableRecord
  2
LiberationSans-Italic
 70
0
 40
0.0
 41
1.0
 50
0.0
 71
0
 42
2.5
  3
LiberationSans-Italic.ttf
  4

  0
STYLE
  5
50
330
5
100
AcDbSymbolTableRecord
100
AcDbTextStyleTableRecord
  2
LiberationSerif
 70
0
 40
0.0
 41
1.0
 50
0.0
 71
0
 42
2.5
  3
LiberationSerif-Regular.ttf
  4

  0
STYLE
  5
51
330
5
100
AcDbSymbolTableRecord
100
AcDbTextStyleTableRecord
  2
LiberationSerif-Bold
 70
0
 40
0.0
 41
1.0
 50
0.0
 71
0
 42
2.5
  3
LiberationSerif-Bold.ttf
  4

  0
STYLE
  5
52
330
5
100
AcDbSymbolTableRecord
100
AcDbTextStyleTableRecord
  2
LiberationSerif-BoldItalic
 70
0
 40
0.0
 41
1.0
 50
0.0
 71
0
 42
2.5
  3
LiberationSerif-BoldItalic.ttf
  4

  0
STYLE
  5
53
330
5
100
AcDbSymbolTableRecord
100
AcDbTextStyleTableRecord
  2
LiberationSerif-Italic
 70
0
 40
0.0
 41
1.0
 50
0.0
 71
0
 42
2.5
  3
LiberationSerif-Italic.ttf
  4

  0
STYLE
  5
54
330
5
100
AcDbSymbolTableRecord
100
AcDbTextStyleTableRecord
  2
LiberationMono
 70
0
 40
0.0
 41
1.0
 50
0.0
 71
0
 42
2.5
  3
LiberationMono-Regular.ttf
  4

  0
STYLE
  5
55
330
5
100
AcDbSymbolTableRecord
100
AcDbTextStyleTableRecord
  2
LiberationMono-Bold
 70
0
 40
0.0
 41
1.0
 50
0.0
 71
0
 42
2.5
  3
LiberationMono-Bold.ttf
  4

  0
STYLE
  5
56
330
5
100
AcDbSymbolTableRecord
100
AcDbTextStyleTableRecord
  2
LiberationMono-BoldItalic
 70
0
 40
0.0
 41
1.0
 50
0.0
 71
0
 42
2.5
  3
LiberationMono-BoldItalic.ttf
  4

  0
STYLE
  5
57
330
5
100
AcDbSymbolTableRecord
100
AcDbTextStyleTableRecord
  2
LiberationMono-Italic
 70
0
 40
0.0
 41
1.0
 50
0.0
 71
0
 42
2.5
  3
LiberationMono-Italic.ttf
  4

  0
ENDTAB
  0
TABLE
  2
VIEW
  5
7
330
0
100
AcDbSymbolTable
 70
0
  0
ENDTAB
  0
TABLE
  2
UCS
  5
6
330
0
100
AcDbSymbolTable
 70
0
  0
ENDTAB
  0
TABLE
  2
APPID
  5
3
330
0
100
AcDbSymbolTable
 70
1
  0
APPID
  5
2A
330
3
100
AcDbSymbolTableRecord
100
AcDbRegAppTableRecord
  2
ACAD
 70
0
  0
ENDTAB
  0
TABLE
  2
DIMSTYLE
  5
4
330
0
100
AcDbSymbolTable
 70
11
100
AcDbDimStyleTable
  0
DIMSTYLE
105
2B
330
4
100
AcDbSymbolTableRecord
100
AcDbDimStyleTableRecord
  2
Standard
 70
0
 40
1.0
 41
2.5
 42
0.625
 43
3.75
 44
1.25
 45
0.0
 46
0.0
 47
0.0
 48
0.0
 49
2.5
140
2.5
141
2.5
142
0.0
143
0.03937007874
144
1.0
145
0.0
146
1.0
147
0.625
148
0.0
 69
0
 70
0
 71
0
 72
0
 73
0
 74
0
 75
0
 76
0
 77
1
 78
8
 79
0
170
0
171
3
172
1
173
0
174
0
175
0
176
0
177
0
178
0
179
0
271
0
272
2
273
2
274
3
275
0
276
0
277
2
278
44
279
0
280
0
281
0
282
0
283
0
284
8
285
0
286
0
288
0
289
3
290
0
371
-2
372
-2
  0
DIMSTYLE
105
71
330
4
100
AcDbSymbolTableRecord
100
AcDbDimStyleTableRecord
  2
EZDXF
 70
0
 40
1.0
 41
0.175
 42
0.125
 43
3.75
 44
0.375
 45
0.0
 46
0.0
 47
0.0
 48
0.0
 49
2.5
140
0.25
141
2.5
142
0.0
143
0.03937007874
144
100.0
145
0.0
146
1.0
147
0.1
148
0.0
 69
0
 70
0
 71
0
 72
0
 73
0
 74
0
 75
0
 76
0
 77
1
 78
8
 79
0
170
0
171
3
172
1
173
0
174
0
175
0
176
0
177
0
178
0
179
0
271
2
272
2
273
2
274
3
275
0
276
0
277
2
278
46
279
2
280
0
281
0
282
0
283
0
284
8
285
0
286
0
288
1
289
3
290
0
340
4A
342
72
371
-2
372
-2
  0
DIMSTYLE
105
7A
330
4
100
AcDbSymbolTableRecord
100
AcDbDimStyleTableRecord
  2
EZ_M_100_H25_CM
 70
0
 40
1.0
 41
0.25
 42
0.125
 43
3.75
 44
0.375
 45
0.0
 46
0.0
 47
0.0
 48
0.0
 49
2.5
140
0.25
141
2.5
142
0.125
143
0.03937007874
144
100.0
145
0.0
146
1.0
147
0.1
148
0.0
 69
0
 70
0
 71
0
 72
0
 73
0
 74
0
 75
0
 76
0
 77
1
 78
8
 79
0
170
0
171
3
172
1
173
0
174
0
175
0
176
0
177
0
178
0
179
0
271
2
272
2
273
2
274
3
275
0
276
0
277
2
278
46
279
2
280
0
281
0
282
0
283
0
284
8
285
0
286
0
288
1
289
3
290
0
340
4A
371
-2
372
-2
  0
DIMSTYLE
105
7B
330
4
100
AcDbSymbolTableRecord
100
AcDbDimStyleTableRecord
  2
EZ_M_50_H25_CM
 70
0
 40
1.0
 41
0.125
 42
0.0625
 43
3.75
 44
0.1875
 45
0.0
 46
0.0
 47
0.0
 48
0.0
 49
2.5
140
0.125
141
2.5
142
0.0625
143
0.03937007874
144
100.0
145
0.0
146
1.0
147
0.05
148
0.0
 69
0
 70
0
 71
0
 72
0
 73
0
 74
0
 75
0
 76
0
 77
1
 78
8
 79
0
170
0
171
3
172
1
173
0
174
0
175
0
176
0
177
0
178
0
179
0
271
2
272
2
273
2
274
3
275
0
276
0
277
2
278
46
279
2
280
0
281
0
282
0
283
0
284
8
285
0
286
0
288
1
289
3
290
0
340
4A
371
-2
372
-2
  0
DIMSTYLE
105
7C
330
4
100
AcDbSymbolTableRecord
100
AcDbDimStyleTableRecord
  2
EZ_M_25_H25_CM
 70
0
 40
1.0
 41
0.0625
 42
0.03125
 43
3.75
 44
0.09375
 45
0.0
 46
0.0
 47
0.0
 48
0.0
 49
2.5
140
0.0625
141
2.5
142
0.03125
143
0.03937007874
144
100.0
145
0.0
146
1.0
147
0.025
148
0.0
 69
0
 70
0
 71
0
 72
0
 73
0
 74
0
 75
0
 76
0
 77
1
 78
8
 79
0
170
0
171
3
172
1
173
0
174
0
175
0
176
0
177
0
178
0
179
0
271
2
272
2
273
2
274
3
275
0
276
0
277
2
278
46
279
2
280
0
281
0
282
0
283
0
284
8
285
0
286
0
288
1
289
3
290
0
340
4A
371
-2
372
-2
  0
DIMSTYLE
105
7D
330
4
100
AcDbSymbolTableRecord
100
AcDbDimStyleTableRecord
  2
EZ_M_20_H25_CM
 70
0
 40
1.0
 41
0.05
 42
0.025
 43
3.75
 44
0.07500000000000001
 45
0.0
 46
0.0
 47
0.0
 48
0.0
 49
2.5
140
0.05
141
2.5
142
0.025
143
0.03937007874
144
100.0
145
0.0
146
1.0
147
0.020000000000000004
148
0.0
 69
0
 70
0
 71
0
 72
0
 73
0
 74
0
 75
0
 76
0
 77
1
 78
8
 79
0
170
0
171
3
172
1
173
0
174
0
175
0
176
0
177
0
178
0
179
0
271
2
272
2
273
2
274
3
275
0
276
0
277
2
278
46
279
2
280
0
281
0
282
0
283
0
284
8
285
0
286
0
288
1
289
3
290
0
340
4A
371
-2
372
-2
  0
DIMSTYLE
105
7E
330
4
100
AcDbSymbolTableRecord
100
AcDbDimStyleTableRecord
  2
EZ_M_10_H25_CM
 70
0
 40
1.0
 41
0.025
 42
0.0125
 43
3.75
 44
0.037500000000000006
 45
0.0
 46
0.0
 47
0.0
 48
0.0
 49
2.5
140
0.025
141
2.5
142
0.0125
143
0.03937007874
144
100.0
145
0.0
146
1.0
147
0.010000000000000002
148
0.0
 69
0
 70
0
 71
0
 72
0
 73
0
 74
0
 75
0
 76
0
 77
1
 78
8
 79
0
170
0
171
3
172
1
173
0
174
0
175
0
176
0
177
0
178
0
179
0
271
2
272
2
273
2
274
3
275
0
276
0
277
2
278
46
279
2
280
0
281
0
282
0
283
0
284
8
285
0
286
0
288
1
289
3
290
0
340
4A
371
-2
372
-2
  0
DIMSTYLE
105
7F
330
4
100
AcDbSymbolTableRecord
100
AcDbDimStyleTableRecord
  2
EZ_M_5_H25_CM
 70
0
 40
1.0
 41
0.0125
 42
0.00625
 43
3.75
 44
0.018750000000000003
 45
0.0
 46
0.0
 47
0.0
 48
0.0
 49
2.5
140
0.0125
141
2.5
142
0.00625
143
0.03937007874
144
100.0
145
0.0
146
1.0
147
0.005000000000000001
148
0.0
 69
0
 70
0
 71
0
 72
0
 73
0
 74
0
 75
0
 76
0
 77
1
 78
8
 79
0
170
0
171
3
172
1
173
0
174
0
175
0
176
0
177
0
178
0
179
0
271
2
272
2
273
2
274
3
275
0
276
0
277
2
278
46
279
2
280
0
281
0
282
0
283
0
284
8
285
0
286
0
288
1
289
3
290
0
340
4A
371
-2
372
-2
  0
DIMSTYLE
105
80
330
4
100
AcDbSymbolTableRecord
100
AcDbDimStyleTableRecord
  2
EZ_M_1_H25_CM
 70
0
 40
1.0
 41
0.0025
 42
0.00125
 43
3.75
 44
0.00375
 45
0.0
 46
0.0
 47
0.0
 48
0.0
 49
2.5
140
0.0025
141
2.5
142
0.00125
143
0.03937007874
144
100.0
145
0.0
146
1.0
147
0.001
148
0.0
 69
0
 70
0
 71
0
 72
0
 73
0
 74
0
 75
0
 76
0
 77
1
 78
8
 79
0
170
0
171
3
172
1
173
0
174
0
175
0
176
0
177
0
178
0
179
0
271
2
272
2
273
2
274
3
275
0
276
0
277
2
278
46
279
2
280
0
281
0
282
0
283
0
284
8
285
0
286
0
288
1
289
3
290
0
340
4A
371
-2
372
-2
  0
DIMSTYLE
105
81
330
4
100
AcDbSymbolTableRecord
100
AcDbDimStyleTableRecord
  2
EZ_RADIUS
 70
0
 40
1.0
 41
0.25
 42
0.125
 43
3.75
 44
0.375
 45
0.0
 46
0.0
 47
0.0
 48
0.0
 49
2.5
140
0.25
141
0.0
142
0.0
143
0.03937007874
144
100.0
145
0.0
146
1.0
147
0.1
148
0.0
 69
0
 70
0
 71
0
 72
0
 73
0
 74
0
 75
0
 76
0
 77
1
 78
8
 79
0
170
0
171
3
172
0
173
0
174
0
175
0
176
0
177
0
178
0
179
0
271
2
272
2
273
2
274
3
275
0
276
0
277
2
278
46
279
1
280
0
281
0
282
0
283
0
284
8
285
0
286
0
288
1
289
3
290
0
340
4A
342
82
371
-2
372
-2
  0
DIMSTYLE
105
86
330
4
100
AcDbSymbolTableRecord
100
AcDbDimStyleTableRecord
  2
EZ_RADIUS_INSIDE
 70
0
 40
1.0
 41
0.25
 42
0.125
 43
3.75
 44
0.375
 45
0.0
 46
0.0
 47
0.0
 48
0.0
 49
2.5
140
0.25
141
0.0
142
0.0
143
0.03937007874
144
100.0
145
0.0
146
1.0
147
0.1
148
0.0
 69
0
 70
0
 71
0
 72
0
 73
0
 74
0
 75
0
 76
0
 77
0
 78
8
 79
0
170
0
171
3
172
0
173
0
174
1
175
0
176
0
177
0
178
0
179
0
271
2
272
2
273
2
274
3
275
0
276
0
277
2
278
46
279
0
280
0
281
0
282
0
283
0
284
8
285
0
286
0
288
1
289
0
290
0
340
4A
342
82
371
-2
372
-2
  0
ENDTAB
  0
TABLE
  2
BLOCK_RECORD
  5
9
330
0
100
AcDbSymbolTable
 70
5
  0
BLOCK_RECORD
  5
17
330
9
100
AcDbSymbolTableRecord
100
AcDbBlockTableRecord
  2
*Model_Space
340
1A
 70
0
280
1
281
0
  0
BLOCK_RECORD
  5
1B
330
9
100
AcDbSymbolTableRecord
100
AcDbBlockTableRecord
  2
*Paper_Space
340
1E
 70
0
280
1
281
0
  0
BLOCK_RECORD
  5
72
330
9
100
AcDbSymbolTableRecord
100
AcDbBlockTableRecord
  2
_ARCHTICK
340
0
 70
0
280
1
281
0
  0
BLOCK_RECORD
  5
76
330
9
100
AcDbSymbolTableRecord
100
AcDbBlockTableRecord
  2
_CLOSEDFILLED
340
0
 70
0
280
1
281
0
  0
BLOCK_RECORD
  5
82
330
9
100
AcDbSymbolTableRecord
100
AcDbBlockTableRecord
  2
_CLOSEDBLANK
340
0
 70
0
280
1
281
0
  0
ENDTAB
  0
ENDSEC
  0
SECTION
  2
BLOCKS
  0
BLOCK
  5
18
330
17
100
AcDbEntity
  8
0
100
AcDbBlockBegin
  2
*Model_Space
 70
0
 10
0.0
 20
0.0
 30
0.0
  3
*Model_Space
  1

  0
ENDBLK
  5
19
330
17
100
AcDbEntity
  8
0
100
AcDbBlockEnd
  0
BLOCK
  5
1C
330
1B
100
AcDbEntity
  8
0
100
AcDbBlockBegin
  2
*Paper_Space
 70
0
 10
0.0
 20
0.0
 30
0.0
  3
*Paper_Space
  1

  0
ENDBLK
  5
1D
330
1B
100
AcDbEntity
  8
0
100
AcDbBlockEnd
  0
BLOCK
  5
73
330
72
100
AcDbEntity
  8
0
100
AcDbBlockBegin
  2
_ARCHTICK
 70
0
 10
0.0
 20
0.0
 30
0.0
  3
_ARCHTICK
  1

  0
LWPOLYLINE
  5
75
330
72
100
AcDbEntity
  8
0
  6
BYBLOCK
 62
0
100
AcDbPolyline
 90
2
 70
0
 43
0.15
 10
-0.5
 20
-0.5000000000000001
 10
0.5000000000000001
 20
0.5
  0
ENDBLK
  5
74
330
72
100
AcDbEntity
  8
0
100
AcDbBlockEnd
  0
BLOCK
  5
77
330
76
100
AcDbEntity
  8
0
100
AcDbBlockBegin
  2
_CLOSEDFILLED
 70
0
 10
0.0
 20
0.0
 30
0.0
  3
_CLOSEDFILLED
  1

  0
SOLID
  5
79
330
76
100
AcDbEntity
  8
0
  6
BYBLOCK
 62
0
100
AcDbTrace
 10
-1.0
 20
0.1643989837240255
 30
0.0
 11
0.0
 21
0.0
 31
0.0
 12
-1.0
 22
-0.1643989837240255
 32
0.0
 13
-1.0
 23
-0.1643989837240255
 33
0.0
  0
ENDBLK
  5
78
330
76
100
AcDbEntity
  8
0
100
AcDbBlockEnd
  0
BLOCK
  5
83
330
82
100
AcDbEntity
  8
0
100
AcDbBlockBegin
  2
_CLOSEDBLANK
 70
0
 10
0.0
 20
0.0
 30
0.0
  3
_CLOSEDBLANK
  1

  0
LWPOLYLINE
  5
85
330
82
100
AcDbEntity
  8
0
  6
BYBLOCK
 62
0
100
AcDbPolyline
 90
3
 70
1
 10
-1.0
 20
0.1643989837240255
 10
0.0
 20
0.0
 10
-1.0
 20
-0.1643989837240255
  0
ENDBLK
  5
84
330
82
100
AcDbEntity
  8
0
100
AcDbBlockEnd
  0
ENDSEC
  0
SECTION
  2
ENTITIES
  0
LWPOLYLINE
  5
88
330
17
100
AcDbEntity
  8
boundary_slab
100
AcDbPolyline
 90
6
 70
1
 10
86490.0
 20
-16268.0
 10
70432.0
 20
-11216.0
 10
66170.0
 20
-17522.0
 10
79649.0
 20
-21763.0
 10
79181.0
 20
-23251.0
 10
83832.0
 20
-24714.0
  0
LWPOLYLINE
  5
89
330
17
100
AcDbEntity
  8
boundary_slab
100
AcDbPolyline
 90
33
 70
1
 10
76122.0
 20
-73396.0
 10
70972.0
 20
-71399.0
 10
63838.0
 20
-68325.0
 10
56913.0
 20
-64970.0
 10
52958.0
 20
-62882.0
 10
46970.0
 20
-59467.0
 10
40547.0
 20
-55448.0
 10
66170.0
 20
-17522.0
 10
79649.0
 20
-21763.0
 10
79181.0
 20
-23251.0
 10
82701.0
 20
-24358.0
 10
78115.0
 20
-38932.0
 10
111083.0
 20
-49305.0
 10
110138.0
 20
-52309.0
 10
129235.00000000001
 20
-58318.0
 10
128690.0
 20
-59549.0
 10
126935.0
 20
-62962.0
 10
125392.0
 20
-65604.0
 10
123444.0
 20
-68337.0
 10
121133.0
 20
-70900.0
 10
118470.0
 20
-73240.0
 10
115847.0
 20
-75062.0
 10
112609.0
 20
-76801.0
 10
109359.0
 20
-78074.0
 10
105690.0
 20
-79013.0
 10
103543.0
 20
-79341.0
 10
101359.0
 20
-79511.0
 10
98974.0
 20
-79517.0
 10
96821.0
 20
-79356.0
 10
95252.0
 20
-79138.0
 10
93489.0
 20
-78792.0
 10
88370.0
 20
-77414.0
 10
85243.0
 20
-76484.0
  0
LWPOLYLINE
  5
8A
330
17
100
AcDbEntity
  8
boundary_slab
100
AcDbPolyline
 90
4
 70
1
 10
82787.0
 20
-64251.00000000001
 10
86889.0
 20
-65542.0
 10
88119.0
 20
-61631.0
 10
84018.0
 20
-60340.0
  0
LWPOLYLINE
  5
8B
330
17
100
AcDbEntity
  8
boundary_slab
100
AcDbPolyline
 90
4
 70
1
 10
52913.0
 20
-56884.0
 10
55321.0
 20
-53321.0
 10
51924.0
 20
-51026.0
 10
49516.0
 20
-54588.0
  0
LWPOLYLINE
  5
8C
330
17
100
AcDbEntity
  8
boundary_slab
100
AcDbPolyline
 90
4
 70
1
 10
60227.0
 20
-36022.0
 10
57931.0
 20
-39420.0
 10
61494.0
 20
-41827.0
 10
63790.0
 20
-38430.0
  0
LWPOLYLINE
  5
8D
330
17
100
AcDbEntity
  8
boundary_slab
100
AcDbPolyline
 90
4
 70
1
 10
73196.0
 20
-24510.0
 10
70900.0
 20
-27907.0
 10
67338.0
 20
-25500.0
 10
69633.0
 20
-22103.0
  0
LWPOLYLINE
  5
8E
330
17
100
AcDbEntity
  8
boundary_slab
100
AcDbPolyline
 90
4
 70
1
 10
56791.0
 20
-48787.0
 10
59087.0
 20
-45390.0
 10
55524.0
 20
-42982.0
 10
53228.0
 20
-46380.0
  0
LWPOLYLINE
  5
8F
330
17
100
AcDbEntity
  8
boundary_slab
100
AcDbPolyline
 90
4
 70
1
 10
121753.0
 20
-64769.99999999999
 10
117651.0
 20
-63479.0
 10
118882.0
 20
-59568.0
 10
122983.0
 20
-60859.0
  0
LWPOLYLINE
  5
90
330
17
100
AcDbEntity
  8
boundary_slab
100
AcDbPolyline
 90
4
 70
1
 10
68493.0
 20
-31470.0
 10
64930.00000000001
 20
-29063.0
 10
62635.0
 20
-32460.0
 10
66197.0
 20
-34867.0
  0
LWPOLYLINE
  5
91
330
17
100
AcDbEntity
  8
boundary_slab
100
AcDbPolyline
 90
4
 70
1
 10
112299.0
 20
-60747.0
 10
113530.0
 20
-56836.0
 10
109428.0
 20
-55545.0
 10
108197.0
 20
-59456.0
  0
LWPOLYLINE
  5
96
330
17
100
AcDbEntity
  8
top_x
100
AcDbPolyline
 90
245
 70
1
 10
55486.0
 20
-63004.0
 10
55206.0
 20
-63418.0
 10
54792.0
 20
-63139.0
 10
54377.0
 20
-62859.0
 10
53769.0
 20
-62447.0
 10
53549.0
 20
-62299.0
 10
53134.0
 20
-62019.0
 10
53000.0
 20
-61324.0
 10
52421.0
 20
-60933.0
 10
51892.0
 20
-61179.0
 10
51477.0
 20
-60899.0
 10
50783.0
 20
-61033.0
 10
50369.0
 20
-60753.0
 10
49804.0
 20
-61122.0
 10
50153.0
 20
-60607.0
 10
50235.0
 20
-60059.0
 10
50929.0
 20
-59925.0
 10
51209.0
 20
-59510.0
 10
51489.0
 20
-59096.0
 10
51769.0
 20
-58682.0
 10
52049.0
 20
-58268.0
 10
52328.0
 20
-57853.0
 10
52609.0
 20
-57439.0
 10
52913.0
 20
-56884.0
 10
53120.0
 20
-56578.0
 10
53863.0
 20
-56476.0
 10
54143.0
 20
-56062.0
 10
54423.0
 20
-55648.0
 10
54702.0
 20
-55233.0
 10
54982.0
 20
-54819.0
 10
54800.0
 20
-54092.0
 10
55080.0
 20
-53678.0
 10
55166.0
 20
-53217.0
 10
55274.0
 20
-52602.0
 10
55554.0
 20
-52188.0
 10
55419.0
 20
-51493.0
 10
55699.0
 20
-51079.0
 10
55979.0
 20
-50665.0
 10
55845.0
 20
-49971.0
 10
55559.0
 20
-49174.0
 10
55843.0
 20
-48762.0
 10
56791.0
 20
-48787.0
 10
57065.0
 20
-48382.0
 10
57345.0
 20
-47967.0
 10
57625.0
 20
-47553.0
 10
57905.0
 20
-47139.0
 10
58185.0
 20
-46724.0
 10
58465.0
 20
-46310.0
 10
58745.0
 20
-45896.0
 10
58498.0
 20
-44992.0
 10
58928.0
 20
-44525.0
 10
59185.0
 20
-44383.0
 10
59350.0
 20
-43891.0
 10
59630.0
 20
-43477.0
 10
59910.0
 20
-43062.0
 10
60604.0
 20
-42928.0
 10
60884.0
 20
-42514.0
 10
61164.0
 20
-42099.0
 10
61451.0
 20
-41863.0
 10
61494.0
 20
-41827.0
 10
61824.0
 20
-41339.0
 10
62104.0
 20
-40924.0
 10
62698.0
 20
-40722.0
 10
62664.0
 20
-40096.0
 10
62944.0
 20
-39682.0
 10
63224.0
 20
-39267.0
 10
63504.0
 20
-38853.0
 10
63790.0
 20
-38430.0
 10
63964.0
 20
-37957.0
 10
64244.0
 20
-37542.0
 10
64524.0
 20
-37128.0
 10
64804.0
 20
-36714.0
 10
65498.00000000001
 20
-36580.0
 10
65778.0
 20
-36165.0
 10
66058.0
 20
-35751.0
 10
66338.0
 20
-35337.0
 10
66197.0
 20
-34867.0
 10
66584.0
 20
-34296.0
 10
66864.0
 20
-33882.0
 10
67143.0
 20
-33467.0
 10
67423.0
 20
-33053.0
 10
67703.0
 20
-32639.000000000004
 10
67983.0
 20
-32223.999999999996
 10
68263.0
 20
-31810.0
 10
67979.0
 20
-31123.0
 10
68309.0
 20
-30634.0
 10
68174.0
 20
-29940.0
 10
68454.0
 20
-29526.0
 10
69149.0
 20
-29391.0
 10
69014.0
 20
-28697.0
 10
69294.0
 20
-28283.0
 10
69574.0
 20
-27868.0
 10
69972.0
 20
-27280.0
 10
70386.0
 20
-27560.0
 10
71063.0
 20
-27667.0
 10
71343.0
 20
-27253.0
 10
71622.0
 20
-26839.0
 10
71902.0
 20
-26425.0
 10
72182.0
 20
-26010.0
 10
72462.0
 20
-25596.0
 10
72742.0
 20
-25182.0
 10
73022.0
 20
-24767.0
 10
72682.0
 20
-24163.0
 10
72654.0
 20
-23312.0
 10
72520.0
 20
-22617.0
 10
72385.0
 20
-21923.0
 10
72251.0
 20
-21229.0
 10
72117.0
 20
-20535.0
 10
72811.0
 20
-20400.0
 10
72753.0
 20
-19593.0
 10
73158.0
 20
-19721.0
 10
73634.0
 20
-19871.0
 10
74112.0
 20
-20021.0
 10
74588.0
 20
-20171.0
 10
75065.0
 20
-20321.0
 10
75542.0
 20
-20471.0
 10
76019.0
 20
-20621.0
 10
76496.0
 20
-20771.0
 10
76973.0
 20
-20921.0
 10
77450.0
 20
-21071.0
 10
77927.0
 20
-21221.0
 10
78399.0
 20
-21370.0
 10
78881.0
 20
-21521.0
 10
79358.0
 20
-21671.0
 10
79649.0
 20
-21763.0
 10
79548.0
 20
-22086.0
 10
79397.0
 20
-22562.0
 10
79181.0
 20
-23251.0
 10
79585.0
 20
-23771.0
 10
79999.0
 20
-24051.0
 10
80798.0
 20
-23760.0
 10
80534.0
 20
-22922.0
 10
81161.0
 20
-22595.0
 10
81488.0
 20
-23222.0
 10
81274.0
 20
-23910.0
 10
81664.0
 20
-24323.0
 10
82414.0
 20
-24268.0
 10
82331.0
 20
-24533.0
 10
82181.0
 20
-25010.0
 10
82031.0
 20
-25487.0
 10
81881.0
 20
-25964.0
 10
81510.0
 20
-26279.0
 10
81063.0
 20
-26231.0
 10
80402.0
 20
-26134.0
 10
80122.0
 20
-26548.0
 10
79842.0
 20
-26962.0
 10
79562.0
 20
-27376.0
 10
79282.0
 20
-27791.0
 10
79002.0
 20
-28205.0
 10
78308.0
 20
-28339.0
 10
78442.0
 20
-29034.0
 10
78162.0
 20
-29448.0
 10
78297.0
 20
-30142.0
 10
78017.0
 20
-30556.0
 10
77737.0
 20
-30971.0
 10
77457.0
 20
-31385.0
 10
77177.0
 20
-31799.0
 10
76897.0
 20
-32214.0
 10
76483.0
 20
-31934.0
 10
76348.0
 20
-31239.0
 10
76214.0
 20
-30545.0
 10
76494.0
 20
-30131.0
 10
76360.0
 20
-29437.0
 10
76105.0
 20
-28661.0
 10
75811.0
 20
-28462.0
 10
75117.0
 20
-28597.0
 10
74837.0
 20
-29011.0
 10
74143.0
 20
-29145.0
 10
73863.0
 20
-29560.0
 10
73168.0
 20
-29694.0
 10
72888.0
 20
-30108.0
 10
72608.0
 20
-30522.0
 10
72743.0
 20
-31217.0
 10
72463.0
 20
-31631.0
 10
71769.0
 20
-31765.0
 10
71489.0
 20
-32180.0
 10
71209.0
 20
-32594.0
 10
70515.0
 20
-32728.0
 10
70234.0
 20
-33142.0
 10
69955.0
 20
-33557.0
 10
70089.0
 20
-34251.0
 10
69809.0
 20
-34665.0
 10
69529.0
 20
-35079.0
 10
69663.0
 20
-35774.0
 10
69383.0
 20
-36188.0
 10
69103.0
 20
-36602.0
 10
68823.0
 20
-37016.0
 10
68543.0
 20
-37431.0
 10
68263.0
 20
-37845.0
 10
67983.0
 20
-38259.0
 10
67289.0
 20
-38394.0
 10
66595.0
 20
-38528.0
 10
66315.0
 20
-38942.0
 10
66035.0
 20
-39356.0
 10
65755.0
 20
-39771.0
 10
65890.0
 20
-40465.0
 10
65194.99999999999
 20
-40599.0
 10
64915.00000000001
 20
-41014.0
 10
64635.00000000001
 20
-41428.0
 10
64769.99999999999
 20
-42122.0
 10
64489.99999999999
 20
-42536.0
 10
64331.99999999999
 20
-42769.0
 10
63930.0
 20
-43365.0
 10
63650.0
 20
-43779.0
 10
62956.0
 20
-43914.0
 10
62662.0
 20
-44347.0
 10
62810.0
 20
-45022.0
 10
62530.0
 20
-45436.0
 10
62250.0
 20
-45851.0
 10
61900.0
 20
-46234.0
 10
61690.0
 20
-46679.0
 10
61824.0
 20
-47373.0
 10
61544.0
 20
-47788.0
 10
61264.0
 20
-48202.0
 10
60985.0
 20
-48616.0
 10
60290.0
 20
-48750.0
 10
60010.0
 20
-49165.0
 10
59982.0
 20
-49744.0
 10
59700.0
 20
-50162.0
 10
59420.0
 20
-50576.0
 10
58890.0
 20
-50822.0
 10
58611.0
 20
-51236.0
 10
58580.0
 20
-51819.0
 10
58300.0
 20
-52233.0
 10
58020.0
 20
-52647.0
 10
58319.0
 20
-53453.0
 10
58039.0
 20
-53868.0
 10
58174.0
 20
-54562.0
 10
58308.0
 20
-55256.0
 10
58442.0
 20
-55950.0
 10
58577.0
 20
-56644.0
 10
58711.0
 20
-57339.0
 10
58431.0
 20
-57753.0
 10
58151.0
 20
-58167.0
 10
57871.0
 20
-58582.0
 10
57591.0
 20
-58996.0
 10
56897.0
 20
-59130.0
 10
56617.0
 20
-59544.0
 10
56751.0
 20
-60239.0
 10
56471.0
 20
-60653.0
 10
56191.0
 20
-61067.0
 10
55911.0
 20
-61481.0
 10
55631.0
 20
-61896.0
 10
55351.0
 20
-62310.0
 10
55486.0
 20
-63004.0
  0
LWPOLYLINE
  5
97
330
17
100
AcDbEntity
  8
top_x
100
AcDbPolyline
 90
114
 70
1
 10
64375.0
 20
-67634.0
 10
63748.0
 20
-67961.0
 10
63421.0
 20
-67334.0
 10
62944.0
 20
-67184.0
 10
62467.0
 20
-67034.0
 10
62140.0
 20
-66407.0
 10
61778.0
 20
-66293.0
 10
61431.0
 20
-65815.0
 10
60603.0
 20
-65254.99999999999
 10
60188.0
 20
-64974.99999999999
 10
59494.0
 20
-65108.99999999999
 10
59774.0
 20
-64694.99999999999
 10
60054.0
 20
-64281.00000000001
 10
59920.0
 20
-63587.0
 10
60200.0
 20
-63173.0
 10
60480.0
 20
-62758.0
 10
60760.0
 20
-62344.0
 10
61040.0
 20
-61930.0
 10
61320.0
 20
-61515.0
 10
61599.0
 20
-61101.0
 10
61880.0
 20
-60687.0
 10
62159.0
 20
-60272.0
 10
62854.0
 20
-60138.0
 10
63134.0
 20
-59724.0
 10
63828.0
 20
-59590.0
 10
64108.00000000001
 20
-59175.0
 10
63973.0
 20
-58481.0
 10
64254.00000000001
 20
-58067.0
 10
64533.0
 20
-57653.0
 10
64813.0
 20
-57238.0
 10
65093.0
 20
-56824.0
 10
65373.00000000001
 20
-56410.0
 10
65653.0
 20
-55995.0
 10
65933.0
 20
-55581.0
 10
66213.0
 20
-55167.0
 10
66493.0
 20
-54753.0
 10
66773.0
 20
-54338.0
 10
67467.0
 20
-54204.0
 10
67747.0
 20
-53790.0
 10
67613.0
 20
-53096.0
 10
67893.0
 20
-52681.0
 10
68117.0
 20
-52349.0
 10
68453.0
 20
-51853.0
 10
68733.0
 20
-51438.0
 10
69013.0
 20
-51024.0
 10
69269.0
 20
-50645.0
 10
69573.0
 20
-50196.0
 10
69853.0
 20
-49781.0
 10
70547.0
 20
-49647.0
 10
70933.0
 20
-49076.0
 10
71107.0
 20
-48819.0
 10
71387.0
 20
-48404.0
 10
71667.0
 20
-47990.0
 10
71620.0
 20
-47166.0
 10
71812.0
 20
-46881.0
 10
72092.0
 20
-46467.0
 10
71958.0
 20
-45773.0
 10
72295.0
 20
-45274.0
 10
72518.0
 20
-44944.0
 10
72798.0
 20
-44530.0
 10
73078.0
 20
-44116.0
 10
73492.0
 20
-44396.0
 10
74186.0
 20
-44262.0
 10
74426.0
 20
-45112.0
 10
74437.0
 20
-45639.0
 10
74349.0
 20
-45921.0
 10
74614.0
 20
-46743.0
 10
74464.0
 20
-47220.0
 10
74791.0
 20
-47847.0
 10
74701.0
 20
-48135.0
 10
74014.0
 20
-48651.0
 10
73864.0
 20
-49128.0
 10
73615.0
 20
-49920.0
 10
73414.0
 20
-50559.0
 10
73264.0
 20
-51036.0
 10
73114.0
 20
-51513.0
 10
73016.0
 20
-51824.0
 10
72337.0
 20
-52317.0
 10
72187.0
 20
-52794.0
 10
72037.0
 20
-53271.0
 10
71948.0
 20
-53555.0
 10
71260.0
 20
-54075.0
 10
70633.0
 20
-54402.0
 10
70483.0
 20
-54879.0
 10
70333.0
 20
-55356.0
 10
70183.0
 20
-55833.0
 10
70033.0
 20
-56310.0
 10
69883.0
 20
-56786.0
 10
69256.0
 20
-57113.0
 10
69106.0
 20
-57590.0
 10
68956.0
 20
-58067.0
 10
68806.0
 20
-58544.0
 10
68656.0
 20
-59021.0
 10
68029.0
 20
-59348.0
 10
67552.0
 20
-59198.0
 10
66925.0
 20
-59525.0
 10
66775.0
 20
-60002.0
 10
66625.0
 20
-60479.0
 10
66475.0
 20
-60956.0
 10
66325.0
 20
-61433.0
 10
66175.0
 20
-61910.0
 10
66025.0
 20
-62387.0
 10
65875.0
 20
-62864.0
 10
65725.0
 20
-63341.0
 10
65098.0
 20
-63668.0
 10
64947.99999999999
 20
-64144.99999999999
 10
64798.0
 20
-64622.0
 10
65125.0
 20
-65248.99999999999
 10
64974.99999999999
 20
-65726.0
 10
64825.0
 20
-66203.0
 10
65152.0
 20
-66830.0
 10
65001.99999999999
 20
-67307.0
 10
64852.00000000001
 20
-67784.0
 10
64375.0
 20
-67634.0
  0
LWPOLYLINE
  5
98
330
17
100
AcDbEntity
  8
top_x
100
AcDbPolyline
 90
125
 70
1
 10
78684.0
 20
-72134.0
 10
78534.0
 20
-72611.0
 10
78057.0
 20
-72461.0
 10
77580.0
 20
-72311.0
 10
77253.0
 20
-71684.0
 10
76776.0
 20
-71534.0
 10
76149.0
 20
-71861.0
 10
75672.0
 20
-71711.0
 10
75195.0
 20
-71561.0
 10
74718.0
 20
-71411.0
 10
74391.0
 20
-70784.0
 10
75018.0
 20
-70457.0
 10
75096.0
 20
-70209.0
 10
75318.0
 20
-69503.0
 10
75468.0
 20
-69026.0
 10
76095.0
 20
-68699.0
 10
76245.0
 20
-68222.0
 10
76395.0
 20
-67745.0
 10
76068.0
 20
-67118.0
 10
76218.0
 20
-66641.0
 10
76368.0
 20
-66164.0
 10
76995.0
 20
-65837.0
 10
77472.0
 20
-65988.0
 10
78099.0
 20
-65660.0
 10
78726.0
 20
-65334.0
 10
78876.0
 20
-64857.0
 10
79026.0
 20
-64379.99999999999
 10
78699.0
 20
-63753.0
 10
78849.0
 20
-63276.0
 10
78999.0
 20
-62799.0
 10
79149.0
 20
-62322.0
 10
79299.0
 20
-61845.0
 10
79449.0
 20
-61368.0
 10
79599.0
 20
-60891.0
 10
79749.0
 20
-60414.0
 10
79899.0
 20
-59937.0
 10
80049.0
 20
-59460.0
 10
80199.0
 20
-58983.0
 10
80349.0
 20
-58506.0
 10
80976.0
 20
-58179.0
 10
80649.0
 20
-57552.0
 10
80799.0
 20
-57075.0
 10
80533.0
 20
-56256.0
 10
80622.0
 20
-55971.0
 10
80772.0
 20
-55494.0
 10
81399.0
 20
-55167.0
 10
81124.0
 20
-54375.0
 10
81223.0
 20
-54063.0
 10
81372.0
 20
-53586.0
 10
82000.0
 20
-53259.0
 10
82200.0
 20
-52621.0
 10
82300.0
 20
-52306.0
 10
82450.0
 20
-51829.0
 10
82600.0
 20
-51352.0
 10
82332.0
 20
-50536.0
 10
82423.0
 20
-50248.0
 10
83050.0
 20
-49921.0
 10
82723.0
 20
-49294.0
 10
82934.0
 20
-48622.0
 10
83023.0
 20
-48340.0
 10
83173.0
 20
-47863.0
 10
83323.0
 20
-47386.0
 10
83508.0
 20
-46795.0
 10
83623.0
 20
-46432.0
 10
83773.0
 20
-45955.0
 10
84400.0
 20
-45628.0
 10
84877.0
 20
-45778.0
 10
85204.0
 20
-46405.0
 10
85831.0
 20
-46078.0
 10
86308.0
 20
-46228.0
 10
86785.0
 20
-46378.0
 10
87112.0
 20
-47005.0
 10
86962.0
 20
-47482.0
 10
86847.0
 20
-47846.0
 10
87138.0
 20
-48586.0
 10
86989.0
 20
-49063.0
 10
86839.0
 20
-49540.0
 10
86273.0
 20
-49672.0
 10
86061.0
 20
-50344.0
 10
86388.0
 20
-50971.0
 10
86238.0
 20
-51448.0
 10
86148.0
 20
-51736.0
 10
85938.0
 20
-52402.0
 10
85788.0
 20
-52879.0
 10
85638.0
 20
-53356.0
 10
85539.0
 20
-53672.0
 10
85338.0
 20
-54310.0
 10
85188.0
 20
-54787.0
 10
85038.0
 20
-55264.0
 10
84940.0
 20
-55575.0
 10
84738.0
 20
-56217.0
 10
85065.0
 20
-56844.0
 10
84915.0
 20
-57321.0
 10
84826.0
 20
-57606.0
 10
84138.0
 20
-58125.0
 10
83988.0
 20
-58602.0
 10
83361.0
 20
-58929.0
 10
83211.0
 20
-59406.0
 10
83538.0
 20
-60033.0
 10
83388.0
 20
-60510.0
 10
83238.0
 20
-60987.0
 10
83088.0
 20
-61464.0
 10
82938.0
 20
-61941.0
 10
82311.0
 20
-62268.0
 10
82161.0
 20
-62745.0
 10
82011.0
 20
-63222.0
 10
81861.0
 20
-63699.0
 10
81234.0
 20
-64025.99999999999
 10
80607.0
 20
-64352.99999999999
 10
80457.0
 20
-64830.0
 10
80307.0
 20
-65307.0
 10
80157.0
 20
-65784.0
 10
80484.0
 20
-66411.0
 10
80334.0
 20
-66888.0
 10
80184.0
 20
-67365.0
 10
80511.0
 20
-67992.0
 10
80361.0
 20
-68468.0
 10
80211.0
 20
-68945.0
 10
79584.0
 20
-69272.0
 10
79434.0
 20
-69749.0
 10
79761.0
 20
-70376.0
 10
79611.0
 20
-70853.0
 10
78912.0
 20
-71409.0
 10
78834.0
 20
-71657.0
 10
78684.0
 20
-72134.0
  0
LWPOLYLINE
  5
99
330
17
100
AcDbEntity
  8
top_x
100
AcDbPolyline
 90
101
 70
1
 10
86969.0
 20
-75788.0
 10
86492.0
 20
-75638.0
 10
86015.0
 20
-75488.0
 10
85688.0
 20
-74861.0
 10
85211.0
 20
-74711.0
 10
84734.0
 20
-74561.0
 10
84107.0
 20
-74888.0
 10
83630.0
 20
-74738.0
 10
83153.0
 20
-74588.0
 10
83303.0
 20
-74111.0
 10
83453.0
 20
-73634.0
 10
83603.0
 20
-73157.0
 10
83681.0
 20
-72910.0
 10
83753.0
 20
-72680.0
 10
83903.0
 20
-72203.0
 10
84053.0
 20
-71727.0
 10
84680.0
 20
-71400.0
 10
84830.0
 20
-70923.0
 10
84503.0
 20
-70296.0
 10
84653.0
 20
-69819.0
 10
84803.0
 20
-69342.0
 10
85430.0
 20
-69015.0
 10
86057.0
 20
-68688.0
 10
86684.0
 20
-68361.0
 10
87311.0
 20
-68034.0
 10
87461.0
 20
-67557.0
 10
87134.0
 20
-66930.0
 10
87284.0
 20
-66453.0
 10
87434.0
 20
-65976.0
 10
86964.0
 20
-65304.0
 10
87734.0
 20
-65022.00000000001
 10
87884.0
 20
-64545.0
 10
88035.0
 20
-64068.0
 10
88185.0
 20
-63591.0
 10
88335.0
 20
-63114.0
 10
88485.0
 20
-62637.0
 10
88635.0
 20
-62160.0
 10
89262.0
 20
-61833.0
 10
89412.0
 20
-61356.0
 10
89562.0
 20
-60880.0
 10
89712.0
 20
-60403.0
 10
89385.0
 20
-59776.0
 10
89118.0
 20
-58957.0
 10
89208.0
 20
-58672.0
 10
89358.0
 20
-58195.0
 10
89508.0
 20
-57718.0
 10
89710.0
 20
-57076.0
 10
89808.0
 20
-56764.0
 10
89958.0
 20
-56287.0
 10
90108.0
 20
-55810.0
 10
90785.0
 20
-55322.0
 10
90885.0
 20
-55006.0
 10
91512.0
 20
-54679.0
 10
91989.0
 20
-54829.0
 10
92466.0
 20
-54979.0
 10
92943.0
 20
-55129.0
 10
93420.0
 20
-55279.0
 10
93747.0
 20
-55906.0
 10
93647.0
 20
-56223.0
 10
93447.0
 20
-56860.0
 10
93297.0
 20
-57337.0
 10
93147.0
 20
-57814.0
 10
93048.0
 20
-58126.0
 10
92846.0
 20
-58768.0
 10
92697.0
 20
-59245.0
 10
92547.0
 20
-59722.0
 10
92457.0
 20
-60007.0
 10
92246.0
 20
-60676.0
 10
91619.0
 20
-61003.0
 10
91320.0
 20
-61957.0
 10
91169.0
 20
-62433.0
 10
91019.0
 20
-62910.0
 10
91346.0
 20
-63537.0
 10
90719.0
 20
-63864.0
 10
90569.0
 20
-64340.99999999999
 10
90419.0
 20
-64818.0
 10
90746.0
 20
-65444.99999999999
 10
90596.0
 20
-65922.0
 10
90446.0
 20
-66399.0
 10
89819.0
 20
-66726.0
 10
89669.0
 20
-67203.0
 10
89192.0
 20
-67053.0
 10
88565.0
 20
-67380.0
 10
88415.0
 20
-67857.0
 10
88742.0
 20
-68484.0
 10
88592.0
 20
-68961.0
 10
88919.0
 20
-69588.0
 10
88769.0
 20
-70065.0
 10
88619.0
 20
-70542.0
 10
88469.0
 20
-71019.0
 10
88319.0
 20
-71496.0
 10
87692.0
 20
-71823.0
 10
87542.0
 20
-72300.0
 10
87869.0
 20
-72927.0
 10
87719.0
 20
-73404.0
 10
87569.0
 20
-73881.0
 10
87497.0
 20
-74110.0
 10
87419.0
 20
-74358.0
 10
87269.0
 20
-74835.0
 10
87119.0
 20
-75312.0
 10
86969.0
 20
-75788.0
  0
LWPOLYLINE
  5
9A
330
17
100
AcDbEntity
  8
top_x
100
AcDbPolyline
 90
101
 70
1
 10
95854.0
 20
-77535.0
 10
95704.0
 20
-78012.0
 10
95227.0
 20
-77862.0
 10
94750.0
 20
-77712.0
 10
94273.0
 20
-77562.0
 10
93796.0
 20
-77412.0
 10
93319.0
 20
-77262.0
 10
92842.0
 20
-77112.0
 10
92215.0
 20
-77439.0
 10
91589.0
 20
-77766.0
 10
91112.0
 20
-77616.0
 10
90635.0
 20
-77466.0
 10
90158.0
 20
-77316.0
 10
90785.0
 20
-76989.0
 10
91412.0
 20
-76662.0
 10
91562.0
 20
-76185.0
 10
91712.0
 20
-75708.0
 10
91789.0
 20
-75461.0
 10
91862.0
 20
-75231.0
 10
92012.0
 20
-74754.0
 10
92162.0
 20
-74277.0
 10
92312.0
 20
-73800.0
 10
92462.0
 20
-73323.0
 10
92135.0
 20
-72696.0
 10
92285.0
 20
-72219.0
 10
92435.0
 20
-71742.0
 10
92585.0
 20
-71265.0
 10
93212.0
 20
-70938.0
 10
93362.0
 20
-70461.0
 10
93989.0
 20
-70134.0
 10
94616.0
 20
-69807.0
 10
94766.0
 20
-69330.0
 10
94439.0
 20
-68703.0
 10
94589.0
 20
-68226.0
 10
94262.0
 20
-67599.0
 10
94412.0
 20
-67122.0
 10
94562.0
 20
-66645.0
 10
95189.0
 20
-66318.0
 10
95339.0
 20
-65841.0
 10
95489.0
 20
-65364.99999999999
 10
95162.0
 20
-64738.0
 10
95312.0
 20
-64260.99999999999
 10
95939.0
 20
-63934.0
 10
96089.0
 20
-63457.0
 10
96716.0
 20
-63130.0
 10
96866.0
 20
-62653.0
 10
96539.0
 20
-62026.0
 10
96272.0
 20
-61207.0
 10
96362.0
 20
-60922.0
 10
96512.0
 20
-60445.0
 10
96662.0
 20
-59968.0
 10
96864.0
 20
-59327.0
 10
96962.0
 20
-59014.0
 10
97112.0
 20
-58537.0
 10
97262.0
 20
-58060.0
 10
97463.0
 20
-57423.0
 10
97562.0
 20
-57106.0
 10
98189.0
 20
-56779.0
 10
98666.0
 20
-56929.0
 10
98993.0
 20
-57556.0
 10
99470.0
 20
-57706.0
 10
99848.0
 20
-58173.0
 10
100124.0
 20
-58960.0
 10
99974.0
 20
-59437.0
 10
99824.0
 20
-59914.0
 10
99726.0
 20
-60227.0
 10
99047.0
 20
-60718.0
 10
98897.0
 20
-61195.0
 10
99224.0
 20
-61822.0
 10
99134.0
 20
-62108.0
 10
98447.0
 20
-62626.0
 10
98297.0
 20
-63103.0
 10
97670.0
 20
-63430.0
 10
97520.0
 20
-63907.0
 10
97847.0
 20
-64534.00000000001
 10
97697.0
 20
-65010.99999999999
 10
97547.0
 20
-65488.0
 10
97397.0
 20
-65965.0
 10
97247.0
 20
-66442.0
 10
97097.0
 20
-66919.0
 10
96947.0
 20
-67396.0
 10
96797.0
 20
-67872.0
 10
96647.0
 20
-68350.0
 10
96020.0
 20
-68676.0
 10
95870.0
 20
-69153.0
 10
95720.0
 20
-69630.0
 10
96047.0
 20
-70257.0
 10
96374.0
 20
-70884.0
 10
96701.0
 20
-71511.0
 10
97027.0
 20
-72138.0
 10
96878.0
 20
-72615.0
 10
96728.0
 20
-73092.0
 10
96101.0
 20
-73419.0
 10
95951.0
 20
-73896.0
 10
96277.0
 20
-74523.0
 10
96127.0
 20
-75000.0
 10
95977.0
 20
-75477.0
 10
95827.0
 20
-75954.0
 10
96082.0
 20
-76811.0
 10
96004.0
 20
-77058.0
 10
95854.0
 20
-77535.0
  0
LWPOLYLINE
  5
9B
330
17
100
AcDbEntity
  8
top_x
100
AcDbPolyline
 90
15
 70
1
 10
109802.0
 20
-51521.0
 10
109325.0
 20
-51371.0
 10
108848.0
 20
-51221.0
 10
108537.0
 20
-50548.0
 10
108194.0
 20
-49967.0
 10
108345.0
 20
-49491.0
 10
108494.0
 20
-49013.0
 10
108971.0
 20
-49163.0
 10
109448.0
 20
-49313.0
 10
109925.0
 20
-49463.0
 10
110402.0
 20
-49613.0
 10
110253.0
 20
-50091.0
 10
110102.0
 20
-50567.0
 10
109968.0
 20
-50998.0
 10
109802.0
 20
-51521.0
  0
LWPOLYLINE
  5
9C
330
17
100
AcDbEntity
  8
top_x
100
AcDbPolyline
 90
204
 70
1
 10
110082.0
 20
-77293.0
 10
109455.0
 20
-77620.0
 10
109605.0
 20
-77143.0
 10
109755.0
 20
-76666.0
 10
109429.0
 20
-76039.0
 10
108952.0
 20
-75889.0
 10
108625.0
 20
-75262.0
 10
108775.0
 20
-74785.0
 10
109402.0
 20
-74458.0
 10
109552.0
 20
-73981.0
 10
109225.0
 20
-73354.0
 10
109375.0
 20
-72877.0
 10
109525.0
 20
-72400.0
 10
109675.0
 20
-71923.0
 10
109825.0
 20
-71446.0
 10
109975.0
 20
-70969.0
 10
109648.0
 20
-70342.0
 10
109321.0
 20
-69715.0
 10
108844.0
 20
-69565.0
 10
108367.0
 20
-69415.0
 10
107890.0
 20
-69265.0
 10
108040.0
 20
-68788.0
 10
108190.0
 20
-68311.0
 10
108817.0
 20
-67984.0
 10
108967.0
 20
-67507.0
 10
109594.0
 20
-67180.0
 10
109744.0
 20
-66703.0
 10
109894.0
 20
-66226.0
 10
110581.0
 20
-65709.0
 10
110671.0
 20
-65423.0
 10
110821.0
 20
-64946.0
 10
111448.0
 20
-64619.0
 10
111649.0
 20
-63979.0
 10
111748.0
 20
-63665.0
 10
111898.0
 20
-63188.0
 10
112525.0
 20
-62861.0
 10
112725.0
 20
-62225.0
 10
112348.0
 20
-61757.0
 10
112498.0
 20
-61280.0
 10
112648.0
 20
-60803.0
 10
112857.0
 20
-60139.0
 10
112948.0
 20
-59849.0
 10
113098.0
 20
-59372.0
 10
113248.0
 20
-58895.0
 10
113126.0
 20
-58120.0
 10
113215.0
 20
-57836.0
 10
113365.0
 20
-57359.0
 10
113172.0
 20
-56723.0
 10
112909.0
 20
-56641.0
 10
113080.0
 20
-56099.0
 10
113195.0
 20
-55733.0
 10
112868.0
 20
-55106.0
 10
113018.0
 20
-54629.0
 10
113168.0
 20
-54152.0
 10
112841.0
 20
-53525.0
 10
113496.0
 20
-53366.0
 10
113973.0
 20
-53516.0
 10
114450.0
 20
-53666.0
 10
114927.0
 20
-53816.0
 10
115404.0
 20
-53966.0
 10
115880.0
 20
-54116.0
 10
116357.0
 20
-54266.0
 10
116834.0
 20
-54416.0
 10
117311.0
 20
-54566.0
 10
117788.0
 20
-54716.0
 10
118265.0
 20
-54866.0
 10
118742.0
 20
-55016.0
 10
119219.0
 20
-55166.0
 10
119696.0
 20
-55317.0
 10
120173.0
 20
-55466.0
 10
120650.0
 20
-55617.0
 10
121127.0
 20
-55767.0
 10
121604.0
 20
-55917.0
 10
122081.0
 20
-56067.0
 10
122558.0
 20
-56217.0
 10
123035.0
 20
-56367.0
 10
123512.0
 20
-56517.0
 10
123989.0
 20
-56667.0
 10
124466.0
 20
-56817.0
 10
124943.0
 20
-56967.0
 10
125420.0
 20
-57117.0
 10
125896.0
 20
-57267.0
 10
126373.0
 20
-57417.0
 10
126850.0
 20
-57567.0
 10
127327.0
 20
-57717.0
 10
127804.0
 20
-57867.0
 10
128281.0
 20
-58018.0
 10
128580.00000000001
 20
-58476.0
 10
128430.0
 20
-58953.0
 10
127803.0
 20
-59280.0
 10
127653.0
 20
-59757.0
 10
127026.0
 20
-60084.0
 10
126911.0
 20
-60451.0
 10
126249.0
 20
-60888.0
 10
125623.0
 20
-61215.0
 10
124996.0
 20
-61542.0
 10
124429.0
 20
-61676.0
 10
124219.0
 20
-62346.0
 10
124068.0
 20
-62822.0
 10
123918.0
 20
-63299.0
 10
123827.0
 20
-63591.0
 10
123618.0
 20
-64253.0
 10
123468.0
 20
-64730.00000000001
 10
123318.0
 20
-65206.99999999999
 10
123218.0
 20
-65525.99999999999
 10
122541.0
 20
-66011.0
 10
121914.0
 20
-66338.0
 10
121764.0
 20
-66815.0
 10
121188.0
 20
-66980.0
 10
120987.0
 20
-67619.0
 10
120837.0
 20
-68096.0
 10
120210.0
 20
-68423.0
 10
119883.0
 20
-67796.0
 10
120033.0
 20
-67319.0
 10
120711.0
 20
-66830.0
 10
120810.0
 20
-66515.0
 10
121437.0
 20
-66188.0
 10
122064.0
 20
-65861.0
 10
122264.0
 20
-65226.0
 10
122364.0
 20
-64907.0
 10
122514.0
 20
-64430.00000000001
 10
122069.0
 20
-63766.0
 10
122277.0
 20
-63103.0
 10
122369.0
 20
-62812.0
 10
122519.0
 20
-62335.0
 10
122669.0
 20
-61858.0
 10
122879.0
 20
-61189.0
 10
122983.0
 20
-60859.0
 10
123238.0
 20
-60465.0
 10
123388.0
 20
-59988.0
 10
123096.0
 20
-59250.0
 10
122734.0
 20
-58734.0
 10
122257.0
 20
-58584.0
 10
121780.0
 20
-58434.0
 10
121188.0
 20
-58650.0
 10
120711.0
 20
-58500.0
 10
120049.0
 20
-58937.0
 10
119899.0
 20
-59414.0
 10
119286.0
 20
-59695.0
 10
118778.0
 20
-59898.0
 10
118567.0
 20
-60568.0
 10
118417.0
 20
-61045.0
 10
118267.0
 20
-61522.0
 10
118175.0
 20
-61813.0
 10
117418.0
 20
-62303.0
 10
117268.0
 20
-62780.0
 10
117118.0
 20
-63257.0
 10
117018.0
 20
-63575.0
 10
116818.0
 20
-64211.0
 10
117145.0
 20
-64837.99999999999
 10
116995.0
 20
-65315.0
 10
117373.0
 20
-65779.0
 10
117172.0
 20
-66419.0
 10
117022.0
 20
-66896.0
 10
117349.0
 20
-67523.0
 10
117258.0
 20
-67810.0
 10
117526.0
 20
-68627.0
 10
118002.0
 20
-68777.0
 10
118479.0
 20
-68927.0
 10
118956.0
 20
-69077.0
 10
119433.0
 20
-69227.0
 10
119283.0
 20
-69704.0
 10
119610.0
 20
-70331.0
 10
119460.0
 20
-70808.0
 10
119310.0
 20
-71285.0
 10
119160.0
 20
-71762.0
 10
118533.0
 20
-72089.0
 10
118206.0
 20
-71462.0
 10
117879.0
 20
-70835.0
 10
117402.0
 20
-70685.0
 10
117075.0
 20
-70058.0
 10
116599.0
 20
-69908.0
 10
116749.0
 20
-69431.0
 10
116422.0
 20
-68804.0
 10
116572.0
 20
-68327.0
 10
116304.0
 20
-67510.0
 10
115827.0
 20
-67360.0
 10
115350.0
 20
-67210.0
 10
114964.0
 20
-66773.0
 10
114397.0
 20
-66910.0
 10
114187.0
 20
-67577.0
 10
114037.0
 20
-68053.0
 10
113410.0
 20
-68381.0
 10
113260.0
 20
-68857.0
 10
113110.0
 20
-69334.0
 10
112483.0
 20
-69661.0
 10
112810.0
 20
-70288.0
 10
112660.0
 20
-70765.0
 10
112510.0
 20
-71242.0
 10
112837.0
 20
-71869.0
 10
112687.0
 20
-72346.0
 10
112537.0
 20
-72823.0
 10
112864.0
 20
-73450.0
 10
112713.0
 20
-73927.0
 10
112563.0
 20
-74404.0
 10
112413.0
 20
-74881.0
 10
112263.0
 20
-75358.0
 10
112113.0
 20
-75835.0
 10
111963.0
 20
-76312.0
 10
111813.0
 20
-76789.0
 10
111802.0
 20
-77117.0
 10
111186.0
 20
-77116.0
 10
110709.0
 20
-76966.0
 10
110082.0
 20
-77293.0
  0
LWPOLYLINE
  5
9D
330
17
100
AcDbEntity
  8
top_x
100
AcDbPolyline
 90
199
 70
1
 10
46092.0
 20
-57259.0
 10
45231.0
 20
-57281.0
 10
44983.0
 20
-57114.0
 10
44569.0
 20
-56834.0
 10
44155.0
 20
-56554.0
 10
43460.0
 20
-56688.0
 10
43046.0
 20
-56408.0
 10
42632.0
 20
-56128.0
 10
42218.0
 20
-55848.0
 10
42083.0
 20
-55154.0
 10
42363.0
 20
-54740.0
 10
42643.0
 20
-54326.0
 10
42923.0
 20
-53911.0
 10
43203.0
 20
-53497.0
 10
43483.0
 20
-53083.0
 10
43763.0
 20
-52668.0
 10
44457.0
 20
-52534.0
 10
44737.0
 20
-52120.0
 10
45017.0
 20
-51706.0
 10
45297.0
 20
-51291.0
 10
45991.0
 20
-51157.0
 10
46271.0
 20
-50743.0
 10
46551.0
 20
-50328.0
 10
46417.0
 20
-49634.0
 10
46697.0
 20
-49220.0
 10
46563.0
 20
-48526.0
 10
46843.0
 20
-48111.0
 10
47123.0
 20
-47697.0
 10
47403.0
 20
-47283.0
 10
48097.0
 20
-47148.0
 10
48377.0
 20
-46734.0
 10
49071.0
 20
-46600.0
 10
49351.0
 20
-46186.0
 10
49631.0
 20
-45771.0
 10
49496.0
 20
-45077.0
 10
49777.0
 20
-44663.0
 10
50056.0
 20
-44249.0
 10
50336.0
 20
-43834.0
 10
50616.0
 20
-43420.0
 10
51311.0
 20
-43286.0
 10
51591.0
 20
-42871.0
 10
51870.0
 20
-42457.0
 10
52151.0
 20
-42043.0
 10
52016.0
 20
-41349.0
 10
51882.0
 20
-40654.0
 10
52162.0
 20
-40240.0
 10
52856.0
 20
-40106.0
 10
53136.0
 20
-39692.0
 10
53830.0
 20
-39557.0
 10
54110.0
 20
-39143.0
 10
54390.0
 20
-38729.0
 10
54670.0
 20
-38314.0
 10
54536.0
 20
-37620.0
 10
54816.0
 20
-37206.0
 10
55096.0
 20
-36792.0
 10
55790.0
 20
-36657.0
 10
56070.0
 20
-36243.0
 10
56350.0
 20
-35829.0
 10
56630.0
 20
-35415.0
 10
56495.0
 20
-34720.0
 10
56361.0
 20
-34026.0
 10
56641.0
 20
-33612.0
 10
56921.0
 20
-33197.0
 10
57615.0
 20
-33063.0
 10
57895.0
 20
-32649.0
 10
58590.0
 20
-32515.0
 10
58869.0
 20
-32100.0
 10
59149.0
 20
-31686.0
 10
59015.0
 20
-30992.0
 10
59295.0
 20
-30577.0
 10
59575.0
 20
-30163.0
 10
59855.0
 20
-29749.0
 10
60135.0
 20
-29335.0
 10
60415.0
 20
-28920.0
 10
60695.0
 20
-28506.0
 10
60975.0
 20
-28092.0
 10
60840.0
 20
-27398.0
 10
61120.0
 20
-26983.0
 10
61400.0
 20
-26569.0
 10
61680.0
 20
-26155.0
 10
61960.0
 20
-25740.0
 10
62655.0
 20
-25606.0
 10
62935.0
 20
-25192.0
 10
63629.0
 20
-25058.0
 10
63909.0
 20
-24643.0
 10
63774.0
 20
-23949.0
 10
64054.0
 20
-23535.0
 10
64334.0
 20
-23121.0
 10
64614.00000000001
 20
-22706.0
 10
64894.00000000001
 20
-22292.0
 10
65589.0
 20
-22158.0
 10
65453.99999999999
 20
-21463.0
 10
65734.0
 20
-21049.0
 10
65600.0
 20
-20355.0
 10
65465.0
 20
-19661.0
 10
65745.0
 20
-19246.0
 10
66025.0
 20
-18832.0
 10
66305.0
 20
-18418.0
 10
66585.0
 20
-18004.0
 10
66955.0
 20
-17769.0
 10
67432.0
 20
-17919.0
 10
67880.0
 20
-18060.0
 10
68388.0
 20
-18220.0
 10
68865.0
 20
-18370.0
 10
69342.0
 20
-18520.0
 10
69819.0
 20
-18670.0
 10
70296.0
 20
-18820.0
 10
70459.0
 20
-19415.0
 10
70733.0
 20
-19600.0
 10
71008.0
 20
-20389.0
 10
70728.0
 20
-20803.0
 10
70862.0
 20
-21497.0
 10
70582.0
 20
-21912.0
 10
70196.0
 20
-22483.0
 10
69460.0
 20
-22360.0
 10
69180.0
 20
-22774.0
 10
68900.0
 20
-23188.0
 10
68620.0
 20
-23603.0
 10
68340.0
 20
-24017.0
 10
68060.0
 20
-24431.0
 10
67780.0
 20
-24846.0
 10
67500.0
 20
-25260.0
 10
67901.0
 20
-25880.0
 10
67503.0
 20
-26469.0
 10
67223.0
 20
-26883.0
 10
66943.0
 20
-27297.0
 10
66663.0
 20
-27712.0
 10
66383.0
 20
-28126.0
 10
66103.0
 20
-28540.0
 10
65823.0
 20
-28954.0
 10
65492.99999999999
 20
-29443.0
 10
64700.0
 20
-29403.0
 10
64421.00000000001
 20
-29817.0
 10
64141.00000000001
 20
-30231.0
 10
63861.0
 20
-30645.0
 10
63581.0
 20
-31060.0
 10
63301.0
 20
-31474.0
 10
63021.0
 20
-31888.0
 10
63197.0
 20
-32840.0
 10
63023.0
 20
-33097.0
 10
62744.0
 20
-33511.0
 10
62464.0
 20
-33926.0
 10
62184.0
 20
-34340.0
 10
61489.0
 20
-34474.0
 10
61209.0
 20
-34889.0
 10
60930.0
 20
-35303.0
 10
60650.0
 20
-35717.0
 10
60227.0
 20
-36022.0
 10
59941.0
 20
-36445.0
 10
59661.0
 20
-36860.0
 10
59381.0
 20
-37274.0
 10
59102.0
 20
-37688.0
 10
58821.0
 20
-38103.0
 10
58542.0
 20
-38517.0
 10
58262.0
 20
-38931.0
 10
58494.0
 20
-39800.0
 10
58264.0
 20
-40140.0
 10
57984.0
 20
-40554.0
 10
57704.0
 20
-40968.0
 10
57010.0
 20
-41103.0
 10
56730.0
 20
-41517.0
 10
55880.0
 20
-41546.0
 10
55600.0
 20
-41960.0
 10
55890.0
 20
-42760.0
 10
55524.0
 20
-42982.0
 10
55182.0
 20
-43488.0
 10
54902.0
 20
-43903.0
 10
54622.0
 20
-44317.0
 10
54342.0
 20
-44731.0
 10
54063.0
 20
-45145.0
 10
53783.0
 20
-45560.0
 10
53503.0
 20
-45974.0
 10
53228.0
 20
-46380.0
 10
53091.0
 20
-46903.0
 10
52811.0
 20
-47317.0
 10
52531.0
 20
-47731.0
 10
52665.0
 20
-48425.0
 10
52799.0
 20
-49119.0
 10
52790.0
 20
-49716.0
 10
52514.0
 20
-50133.0
 10
52238.0
 20
-50550.0
 10
51924.0
 20
-51026.0
 10
51683.0
 20
-51382.0
 10
51120.0
 20
-51605.0
 10
50840.0
 20
-52019.0
 10
50146.0
 20
-52154.0
 10
49866.0
 20
-52568.0
 10
50000.0
 20
-53262.0
 10
49720.0
 20
-53676.0
 10
49723.0
 20
-54282.0
 10
49516.0
 20
-54588.0
 10
48880.0
 20
-54919.0
 10
48600.0
 20
-55334.0
 10
48040.0
 20
-56162.0
 10
47760.0
 20
-56576.0
 10
47735.0
 20
-57163.0
 10
47200.0
 20
-57405.0
 10
46786.0
 20
-57125.0
 10
46092.0
 20
-57259.0
  0
LWPOLYLINE
  5
9E
330
17
100
AcDbEntity
  8
top_x
100
AcDbPolyline
 90
29
 70
1
 10
73101.0
 20
-40510.0
 10
72381.0
 20
-40500.0
 10
71992.0
 20
-40365.0
 10
71858.0
 20
-39671.0
 10
72138.0
 20
-39256.0
 10
72418.0
 20
-38842.0
 10
72283.0
 20
-38148.0
 10
72563.0
 20
-37733.0
 10
72843.0
 20
-37319.0
 10
72709.0
 20
-36625.0
 10
72989.0
 20
-36211.0
 10
72854.0
 20
-35516.0
 10
73549.0
 20
-35382.0
 10
73829.0
 20
-34968.0
 10
74226.0
 20
-34633.0
 10
74523.0
 20
-34833.0
 10
74937.0
 20
-35113.0
 10
75351.0
 20
-35393.0
 10
75072.0
 20
-35808.0
 10
75206.0
 20
-36502.0
 10
75340.0
 20
-37196.0
 10
75474.0
 20
-37890.0
 10
75195.0
 20
-38305.0
 10
74914.0
 20
-38719.0
 10
75049.0
 20
-39413.0
 10
74769.0
 20
-39827.0
 10
74075.0
 20
-39962.0
 10
73795.0
 20
-40376.0
 10
73101.0
 20
-40510.0
  0
LWPOLYLINE
  5
9F
330
17
100
AcDbEntity
  8
top_y
100
AcDbPolyline
 90
9
 70
1
 10
62306.0
 20
-65410.0
 10
62042.0
 20
-65852.0
 10
61711.0
 20
-65400.99999999999
 10
61991.0
 20
-64986.99999999999
 10
62271.0
 20
-64572.0
 10
62551.0
 20
-64158.0
 10
62832.0
 20
-64528.00000000001
 10
62569.0
 20
-64968.99999999999
 10
62306.0
 20
-65410.0
  0
LWPOLYLINE
  5
A0
330
17
100
AcDbEntity
  8
top_y
100
AcDbPolyline
 90
16
 70
1
 10
75672.0
 20
-71711.0
 10
75045.0
 20
-72038.0
 10
74568.0
 20
-71888.0
 10
74091.0
 20
-71738.0
 10
73614.0
 20
-71588.0
 10
73137.0
 20
-71438.0
 10
72810.0
 20
-70811.0
 10
73437.0
 20
-70484.0
 10
74064.0
 20
-70157.0
 10
74619.0
 20
-70059.0
 10
75096.0
 20
-70209.0
 10
75573.0
 20
-70359.0
 10
76050.0
 20
-70509.0
 10
76449.0
 20
-70907.0
 10
76299.0
 20
-71384.0
 10
75672.0
 20
-71711.0
  0
LWPOLYLINE
  5
A1
330
17
100
AcDbEntity
  8
top_y
100
AcDbPolyline
 90
10
 70
1
 10
95854.0
 20
-77535.0
 10
95227.0
 20
-77862.0
 10
94900.0
 20
-77235.0
 10
94423.0
 20
-77085.0
 10
94573.0
 20
-76608.0
 10
94651.0
 20
-76361.0
 10
95200.0
 20
-76281.0
 10
95677.0
 20
-76431.0
 10
96004.0
 20
-77058.0
 10
95854.0
 20
-77535.0
  0
LWPOLYLINE
  5
A2
330
17
100
AcDbEntity
  8
top_y
100
AcDbPolyline
 90
13
 70
1
 10
104863.0
 20
-77223.0
 10
104713.0
 20
-77700.0
 10
104236.0
 20
-77550.0
 10
103759.0
 20
-77400.0
 10
103432.0
 20
-76773.0
 10
103105.0
 20
-76146.0
 10
103255.0
 20
-75669.0
 10
103405.0
 20
-75192.0
 10
103882.0
 20
-75342.0
 10
104359.0
 20
-75493.0
 10
104686.0
 20
-76119.0
 10
105013.0
 20
-76746.0
 10
104863.0
 20
-77223.0
  0
LWPOLYLINE
  5
A3
330
17
100
AcDbEntity
  8
top_y
100
AcDbPolyline
 90
13
 70
1
 10
122391.0
 20
-66488.0
 10
121764.0
 20
-66815.0
 10
121914.0
 20
-66338.0
 10
122064.0
 20
-65861.0
 10
122541.0
 20
-66011.0
 10
123218.0
 20
-65525.99999999999
 10
123318.0
 20
-65206.99999999999
 10
123795.0
 20
-65357.0
 10
124172.0
 20
-65826.0
 10
123495.0
 20
-66311.0
 10
123345.0
 20
-66788.0
 10
122868.0
 20
-66638.0
 10
122391.0
 20
-66488.0
  0
LWPOLYLINE
  5
A4
330
17
100
AcDbEntity
  8
top_y
100
AcDbPolyline
 90
57
 70
1
 10
60447.0
 20
-45839.0
 10
60167.0
 20
-46254.0
 10
59753.0
 20
-45974.0
 10
59339.0
 20
-45694.0
 10
59087.0
 20
-45390.0
 10
58498.0
 20
-44992.0
 10
58158.0
 20
-44762.0
 10
57962.0
 20
-44160.0
 10
57547.0
 20
-43880.0
 10
56719.0
 20
-43320.0
 10
56584.0
 20
-42625.0
 10
56170.0
 20
-42346.0
 10
55880.0
 20
-41546.0
 10
55622.0
 20
-41371.0
 10
55207.0
 20
-41091.0
 10
54793.0
 20
-40811.0
 10
54099.0
 20
-40946.0
 10
53685.0
 20
-40666.0
 10
52990.0
 20
-40800.0
 10
52576.0
 20
-40520.0
 10
52162.0
 20
-40240.0
 10
51748.0
 20
-39960.0
 10
51242.0
 20
-39618.0
 10
51522.0
 20
-39204.0
 10
51802.0
 20
-38790.0
 10
52082.0
 20
-38375.0
 10
52361.0
 20
-37961.0
 10
52641.0
 20
-37547.0
 10
52921.0
 20
-37133.0
 10
53201.0
 20
-36718.0
 10
53707.0
 20
-37060.0
 10
54121.0
 20
-37340.0
 10
54536.0
 20
-37620.0
 10
54950.0
 20
-37900.0
 10
55084.0
 20
-38594.0
 10
55219.0
 20
-39289.0
 10
55633.0
 20
-39569.0
 10
56047.0
 20
-39848.0
 10
56742.0
 20
-39714.0
 10
57001.0
 20
-39890.0
 10
57850.0
 20
-39860.0
 10
58264.0
 20
-40140.0
 10
58679.0
 20
-40420.0
 10
59093.0
 20
-40700.0
 10
59507.0
 20
-40980.0
 10
59732.0
 20
-41539.0
 10
60056.0
 20
-41954.0
 10
60470.0
 20
-42234.0
 10
60884.0
 20
-42514.0
 10
61019.0
 20
-43208.0
 10
61433.0
 20
-43488.0
 10
61667.0
 20
-44034.0
 10
61981.0
 20
-44462.0
 10
61701.0
 20
-44876.0
 10
61422.0
 20
-45291.0
 10
61141.0
 20
-45705.0
 10
60447.0
 20
-45839.0
  0
LWPOLYLINE
  5
A5
330
17
100
AcDbEntity
  8
top_y
100
AcDbPolyline
 90
14
 70
1
 10
65296.00000000001
 20
-46702.0
 10
64881.0
 20
-46422.0
 10
64467.0
 20
-46142.0
 10
64053.0
 20
-45862.0
 10
63639.0
 20
-45582.0
 10
63224.0
 20
-45302.0
 10
62810.0
 20
-45022.0
 10
63504.0
 20
-44888.0
 10
64155.0
 20
-44817.0
 10
64506.0
 20
-44927.0
 10
65150.99999999999
 20
-45130.0
 10
65441.0
 20
-45593.0
 10
65576.0
 20
-46287.0
 10
65296.00000000001
 20
-46702.0
  0
LWPOLYLINE
  5
A6
330
17
100
AcDbEntity
  8
bot_x
100
AcDbPolyline
 90
28
 70
1
 10
66165.0
 20
-67969.0
 10
65806.0
 20
-68084.0
 10
65479.0
 20
-67457.0
 10
65629.0
 20
-66980.0
 10
65779.0
 20
-66503.0
 10
65929.0
 20
-66026.0
 10
66079.0
 20
-65549.0
 10
66229.0
 20
-65072.0
 10
66379.0
 20
-64595.0
 10
66529.0
 20
-64117.99999999999
 10
66679.0
 20
-63641.0
 10
66829.0
 20
-63164.0
 10
67306.0
 20
-63314.0
 10
67783.0
 20
-63464.0
 10
68260.0
 20
-63614.0
 10
68737.0
 20
-63764.0
 10
68587.0
 20
-64241.0
 10
68437.0
 20
-64718.0
 10
68287.0
 20
-65194.99999999999
 10
68614.0
 20
-65822.0
 10
68940.0
 20
-66449.0
 10
68845.0
 20
-66826.0
 10
68313.0
 20
-66602.0
 10
67899.0
 20
-66428.0
 10
67210.0
 20
-66953.0
 10
67060.0
 20
-67430.0
 10
66359.0
 20
-67508.0
 10
66165.0
 20
-67969.0
  0
LWPOLYLINE
  5
A7
330
17
100
AcDbEntity
  8
bot_x
100
AcDbPolyline
 90
22
 70
1
 10
72145.0
 20
-59595.0
 10
71518.0
 20
-59922.0
 10
71041.0
 20
-59771.0
 10
70564.0
 20
-59621.0
 10
70087.0
 20
-59471.0
 10
70237.0
 20
-58994.0
 10
70387.0
 20
-58518.0
 10
70537.0
 20
-58041.0
 10
70687.0
 20
-57563.0
 10
70837.0
 20
-57087.0
 10
70987.0
 20
-56610.0
 10
71614.0
 20
-56283.0
 10
72091.0
 20
-56433.0
 10
72568.0
 20
-56583.0
 10
73045.0
 20
-56733.0
 10
73522.0
 20
-56883.0
 10
73372.0
 20
-57360.0
 10
72745.0
 20
-57687.0
 10
72595.0
 20
-58164.0
 10
72445.0
 20
-58641.0
 10
72295.0
 20
-59118.0
 10
72145.0
 20
-59595.0
  0
LWPOLYLINE
  5
A8
330
17
100
AcDbEntity
  8
bot_x
100
AcDbPolyline
 90
36
 70
1
 10
77218.0
 20
-41797.0
 10
76591.0
 20
-42124.0
 10
76270.0
 20
-42023.0
 10
75866.0
 20
-41776.0
 10
75452.0
 20
-41496.0
 10
75037.0
 20
-41216.0
 10
74623.0
 20
-40936.0
 10
74209.0
 20
-40656.0
 10
74489.0
 20
-40242.0
 10
74355.0
 20
-39548.0
 10
74635.0
 20
-39133.0
 10
75329.0
 20
-38999.0
 10
75609.0
 20
-38585.0
 10
75889.0
 20
-38170.0
 10
76169.0
 20
-37756.0
 10
76449.0
 20
-37342.0
 10
76729.0
 20
-36928.0
 10
77008.0
 20
-36513.0
 10
77288.0
 20
-36099.0
 10
77568.0
 20
-35685.0
 10
78062.0
 20
-35770.0
 10
77912.0
 20
-36247.0
 10
78117.0
 20
-36659.0
 10
77612.0
 20
-37201.0
 10
78129.0
 20
-37888.0
 10
78236.0
 20
-38549.0
 10
78596.0
 20
-39083.0
 10
79029.0
 20
-39377.0
 10
79399.0
 20
-39862.0
 10
78774.0
 20
-40188.0
 10
79099.0
 20
-40816.0
 10
78622.0
 20
-40666.0
 10
77995.0
 20
-40993.0
 10
77845.0
 20
-41470.0
 10
77695.0
 20
-41947.0
 10
77218.0
 20
-41797.0
  0
LWPOLYLINE
  5
A9
330
17
100
AcDbEntity
  8
bot_x
100
AcDbPolyline
 90
20
 70
1
 10
77653.0
 20
-48748.0
 10
77563.0
 20
-49035.0
 10
77086.0
 20
-48885.0
 10
76609.0
 20
-48735.0
 10
76132.0
 20
-48585.0
 10
75655.0
 20
-48435.0
 10
75745.0
 20
-48147.0
 10
75895.0
 20
-47670.0
 10
76045.0
 20
-47194.0
 10
76257.0
 20
-46521.0
 10
76345.0
 20
-46239.0
 10
76495.0
 20
-45763.0
 10
76972.0
 20
-45913.0
 10
77449.0
 20
-46063.0
 10
77926.0
 20
-46213.0
 10
78253.0
 20
-46840.0
 10
78165.0
 20
-47121.0
 10
77476.0
 20
-47644.0
 10
77326.0
 20
-48120.0
 10
77653.0
 20
-48748.0
  0
LWPOLYLINE
  5
AA
330
17
100
AcDbEntity
  8
bot_x
100
AcDbPolyline
 90
16
 70
1
 10
75376.0
 20
-54321.0
 10
74810.0
 20
-54455.0
 10
74333.0
 20
-54305.0
 10
73856.0
 20
-54155.0
 10
73945.0
 20
-53871.0
 10
74095.0
 20
-53394.0
 10
74722.0
 20
-53067.0
 10
74447.0
 20
-52274.0
 10
74545.0
 20
-51963.0
 10
75022.0
 20
-52113.0
 10
75649.0
 20
-51786.0
 10
75976.0
 20
-52413.0
 10
75878.0
 20
-52724.0
 10
75676.0
 20
-53367.0
 10
75526.0
 20
-53844.0
 10
75376.0
 20
-54321.0
  0
LWPOLYLINE
  5
AB
330
17
100
AcDbEntity
  8
bot_x
100
AcDbPolyline
 90
34
 70
1
 10
71360.0
 20
-71549.0
 10
70972.0
 20
-71399.0
 10
71089.0
 20
-71121.0
 10
71282.0
 20
-70660.0
 10
71476.0
 20
-70199.0
 10
71670.0
 20
-69738.0
 10
71794.0
 20
-69443.0
 10
71895.0
 20
-69201.0
 10
71731.0
 20
-68714.0
 10
71502.0
 20
-68303.0
 10
71612.0
 20
-67987.0
 10
72279.0
 20
-67499.0
 10
72906.0
 20
-67172.0
 10
73533.0
 20
-66845.0
 10
73206.0
 20
-66218.0
 10
73833.0
 20
-65891.0
 10
74460.0
 20
-65564.0
 10
74937.0
 20
-65714.0
 10
75414.0
 20
-65864.0
 10
75264.0
 20
-66341.0
 10
75114.0
 20
-66818.0
 10
74964.0
 20
-67295.0
 10
74814.0
 20
-67772.0
 10
74664.0
 20
-68249.0
 10
74514.0
 20
-68726.0
 10
74364.0
 20
-69203.0
 10
73887.0
 20
-69053.0
 10
73188.0
 20
-69608.0
 10
73110.0
 20
-69857.0
 10
72483.0
 20
-70184.0
 10
72333.0
 20
-70661.0
 10
71706.0
 20
-70988.0
 10
71826.0
 20
-71730.0
 10
71360.0
 20
-71549.0
  0
LWPOLYLINE
  5
AC
330
17
100
AcDbEntity
  8
bot_x
100
AcDbPolyline
 90
23
 70
1
 10
78195.0
 20
-62022.0
 10
77568.0
 20
-62349.0
 10
77091.0
 20
-62199.0
 10
76614.0
 20
-62049.0
 10
76137.0
 20
-61899.0
 10
75660.0
 20
-61749.0
 10
75810.0
 20
-61272.0
 10
75960.0
 20
-60795.0
 10
76587.0
 20
-60468.0
 10
76737.0
 20
-59991.0
 10
76410.0
 20
-59364.0
 10
76561.0
 20
-58887.0
 10
76711.0
 20
-58410.0
 10
77188.0
 20
-58560.0
 10
77814.0
 20
-58233.0
 10
78141.0
 20
-58860.0
 10
78618.0
 20
-59010.0
 10
78945.0
 20
-59637.0
 10
78795.0
 20
-60114.0
 10
78168.0
 20
-60441.0
 10
78018.0
 20
-60918.0
 10
78345.0
 20
-61545.0
 10
78195.0
 20
-62022.0
  0
LWPOLYLINE
  5
AD
330
17
100
AcDbEntity
  8
bot_x
100
AcDbPolyline
 90
17
 70
1
 10
81469.0
 20
-49948.0
 10
81378.0
 20
-50236.0
 10
80901.0
 20
-50086.0
 10
80424.0
 20
-49936.0
 10
79947.0
 20
-49785.0
 10
80038.0
 20
-49498.0
 10
80188.0
 20
-49021.0
 10
80815.0
 20
-48694.0
 10
80549.0
 20
-47871.0
 10
80638.0
 20
-47590.0
 10
81115.0
 20
-47740.0
 10
81742.0
 20
-47413.0
 10
82069.0
 20
-48040.0
 10
81980.0
 20
-48321.0
 10
81769.0
 20
-48994.0
 10
81619.0
 20
-49471.0
 10
81469.0
 20
-49948.0
  0
LWPOLYLINE
  5
AE
330
17
100
AcDbEntity
  8
bot_x
100
AcDbPolyline
 90
15
 70
1
 10
79669.0
 20
-55671.0
 10
79102.0
 20
-55805.0
 10
78625.0
 20
-55655.0
 10
78238.0
 20
-55221.0
 10
78388.0
 20
-54744.0
 10
79015.0
 20
-54417.0
 10
78740.0
 20
-53625.0
 10
78838.0
 20
-53313.0
 10
79315.0
 20
-53463.0
 10
79792.0
 20
-53613.0
 10
80269.0
 20
-53763.0
 10
80171.0
 20
-54075.0
 10
79968.0
 20
-54717.0
 10
79818.0
 20
-55194.0
 10
79669.0
 20
-55671.0
  0
LWPOLYLINE
  5
AF
330
17
100
AcDbEntity
  8
bot_x
100
AcDbPolyline
 90
40
 70
1
 10
80902.0
 20
-75079.0
 10
80618.0
 20
-74987.0
 10
80512.0
 20
-74949.0
 10
80263.0
 20
-74861.0
 10
79792.0
 20
-74694.0
 10
79664.0
 20
-74015.0
 10
80291.0
 20
-73688.0
 10
80441.0
 20
-73211.0
 10
80591.0
 20
-72734.0
 10
80265.0
 20
-72107.0
 10
80342.0
 20
-71859.0
 10
80414.0
 20
-71630.0
 10
80564.0
 20
-71153.0
 10
80715.0
 20
-70676.0
 10
80865.0
 20
-70199.0
 10
81015.0
 20
-69723.0
 10
81165.0
 20
-69245.0
 10
81315.0
 20
-68769.0
 10
81465.0
 20
-68292.0
 10
82092.0
 20
-67965.0
 10
82569.0
 20
-68115.0
 10
83046.0
 20
-68265.0
 10
83522.0
 20
-68415.0
 10
84000.0
 20
-68565.0
 10
83850.0
 20
-69042.0
 10
83699.0
 20
-69519.0
 10
83549.0
 20
-69996.0
 10
83399.0
 20
-70473.0
 10
83249.0
 20
-70950.0
 10
83099.0
 20
-71426.0
 10
82949.0
 20
-71903.0
 10
82799.0
 20
-72380.0
 10
82727.0
 20
-72609.0
 10
82649.0
 20
-72857.0
 10
82022.0
 20
-73184.0
 10
81872.0
 20
-73661.0
 10
81722.0
 20
-74138.0
 10
81572.0
 20
-74615.0
 10
81211.0
 20
-75179.0
 10
80902.0
 20
-75079.0
  0
LWPOLYLINE
  5
B0
330
17
100
AcDbEntity
  8
bot_x
100
AcDbPolyline
 90
7
 70
1
 10
84573.0
 20
-65075.99999999999
 10
84096.0
 20
-64926.0
 10
83694.0
 20
-64537.00000000001
 10
84171.0
 20
-64687.0
 10
84648.0
 20
-64837.0
 10
85125.0
 20
-64986.99999999999
 10
84573.0
 20
-65075.99999999999
  0
LWPOLYLINE
  5
B1
330
17
100
AcDbEntity
  8
bot_x
100
AcDbPolyline
 90
23
 70
1
 10
93458.0
 20
-66822.0
 10
93308.0
 20
-67299.0
 10
92831.0
 20
-67149.0
 10
92354.0
 20
-66999.0
 10
91877.0
 20
-66849.0
 10
91400.0
 20
-66699.0
 10
91073.0
 20
-66072.0
 10
91700.0
 20
-65745.0
 10
91850.0
 20
-65268.0
 10
92000.0
 20
-64791.0
 10
92150.0
 20
-64313.99999999999
 10
92300.0
 20
-63838.0
 10
92450.0
 20
-63361.0
 10
93077.0
 20
-63034.0
 10
93554.0
 20
-63184.0
 10
94031.0
 20
-63334.0
 10
94358.0
 20
-63961.0
 10
94208.0
 20
-64438.0
 10
94058.0
 20
-64914.0
 10
93908.0
 20
-65391.99999999999
 10
93758.0
 20
-65868.0
 10
93608.0
 20
-66345.0
 10
93458.0
 20
-66822.0
  0
LWPOLYLINE
  5
B2
330
17
100
AcDbEntity
  8
bot_x
100
AcDbPolyline
 90
41
 70
1
 10
89817.0
 20
-77809.0
 10
89334.0
 20
-77680.0
 10
89021.0
 20
-77596.0
 10
88759.0
 20
-77526.0
 10
88629.0
 20
-77491.0
 10
88370.0
 20
-77414.0
 10
87891.0
 20
-77271.0
 10
87411.0
 20
-77129.0
 10
87773.0
 20
-76565.0
 10
87923.0
 20
-76089.0
 10
88550.0
 20
-75762.0
 10
88700.0
 20
-75285.0
 10
88373.0
 20
-74658.0
 10
88451.0
 20
-74410.0
 10
88523.0
 20
-74181.0
 10
88673.0
 20
-73704.0
 10
88823.0
 20
-73227.0
 10
88973.0
 20
-72750.0
 10
89123.0
 20
-72273.0
 10
89273.0
 20
-71796.0
 10
89423.0
 20
-71319.0
 10
89573.0
 20
-70842.0
 10
90200.0
 20
-70515.0
 10
90677.0
 20
-70665.0
 10
91154.0
 20
-70815.0
 10
91631.0
 20
-70965.0
 10
91958.0
 20
-71592.0
 10
91808.0
 20
-72069.0
 10
91658.0
 20
-72546.0
 10
91031.0
 20
-72873.0
 10
90881.0
 20
-73350.0
 10
91208.0
 20
-73977.0
 10
91058.0
 20
-74454.0
 10
90908.0
 20
-74931.0
 10
90835.0
 20
-75160.0
 10
90758.0
 20
-75408.0
 10
90131.0
 20
-75735.0
 10
89981.0
 20
-76212.0
 10
90308.0
 20
-76839.0
 10
90158.0
 20
-77316.0
 10
89817.0
 20
-77809.0
  0
LWPOLYLINE
  5
B3
330
17
100
AcDbEntity
  8
bot_x
100
AcDbPolyline
 90
21
 70
1
 10
95318.0
 20
-60907.0
 10
94631.0
 20
-61426.0
 10
94154.0
 20
-61276.0
 10
93677.0
 20
-61126.0
 10
93411.0
 20
-60307.0
 10
93500.0
 20
-60022.0
 10
93650.0
 20
-59545.0
 10
94277.0
 20
-59218.0
 10
94002.0
 20
-58426.0
 10
94101.0
 20
-58114.0
 10
94251.0
 20
-57637.0
 10
94728.0
 20
-57787.0
 10
95354.0
 20
-57460.0
 10
95681.0
 20
-58087.0
 10
96158.0
 20
-58237.0
 10
96008.0
 20
-58714.0
 10
95910.0
 20
-59027.0
 10
95231.0
 20
-59518.0
 10
95558.0
 20
-60145.0
 10
95408.0
 20
-60622.0
 10
95318.0
 20
-60907.0
  0
LWPOLYLINE
  5
B4
330
17
100
AcDbEntity
  8
bot_x
100
AcDbPolyline
 90
35
 70
1
 10
105140.0
 20
-56345.0
 10
104990.0
 20
-56822.0
 10
104513.0
 20
-56672.0
 10
104036.0
 20
-56522.0
 10
103559.0
 20
-56372.0
 10
103082.0
 20
-56222.0
 10
102605.0
 20
-56071.0
 10
102128.0
 20
-55922.0
 10
101651.0
 20
-55771.0
 10
101324.0
 20
-55145.0
 10
100847.0
 20
-54994.0
 10
100370.0
 20
-54845.0
 10
99893.0
 20
-54694.0
 10
99416.0
 20
-54544.0
 10
98939.0
 20
-54394.0
 10
99522.0
 20
-54211.0
 10
99999.0
 20
-54361.0
 10
100476.0
 20
-54511.0
 10
101058.0
 20
-54324.0
 10
101535.0
 20
-54474.0
 10
102101.0
 20
-54341.0
 10
102728.0
 20
-54014.0
 10
103205.0
 20
-54164.0
 10
103832.0
 20
-53837.0
 10
104494.0
 20
-53398.0
 10
104609.0
 20
-53033.0
 10
105236.0
 20
-52706.0
 10
105086.0
 20
-53183.0
 10
105448.0
 20
-53698.0
 10
105263.0
 20
-54287.0
 10
105562.0
 20
-54906.0
 10
105412.0
 20
-55383.0
 10
105323.0
 20
-55666.0
 10
105217.0
 20
-56002.0
 10
105140.0
 20
-56345.0
  0
LWPOLYLINE
  5
B5
330
17
100
AcDbEntity
  8
bot_x
100
AcDbPolyline
 90
18
 70
1
 10
101609.0
 20
-62572.0
 10
101519.0
 20
-62858.0
 10
101042.0
 20
-62708.0
 10
100565.0
 20
-62558.0
 10
100088.0
 20
-62408.0
 10
100178.0
 20
-62122.0
 10
100328.0
 20
-61645.0
 10
100478.0
 20
-61168.0
 10
100680.0
 20
-60527.0
 10
100301.0
 20
-60064.0
 10
100928.0
 20
-59737.0
 10
101405.0
 20
-59887.0
 10
101882.0
 20
-60037.0
 10
102209.0
 20
-60664.0
 10
102110.0
 20
-60978.0
 10
101909.0
 20
-61618.0
 10
101759.0
 20
-62095.0
 10
101609.0
 20
-62572.0
  0
LWPOLYLINE
  5
B6
330
17
100
AcDbEntity
  8
bot_x
100
AcDbPolyline
 90
21
 70
1
 10
100136.0
 20
-68923.0
 10
99508.0
 20
-69250.0
 10
99032.0
 20
-69100.0
 10
98555.0
 20
-68950.0
 10
98228.0
 20
-68323.0
 10
97751.0
 20
-68173.0
 10
97901.0
 20
-67696.0
 10
98528.0
 20
-67369.0
 10
98678.0
 20
-66892.0
 10
98828.0
 20
-66415.0
 10
98978.0
 20
-65938.0
 10
99128.0
 20
-65461.0
 10
99605.0
 20
-65611.0
 10
100082.0
 20
-65761.0
 10
100559.0
 20
-65911.0
 10
100886.0
 20
-66538.0
 10
100259.0
 20
-66865.0
 10
100109.0
 20
-67342.0
 10
99959.0
 20
-67819.0
 10
100286.0
 20
-68446.0
 10
100136.0
 20
-68923.0
  0
LWPOLYLINE
  5
B7
330
17
100
AcDbEntity
  8
bot_x
100
AcDbPolyline
 90
39
 70
1
 10
98634.0
 20
-79491.0
 10
98041.0
 20
-79447.0
 10
97636.0
 20
-79417.0
 10
97138.0
 20
-79380.0
 10
96821.0
 20
-79356.0
 10
96508.0
 20
-78789.0
 10
96658.0
 20
-78312.0
 10
96808.0
 20
-77835.0
 10
96958.0
 20
-77358.0
 10
97036.0
 20
-77111.0
 10
97108.0
 20
-76881.0
 10
96781.0
 20
-76254.0
 10
96454.0
 20
-75627.0
 10
96604.0
 20
-75150.0
 10
97231.0
 20
-74823.0
 10
97381.0
 20
-74346.0
 10
97531.0
 20
-73869.0
 10
97204.0
 20
-73242.0
 10
97354.0
 20
-72765.0
 10
97505.0
 20
-72288.0
 10
98132.0
 20
-71961.0
 10
98608.0
 20
-72111.0
 10
99085.0
 20
-72261.0
 10
99412.0
 20
-72888.0
 10
99889.0
 20
-73038.0
 10
100216.0
 20
-73665.0
 10
100066.0
 20
-74142.0
 10
99439.0
 20
-74469.0
 10
99289.0
 20
-74946.0
 10
99616.0
 20
-75573.0
 10
99466.0
 20
-76050.0
 10
99316.0
 20
-76527.0
 10
99643.0
 20
-77154.0
 10
99493.0
 20
-77631.0
 10
98866.0
 20
-77958.0
 10
98716.0
 20
-78435.0
 10
99043.0
 20
-79062.0
 10
98974.0
 20
-79517.0
 10
98634.0
 20
-79491.0
  0
LWPOLYLINE
  5
B8
330
17
100
AcDbEntity
  8
bot_x
100
AcDbPolyline
 90
48
 70
1
 10
107086.0
 20
-68488.0
 10
106459.0
 20
-68815.0
 10
105982.0
 20
-68665.0
 10
105655.0
 20
-68038.0
 10
105178.0
 20
-67888.0
 10
104701.0
 20
-67738.0
 10
104851.0
 20
-67261.0
 10
105000.0
 20
-66784.0
 10
105151.0
 20
-66307.0
 10
105301.0
 20
-65830.0
 10
105451.0
 20
-65352.99999999999
 10
106078.0
 20
-65025.99999999999
 10
106765.0
 20
-64509.0
 10
106855.0
 20
-64221.99999999999
 10
107482.0
 20
-63895.0
 10
108109.0
 20
-63568.0
 10
108311.0
 20
-62928.0
 10
108409.0
 20
-62614.0
 10
108559.0
 20
-62138.0
 10
108709.0
 20
-61661.0
 10
108910.0
 20
-61024.0
 10
109009.0
 20
-60707.0
 10
109160.0
 20
-60230.0
 10
108817.0
 20
-59651.0
 10
109294.0
 20
-59801.0
 10
109771.0
 20
-59951.0
 10
110248.0
 20
-60102.0
 10
110725.0
 20
-60252.0
 10
111202.0
 20
-60402.0
 10
111067.0
 20
-60830.0
 10
110440.0
 20
-61157.0
 10
110340.0
 20
-61474.0
 10
110617.0
 20
-62261.0
 10
110467.0
 20
-62738.0
 10
110317.0
 20
-63215.0
 10
110219.0
 20
-63528.0
 10
110017.0
 20
-64169.0
 10
109867.0
 20
-64646.0
 10
109717.0
 20
-65122.0
 10
109627.0
 20
-65409.00000000001
 10
109150.0
 20
-65259.0
 10
108463.0
 20
-65776.0
 10
107836.0
 20
-66103.0
 10
107686.0
 20
-66580.0
 10
107059.0
 20
-66907.0
 10
106909.0
 20
-67384.0
 10
106759.0
 20
-67861.0
 10
107086.0
 20
-68488.0
  0
LWPOLYLINE
  5
B9
330
17
100
AcDbEntity
  8
bot_x
100
AcDbPolyline
 90
19
 70
1
 10
113548.0
 20
-57941.0
 10
113126.0
 20
-58120.0
 10
113215.0
 20
-57836.0
 10
113365.0
 20
-57359.0
 10
113172.0
 20
-56723.0
 10
112909.0
 20
-56641.0
 10
112432.0
 20
-56491.0
 10
111955.0
 20
-56341.0
 10
111478.0
 20
-56190.0
 10
111000.0
 20
-56040.0
 10
111649.0
 20
-55649.0
 10
112241.0
 20
-55433.0
 10
112718.0
 20
-55583.0
 10
113195.0
 20
-55733.0
 10
113672.0
 20
-55883.0
 10
113556.0
 20
-56249.0
 10
113848.0
 20
-56987.0
 10
113698.0
 20
-57464.0
 10
113548.0
 20
-57941.0
  0
LWPOLYLINE
  5
BA
330
17
100
AcDbEntity
  8
bot_x
100
AcDbPolyline
 90
36
 70
1
 10
108174.0
 20
-78377.0
 10
107541.0
 20
-78539.0
 10
107057.0
 20
-78663.0
 10
106621.0
 20
-78300.0
 10
106771.0
 20
-77824.0
 10
106921.0
 20
-77347.0
 10
106594.0
 20
-76720.0
 10
106267.0
 20
-76093.0
 10
105940.0
 20
-75466.0
 10
105463.0
 20
-75316.0
 10
105136.0
 20
-74689.0
 10
105286.0
 20
-74212.0
 10
105913.0
 20
-73885.0
 10
106063.0
 20
-73408.0
 10
105736.0
 20
-72781.0
 10
105886.0
 20
-72304.0
 10
106036.0
 20
-71827.0
 10
106186.0
 20
-71350.0
 10
106663.0
 20
-71500.0
 10
107140.0
 20
-71650.0
 10
107617.0
 20
-71800.0
 10
107944.0
 20
-72427.0
 10
108421.0
 20
-72577.0
 10
108271.0
 20
-73054.0
 10
108121.0
 20
-73531.0
 10
107971.0
 20
-74008.0
 10
108298.0
 20
-74635.0
 10
108148.0
 20
-75112.0
 10
108475.0
 20
-75739.0
 10
108325.0
 20
-76216.0
 10
108175.0
 20
-76693.0
 10
108502.0
 20
-77320.0
 10
108352.0
 20
-77797.0
 10
108994.0
 20
-78167.0
 10
108510.0
 20
-78291.0
 10
108174.0
 20
-78377.0
  0
LWPOLYLINE
  5
BB
330
17
100
AcDbEntity
  8
bot_x
100
AcDbPolyline
 90
33
 70
1
 10
122558.0
 20
-56217.0
 10
123035.0
 20
-56367.0
 10
122380.0
 20
-56526.0
 10
121903.0
 20
-56376.0
 10
121426.0
 20
-56226.0
 10
120949.0
 20
-56076.0
 10
120472.0
 20
-55926.0
 10
119995.0
 20
-55776.0
 10
119518.0
 20
-55626.0
 10
119041.0
 20
-55476.0
 10
118564.0
 20
-55326.0
 10
118087.0
 20
-55175.0
 10
117610.0
 20
-55026.0
 10
117133.0
 20
-54875.0
 10
116656.0
 20
-54725.0
 10
116179.0
 20
-54575.0
 10
115702.0
 20
-54425.0
 10
115404.0
 20
-53966.0
 10
115880.0
 20
-54116.0
 10
116357.0
 20
-54266.0
 10
116834.0
 20
-54416.0
 10
117311.0
 20
-54566.0
 10
117788.0
 20
-54716.0
 10
118265.0
 20
-54866.0
 10
118742.0
 20
-55016.0
 10
119219.0
 20
-55166.0
 10
119696.0
 20
-55317.0
 10
120173.0
 20
-55466.0
 10
120650.0
 20
-55617.0
 10
121127.0
 20
-55767.0
 10
121604.0
 20
-55917.0
 10
122081.0
 20
-56067.0
 10
122558.0
 20
-56217.0
  0
LWPOLYLINE
  5
BC
330
17
100
AcDbEntity
  8
bot_x
100
AcDbPolyline
 90
17
 70
1
 10
115195.0
 20
-71038.0
 10
115044.0
 20
-71515.0
 10
114568.0
 20
-71365.0
 10
114091.0
 20
-71215.0
 10
113614.0
 20
-71065.0
 10
113764.0
 20
-70588.0
 10
113914.0
 20
-70111.0
 10
114064.0
 20
-69634.0
 10
114214.0
 20
-69158.0
 10
114364.0
 20
-68680.0
 10
114841.0
 20
-68830.0
 10
115318.0
 20
-68981.0
 10
115795.0
 20
-69131.0
 10
115645.0
 20
-69607.0
 10
115018.0
 20
-69935.0
 10
115345.0
 20
-70562.0
 10
115195.0
 20
-71038.0
  0
LWPOLYLINE
  5
BD
330
17
100
AcDbEntity
  8
bot_x
100
AcDbPolyline
 90
17
 70
1
 10
119281.0
 20
-66380.0
 10
119080.0
 20
-67019.0
 10
118603.0
 20
-66869.0
 10
118126.0
 20
-66719.0
 10
117649.0
 20
-66569.0
 10
118327.0
 20
-66079.0
 10
118426.0
 20
-65765.0
 10
118576.0
 20
-65288.0
 10
118726.0
 20
-64811.00000000001
 10
118926.0
 20
-64176.0
 10
119487.0
 20
-64057.0
 10
119964.0
 20
-64206.99999999999
 10
119879.0
 20
-64476.0
 10
119680.0
 20
-65111.00000000001
 10
119530.0
 20
-65588.0
 10
119380.0
 20
-66065.0
 10
119281.0
 20
-66380.0
  0
LWPOLYLINE
  5
BE
330
17
100
AcDbEntity
  8
bot_x
100
AcDbPolyline
 90
7
 70
1
 10
117074.0
 20
-73580.0
 10
117045.0
 20
-74230.0
 10
116502.0
 20
-73546.0
 10
116675.0
 20
-73017.0
 10
116802.0
 20
-72592.0
 10
117129.0
 20
-73219.0
 10
117074.0
 20
-73580.0
  0
LWPOLYLINE
  5
BF
330
17
100
AcDbEntity
  8
bot_x
100
AcDbPolyline
 90
6
 70
1
 10
122118.0
 20
-69023.0
 10
122028.0
 20
-69311.0
 10
121641.0
 20
-68873.0
 10
121767.0
 20
-68398.0
 10
122273.0
 20
-68836.0
 10
122118.0
 20
-69023.0
  0
LWPOLYLINE
  5
C0
330
17
100
AcDbEntity
  8
bot_x
100
AcDbPolyline
 90
8
 70
1
 10
125826.0
 20
-63903.0
 10
125735.0
 20
-64191.0
 10
125258.0
 20
-64041.0
 10
124790.0
 20
-63894.0
 10
124896.0
 20
-63610.0
 10
125499.0
 20
-63272.0
 10
125976.0
 20
-63423.0
 10
125826.0
 20
-63903.0
  0
LWPOLYLINE
  5
C1
330
17
100
AcDbEntity
  8
bot_x
100
AcDbPolyline
 90
7
 70
1
 10
41803.0
 20
-55568.0
 10
41059.0
 20
-55777.0
 10
41133.0
 20
-55117.0
 10
41495.0
 20
-54582.0
 10
41949.0
 20
-54460.0
 10
42083.0
 20
-55154.0
 10
41803.0
 20
-55568.0
  0
LWPOLYLINE
  5
C2
330
17
100
AcDbEntity
  8
bot_x
100
AcDbPolyline
 90
13
 70
1
 10
48618.0
 20
-60430.0
 10
48206.0
 20
-60189.0
 10
48034.0
 20
-60089.0
 10
48180.0
 20
-59877.0
 10
48464.0
 20
-59466.0
 10
48756.0
 20
-59041.0
 10
49031.0
 20
-58642.0
 10
49315.0
 20
-58231.0
 10
49272.0
 20
-58805.0
 10
49686.0
 20
-59085.0
 10
49406.0
 20
-59499.0
 10
49126.0
 20
-59913.0
 10
48618.0
 20
-60430.0
  0
LWPOLYLINE
  5
C3
330
17
100
AcDbEntity
  8
bot_x
100
AcDbPolyline
 90
34
 70
1
 10
56800.0
 20
-64495.99999999999
 10
56913.0
 20
-64970.0
 10
56633.0
 20
-64822.0
 10
56066.0
 20
-64522.99999999999
 10
56034.0
 20
-63978.0
 10
56314.0
 20
-63564.0
 10
57008.0
 20
-63430.0
 10
57289.0
 20
-63015.0
 10
57154.0
 20
-62321.0
 10
57434.0
 20
-61907.0
 10
57300.0
 20
-61213.0
 10
57580.0
 20
-60799.0
 10
57860.0
 20
-60384.0
 10
58140.0
 20
-59970.0
 10
58420.0
 20
-59556.0
 10
58285.0
 20
-58861.0
 10
58565.0
 20
-58447.0
 10
59259.0
 20
-58313.0
 10
59674.0
 20
-58593.0
 10
60088.0
 20
-58873.0
 10
60502.0
 20
-59153.0
 10
60637.0
 20
-59847.0
 10
60357.0
 20
-60261.0
 10
60077.0
 20
-60675.0
 10
59797.0
 20
-61090.0
 10
59517.0
 20
-61504.0
 10
59237.0
 20
-61918.0
 10
58957.0
 20
-62333.0
 10
58677.0
 20
-62747.0
 10
57983.0
 20
-62881.0
 10
57703.0
 20
-63295.0
 10
57201.0
 20
-63711.0
 10
56958.0
 20
-64186.00000000001
 10
56800.0
 20
-64495.99999999999
  0
LWPOLYLINE
  5
C4
330
17
100
AcDbEntity
  8
bot_x
100
AcDbPolyline
 90
5
 70
1
 10
45589.0
 20
-49074.0
 10
45308.0
 20
-49488.0
 10
45210.0
 20
-49084.0
 10
45084.0
 20
-48733.0
 10
45589.0
 20
-49074.0
  0
LWPOLYLINE
  5
C5
330
17
100
AcDbEntity
  8
bot_x
100
AcDbPolyline
 90
19
 70
1
 10
63850.0
 20
-55984.0
 10
63571.0
 20
-56398.0
 10
63156.0
 20
-56118.0
 10
62742.0
 20
-55839.0
 10
62328.0
 20
-55558.0
 10
62608.0
 20
-55144.0
 10
62888.0
 20
-54730.0
 10
63168.0
 20
-54316.0
 10
63448.0
 20
-53902.0
 10
63728.0
 20
-53487.0
 10
64007.00000000001
 20
-53073.0
 10
64422.0
 20
-53353.0
 10
64836.0
 20
-53633.0
 10
65250.0
 20
-53913.0
 10
64970.0
 20
-54327.0
 10
64690.0
 20
-54741.0
 10
64410.0
 20
-55156.0
 10
64131.0
 20
-55570.0
 10
63850.0
 20
-55984.0
  0
LWPOLYLINE
  5
C6
330
17
100
AcDbEntity
  8
bot_x
100
AcDbPolyline
 90
15
 70
1
 10
60402.0
 20
-53050.0
 10
60122.0
 20
-53465.0
 10
59908.0
 20
-53320.0
 10
59708.0
 20
-53185.0
 10
59293.0
 20
-52905.0
 10
58879.0
 20
-52625.0
 10
59574.0
 20
-52490.0
 10
59853.0
 20
-52076.0
 10
60133.0
 20
-51662.0
 10
60413.0
 20
-51248.0
 10
60828.0
 20
-51528.0
 10
61163.0
 20
-51754.0
 10
60647.0
 20
-52222.0
 10
60682.0
 20
-52636.0
 10
60402.0
 20
-53050.0
  0
LWPOLYLINE
  5
C7
330
17
100
AcDbEntity
  8
bot_x
100
AcDbPolyline
 90
15
 70
1
 10
67210.0
 20
-51013.0
 10
66930.0
 20
-51427.0
 10
66516.0
 20
-51147.0
 10
66102.0
 20
-50867.0
 10
65687.0
 20
-50587.0
 10
65967.0
 20
-50173.0
 10
66781.0
 20
-49862.0
 10
66527.0
 20
-49344.0
 10
66807.0
 20
-48930.0
 10
67501.0
 20
-48796.0
 10
67916.0
 20
-49076.0
 10
68050.0
 20
-49770.0
 10
67776.0
 20
-50175.0
 10
67490.0
 20
-50599.0
 10
67210.0
 20
-51013.0
  0
LWPOLYLINE
  5
C8
330
17
100
AcDbEntity
  8
bot_x
100
AcDbPolyline
 90
10
 70
1
 10
63314.0
 20
-47583.0
 10
63067.0
 20
-48213.0
 10
62653.0
 20
-47933.0
 10
62933.0
 20
-47519.0
 10
63213.0
 20
-47105.0
 10
63468.0
 20
-46728.0
 10
63965.0
 20
-46884.0
 10
64321.0
 20
-47250.0
 10
64041.0
 20
-47665.0
 10
63314.0
 20
-47583.0
  0
LWPOLYLINE
  5
C9
330
17
100
AcDbEntity
  8
bot_x
100
AcDbPolyline
 90
21
 70
1
 10
70290.0
 20
-46456.0
 10
70127.0
 20
-46696.0
 10
69630.0
 20
-46539.0
 10
69132.0
 20
-46383.0
 10
68634.0
 20
-46226.0
 10
69047.0
 20
-45616.0
 10
69327.0
 20
-45202.0
 10
69607.0
 20
-44787.0
 10
69807.0
 20
-44492.0
 10
70167.0
 20
-43959.0
 10
70861.0
 20
-43825.0
 10
71141.0
 20
-43410.0
 10
71555.0
 20
-43690.0
 10
72249.0
 20
-43556.0
 10
72384.0
 20
-44250.0
 10
72104.0
 20
-44664.0
 10
71797.0
 20
-45118.0
 10
71544.0
 20
-45493.0
 10
70850.0
 20
-45627.0
 10
70570.0
 20
-46042.0
 10
70290.0
 20
-46456.0
  0
LWPOLYLINE
  5
CA
330
17
100
AcDbEntity
  8
bot_x
100
AcDbPolyline
 90
13
 70
1
 10
66821.0
 20
-43552.0
 10
66561.0
 20
-43936.0
 10
66147.0
 20
-43656.0
 10
65825.0
 20
-43239.0
 10
66012.0
 20
-42962.0
 10
66292.0
 20
-42548.0
 10
66572.0
 20
-42133.0
 10
66852.0
 20
-41719.0
 10
67267.0
 20
-41999.0
 10
67681.0
 20
-42279.0
 10
67401.0
 20
-42693.0
 10
67121.0
 20
-43108.0
 10
66821.0
 20
-43552.0
  0
LWPOLYLINE
  5
CB
330
17
100
AcDbEntity
  8
bot_x
100
AcDbPolyline
 90
16
 70
1
 10
71320.0
 20
-36894.0
 10
70626.0
 20
-37028.0
 10
70212.0
 20
-36748.0
 10
69798.0
 20
-36468.0
 10
70077.0
 20
-36054.0
 10
70357.0
 20
-35639.0
 10
71052.0
 20
-35505.0
 10
71332.0
 20
-35091.0
 10
71612.0
 20
-34676.0
 10
72306.0
 20
-34542.0
 10
72720.0
 20
-34822.0
 10
72440.0
 20
-35236.0
 10
72160.0
 20
-35651.0
 10
71880.0
 20
-36065.0
 10
71600.0
 20
-36479.0
 10
71320.0
 20
-36894.0
  0
LWPOLYLINE
  5
CC
330
17
100
AcDbEntity
  8
bot_x
100
AcDbPolyline
 90
5
 70
1
 10
59866.0
 20
-27946.0
 10
59586.0
 20
-28361.0
 10
59589.0
 20
-27928.0
 10
59359.0
 20
-27604.0
 10
59866.0
 20
-27946.0
  0
LWPOLYLINE
  5
CD
330
17
100
AcDbEntity
  8
bot_x
100
AcDbPolyline
 90
14
 70
1
 10
74960.0
 20
-31508.0
 10
74680.0
 20
-31922.0
 10
73986.0
 20
-32057.000000000004
 10
73571.0
 20
-31777.0
 10
73157.0
 20
-31497.0
 10
73437.0
 20
-31082.0
 10
73717.0
 20
-30668.0
 10
74277.0
 20
-29840.0
 10
74691.0
 20
-30119.0
 10
75385.0
 20
-29985.0
 10
75635.0
 20
-30154.0
 10
75479.0
 20
-30652.0
 10
75322.0
 20
-31149.0
 10
74960.0
 20
-31508.0
  0
LWPOLYLINE
  5
CE
330
17
100
AcDbEntity
  8
bot_x
100
AcDbPolyline
 90
6
 70
1
 10
64346.0
 20
-21318.0
 10
63838.0
 20
-20975.0
 10
64117.99999999999
 20
-20560.0
 10
64906.00000000001
 20
-20489.0
 10
64626.00000000001
 20
-20903.0
 10
64346.0
 20
-21318.0
  0
LWPOLYLINE
  5
CF
330
17
100
AcDbEntity
  8
bot_y
100
AcDbPolyline
 90
5
 70
1
 10
73665.0
 20
-15781.0
 10
73561.0
 20
-16114.0
 10
73299.0
 20
-15929.0
 10
73377.0
 20
-15691.0
 10
73665.0
 20
-15781.0
  0
LWPOLYLINE
  5
D0
330
17
100
AcDbEntity
  8
bot_y
100
AcDbPolyline
 90
10
 70
1
 10
73158.0
 20
-19721.0
 10
73634.0
 20
-19871.0
 10
73091.0
 20
-19986.0
 10
72753.0
 20
-19593.0
 10
72492.0
 20
-19511.0
 10
72204.0
 20
-19420.0
 10
71727.0
 20
-19270.0
 10
72399.0
 20
-18791.0
 10
72658.0
 20
-18983.0
 10
73158.0
 20
-19721.0
  0
LWPOLYLINE
  5
D1
330
17
100
AcDbEntity
  8
bot_y
100
AcDbPolyline
 90
39
 70
1
 10
80463.0
 20
-28139.0
 10
80313.0
 20
-28616.0
 10
80111.0
 20
-28351.0
 10
79976.0
 20
-27656.0
 10
79842.0
 20
-26962.0
 10
79708.0
 20
-26268.0
 10
79294.0
 20
-25988.0
 10
79159.0
 20
-25294.0
 10
79025.0
 20
-24600.0
 10
78611.0
 20
-24320.0
 10
78476.0
 20
-23625.0
 10
78342.0
 20
-22931.0
 10
78141.0
 20
-22192.0
 10
77793.0
 20
-21957.0
 10
78073.0
 20
-21543.0
 10
78399.0
 20
-21370.0
 10
78881.0
 20
-21521.0
 10
79358.0
 20
-21671.0
 10
79649.0
 20
-21763.0
 10
79548.0
 20
-22086.0
 10
79397.0
 20
-22562.0
 10
79273.0
 20
-22957.0
 10
79844.0
 20
-23460.0
 10
80534.0
 20
-22922.0
 10
80684.0
 20
-22445.0
 10
81011.0
 20
-23072.0
 10
81274.0
 20
-23910.0
 10
81747.0
 20
-24058.0
 10
82414.0
 20
-24268.0
 10
82701.0
 20
-24358.0
 10
82622.0
 20
-24608.0
 10
82463.0
 20
-25113.0
 10
82307.0
 20
-25611.0
 10
81881.0
 20
-25964.0
 10
81731.0
 20
-26441.0
 10
81231.0
 20
-26694.0
 10
80763.0
 20
-27185.0
 10
80613.0
 20
-27662.0
 10
80463.0
 20
-28139.0
  0
LWPOLYLINE
  5
D2
330
17
100
AcDbEntity
  8
bot_y
100
AcDbPolyline
 90
55
 70
1
 10
72208.0
 20
-68864.0
 10
71895.0
 20
-69201.0
 10
71280.0
 20
-69008.0
 10
70803.0
 20
-68858.0
 10
70548.0
 20
-68003.0
 10
69921.0
 20
-68330.0
 10
69444.0
 20
-68180.0
 10
69117.0
 20
-67553.0
 10
68640.0
 20
-67403.0
 10
68163.0
 20
-67253.0
 10
67687.0
 20
-67103.0
 10
67210.0
 20
-66953.0
 10
66552.0
 20
-67047.0
 10
66359.0
 20
-67508.0
 10
65956.0
 20
-67607.0
 10
65328.99999999999
 20
-67934.0
 10
64852.00000000001
 20
-67784.0
 10
65001.99999999999
 20
-67307.0
 10
65152.0
 20
-66830.0
 10
65302.00000000001
 20
-66353.0
 10
65452.0
 20
-65876.0
 10
65602.0
 20
-65399.0
 10
65752.0
 20
-64922.0
 10
65902.0
 20
-64444.99999999999
 10
66052.0
 20
-63968.0
 10
66202.0
 20
-63491.0
 10
66679.0
 20
-63641.0
 10
67156.0
 20
-63791.0
 10
67633.0
 20
-63941.0
 10
68110.0
 20
-64090.99999999999
 10
68587.0
 20
-64241.0
 10
68914.0
 20
-64867.99999999999
 10
69241.0
 20
-65495.00000000001
 10
69717.0
 20
-65645.0
 10
70194.0
 20
-65795.0
 10
70521.0
 20
-66422.0
 10
70998.0
 20
-66572.0
 10
71475.0
 20
-66722.0
 10
72102.0
 20
-66395.0
 10
72579.0
 20
-66545.0
 10
73206.0
 20
-66218.0
 10
73683.0
 20
-66368.0
 10
74160.0
 20
-66518.0
 10
74637.0
 20
-66668.0
 10
75114.0
 20
-66818.0
 10
75591.0
 20
-66968.0
 10
75441.0
 20
-67445.0
 10
75291.0
 20
-67922.0
 10
75141.0
 20
-68399.0
 10
74991.0
 20
-68876.0
 10
74514.0
 20
-68726.0
 10
74037.0
 20
-68576.0
 10
73560.0
 20
-68426.0
 10
72933.0
 20
-68753.0
 10
72208.0
 20
-68864.0
  0
LWPOLYLINE
  5
D3
330
17
100
AcDbEntity
  8
bot_y
100
AcDbPolyline
 90
21
 70
1
 10
73399.0
 20
-58941.0
 10
73249.0
 20
-59418.0
 10
72772.0
 20
-59268.0
 10
72295.0
 20
-59118.0
 10
71818.0
 20
-58967.0
 10
71341.0
 20
-58818.0
 10
70864.0
 20
-58667.0
 10
70387.0
 20
-58518.0
 10
69910.0
 20
-58367.0
 10
70060.0
 20
-57890.0
 10
70210.0
 20
-57414.0
 10
70360.0
 20
-56937.0
 10
70987.0
 20
-56610.0
 10
71314.0
 20
-57237.0
 10
71791.0
 20
-57387.0
 10
72268.0
 20
-57537.0
 10
72895.0
 20
-57210.0
 10
73372.0
 20
-57360.0
 10
73699.0
 20
-57987.0
 10
73549.0
 20
-58464.0
 10
73399.0
 20
-58941.0
  0
LWPOLYLINE
  5
D4
330
17
100
AcDbEntity
  8
bot_y
100
AcDbPolyline
 90
68
 70
1
 10
82590.0
 20
-41388.0
 10
82915.0
 20
-42016.0
 10
82438.0
 20
-41866.0
 10
81961.0
 20
-41716.0
 10
81484.0
 20
-41566.0
 10
80857.0
 20
-41893.0
 10
80380.0
 20
-41743.0
 10
79903.0
 20
-41593.0
 10
79276.0
 20
-41920.0
 10
78799.0
 20
-41770.0
 10
78322.0
 20
-41620.0
 10
77845.0
 20
-41470.0
 10
77368.0
 20
-41320.0
 10
76797.0
 20
-41140.0
 10
76426.0
 20
-40947.0
 10
76012.0
 20
-40667.0
 10
75317.0
 20
-40802.0
 10
74903.0
 20
-40522.0
 10
74489.0
 20
-40242.0
 10
74075.0
 20
-39962.0
 10
73940.0
 20
-39268.0
 10
74220.0
 20
-38853.0
 10
74086.0
 20
-38159.0
 10
73952.0
 20
-37465.0
 10
73443.0
 20
-37121.0
 10
73123.0
 20
-36905.0
 10
72429.0
 20
-37039.0
 10
71735.0
 20
-37174.0
 10
71320.0
 20
-36894.0
 10
70906.0
 20
-36614.0
 10
70492.0
 20
-36334.0
 10
69798.0
 20
-36468.0
 10
69383.0
 20
-36188.0
 10
69249.0
 20
-35494.0
 10
69529.0
 20
-35079.0
 10
69809.0
 20
-34665.0
 10
70503.0
 20
-34531.0
 10
71197.0
 20
-34397.0
 10
71332.0
 20
-35091.0
 10
72026.0
 20
-34957.0
 10
72440.0
 20
-35236.0
 10
73134.0
 20
-35102.0
 10
73549.0
 20
-35382.0
 10
73757.0
 20
-36126.0
 10
73817.0
 20
-36771.0
 10
74232.0
 20
-37050.0
 10
74646.0
 20
-37331.0
 10
75340.0
 20
-37196.0
 10
75754.0
 20
-37476.0
 10
76449.0
 20
-37342.0
 10
76729.0
 20
-36928.0
 10
77143.0
 20
-37208.0
 10
77462.0
 20
-37678.0
 10
78129.0
 20
-37888.0
 10
78392.0
 20
-38052.0
 10
78236.0
 20
-38549.0
 10
78552.0
 20
-39227.0
 10
79029.0
 20
-39377.0
 10
79506.0
 20
-39527.0
 10
79983.0
 20
-39677.0
 10
80460.0
 20
-39827.0
 10
80937.0
 20
-39977.0
 10
81414.0
 20
-40127.0
 10
81784.0
 20
-40612.0
 10
82261.0
 20
-40762.0
 10
82738.0
 20
-40912.0
 10
83215.0
 20
-41062.0
 10
82590.0
 20
-41388.0
  0
LWPOLYLINE
  5
D5
330
17
100
AcDbEntity
  8
bot_y
100
AcDbPolyline
 90
37
 70
1
 10
82096.0
 20
-49621.0
 10
81946.0
 20
-50098.0
 10
81469.0
 20
-49948.0
 10
81142.0
 20
-49321.0
 10
80515.0
 20
-49648.0
 10
80038.0
 20
-49498.0
 10
79561.0
 20
-49347.0
 10
79234.0
 20
-48721.0
 10
78757.0
 20
-48570.0
 10
78130.0
 20
-48897.0
 10
77653.0
 20
-48748.0
 10
77176.0
 20
-48597.0
 10
76849.0
 20
-47971.0
 10
76222.0
 20
-48297.0
 10
75745.0
 20
-48147.0
 10
75268.0
 20
-47997.0
 10
75418.0
 20
-47520.0
 10
75568.0
 20
-47043.0
 10
75780.0
 20
-46371.0
 10
75868.0
 20
-46090.0
 10
76345.0
 20
-46239.0
 10
76822.0
 20
-46390.0
 10
77299.0
 20
-46540.0
 10
77776.0
 20
-46690.0
 10
78253.0
 20
-46840.0
 10
78730.0
 20
-46990.0
 10
79207.0
 20
-47140.0
 10
79684.0
 20
-47290.0
 10
80161.0
 20
-47440.0
 10
80638.0
 20
-47590.0
 10
81115.0
 20
-47740.0
 10
81592.0
 20
-47890.0
 10
82069.0
 20
-48040.0
 10
82546.0
 20
-48190.0
 10
82457.0
 20
-48472.0
 10
82246.0
 20
-49144.0
 10
82096.0
 20
-49621.0
  0
LWPOLYLINE
  5
D6
330
17
100
AcDbEntity
  8
bot_y
100
AcDbPolyline
 90
10
 70
1
 10
76153.0
 20
-53517.0
 10
75526.0
 20
-53844.0
 10
75049.0
 20
-53694.0
 10
74572.0
 20
-53544.0
 10
74095.0
 20
-53394.0
 10
74245.0
 20
-52917.0
 10
74924.0
 20
-52424.0
 10
75401.0
 20
-52574.0
 10
75878.0
 20
-52724.0
 10
76153.0
 20
-53517.0
  0
LWPOLYLINE
  5
D7
330
17
100
AcDbEntity
  8
bot_y
100
AcDbPolyline
 90
24
 70
1
 10
78822.0
 20
-61695.0
 10
78672.0
 20
-62172.0
 10
78195.0
 20
-62022.0
 10
77718.0
 20
-61872.0
 10
77391.0
 20
-61245.0
 10
76914.0
 20
-61095.0
 10
76437.0
 20
-60945.0
 10
75960.0
 20
-60795.0
 10
75483.0
 20
-60645.0
 10
75633.0
 20
-60168.0
 10
75784.0
 20
-59691.0
 10
75934.0
 20
-59214.0
 10
76084.0
 20
-58737.0
 10
76561.0
 20
-58887.0
 10
77037.0
 20
-59037.0
 10
77364.0
 20
-59664.0
 10
77841.0
 20
-59814.0
 10
78468.0
 20
-59487.0
 10
78945.0
 20
-59637.0
 10
79422.0
 20
-59787.0
 10
79272.0
 20
-60264.0
 10
79122.0
 20
-60741.0
 10
78972.0
 20
-61218.0
 10
78822.0
 20
-61695.0
  0
LWPOLYLINE
  5
D8
330
17
100
AcDbEntity
  8
bot_y
100
AcDbPolyline
 90
11
 70
1
 10
79968.0
 20
-54717.0
 10
79818.0
 20
-55194.0
 10
79342.0
 20
-55044.0
 10
78865.0
 20
-54894.0
 10
78388.0
 20
-54744.0
 10
78538.0
 20
-54267.0
 10
78740.0
 20
-53625.0
 10
79217.0
 20
-53775.0
 10
79694.0
 20
-53925.0
 10
80171.0
 20
-54075.0
 10
79968.0
 20
-54717.0
  0
LWPOLYLINE
  5
D9
330
17
100
AcDbEntity
  8
bot_y
100
AcDbPolyline
 90
87
 70
1
 10
105617.0
 20
-56495.0
 10
105140.0
 20
-56345.0
 10
104663.0
 20
-56195.0
 10
104186.0
 20
-56045.0
 10
103709.0
 20
-55895.0
 10
103232.0
 20
-55745.0
 10
102755.0
 20
-55595.0
 10
102278.0
 20
-55445.0
 10
101801.0
 20
-55294.0
 10
101324.0
 20
-55145.0
 10
100847.0
 20
-54994.0
 10
100370.0
 20
-54845.0
 10
99743.0
 20
-55171.0
 10
99266.0
 20
-55021.0
 10
98789.0
 20
-54871.0
 10
98313.0
 20
-54721.0
 10
97836.0
 20
-54571.0
 10
97359.0
 20
-54421.0
 10
96882.0
 20
-54271.0
 10
96405.0
 20
-54121.0
 10
95928.0
 20
-53971.0
 10
95451.0
 20
-53821.0
 10
94974.0
 20
-53671.0
 10
94497.0
 20
-53521.0
 10
94020.0
 20
-53371.0
 10
93543.0
 20
-53221.0
 10
93066.0
 20
-53071.0
 10
92589.0
 20
-52921.0
 10
92112.0
 20
-52771.0
 10
91635.0
 20
-52621.0
 10
91158.0
 20
-52471.0
 10
90681.0
 20
-52321.0
 10
90204.0
 20
-52171.0
 10
89577.0
 20
-52498.0
 10
89100.0
 20
-52348.0
 10
88773.0
 20
-51721.0
 10
88146.0
 20
-52048.0
 10
87669.0
 20
-51898.0
 10
87342.0
 20
-51271.0
 10
86865.0
 20
-51121.0
 10
86388.0
 20
-50971.0
 10
86538.0
 20
-50494.0
 10
86750.0
 20
-49822.0
 10
86839.0
 20
-49540.0
 10
87315.0
 20
-49690.0
 10
87888.0
 20
-49869.0
 10
88269.0
 20
-49990.0
 10
88746.0
 20
-50140.0
 10
89223.0
 20
-50290.0
 10
89700.0
 20
-50440.0
 10
90177.0
 20
-50590.0
 10
90654.0
 20
-50740.0
 10
91131.0
 20
-50890.0
 10
91608.0
 20
-51040.0
 10
92085.0
 20
-51190.0
 10
92562.0
 20
-51340.0
 10
93039.0
 20
-51490.0
 10
93516.0
 20
-51640.0
 10
93993.0
 20
-51790.0
 10
94470.0
 20
-51940.0
 10
94947.0
 20
-52090.0
 10
95424.0
 20
-52240.0
 10
95901.0
 20
-52390.0
 10
96378.0
 20
-52540.0
 10
96855.0
 20
-52690.0
 10
97332.0
 20
-52840.0
 10
97809.0
 20
-52990.0
 10
98286.0
 20
-53140.0
 10
98762.0
 20
-53291.0
 10
99240.0
 20
-53440.0
 10
99716.0
 20
-53590.0
 10
100343.0
 20
-53264.0
 10
100820.0
 20
-53414.0
 10
101297.0
 20
-53564.0
 10
101774.0
 20
-53714.0
 10
102251.0
 20
-53864.0
 10
102728.0
 20
-54014.0
 10
103205.0
 20
-54164.0
 10
103682.0
 20
-54314.0
 10
104159.0
 20
-54464.0
 10
104636.0
 20
-54614.0
 10
105263.0
 20
-54287.0
 10
105712.0
 20
-54429.0
 10
105562.0
 20
-54906.0
 10
105917.0
 20
-55541.0
 10
105828.0
 20
-55824.0
 10
105617.0
 20
-56495.0
  0
LWPOLYLINE
  5
DA
330
17
100
AcDbEntity
  8
bot_y
100
AcDbPolyline
 90
23
 70
1
 10
83576.0
 20
-71576.0
 10
82949.0
 20
-71903.0
 10
82472.0
 20
-71753.0
 10
82145.0
 20
-71126.0
 10
81669.0
 20
-70976.0
 10
81041.0
 20
-71303.0
 10
80564.0
 20
-71153.0
 10
80238.0
 20
-70526.0
 10
80388.0
 20
-70049.0
 10
80538.0
 20
-69572.0
 10
80688.0
 20
-69095.0
 10
80838.0
 20
-68618.0
 10
81315.0
 20
-68769.0
 10
81792.0
 20
-68919.0
 10
82118.0
 20
-69546.0
 10
82595.0
 20
-69696.0
 10
83223.0
 20
-69369.0
 10
83699.0
 20
-69519.0
 10
84176.0
 20
-69669.0
 10
84026.0
 20
-70146.0
 10
83876.0
 20
-70623.0
 10
83726.0
 20
-71100.0
 10
83576.0
 20
-71576.0
  0
LWPOLYLINE
  5
DB
330
17
100
AcDbEntity
  8
bot_y
100
AcDbPolyline
 90
7
 70
1
 10
81095.0
 20
-74465.0
 10
80618.0
 20
-74987.0
 10
80390.0
 20
-74572.0
 10
80141.0
 20
-74165.0
 10
80913.0
 20
-73768.0
 10
81245.0
 20
-73988.0
 10
81095.0
 20
-74465.0
  0
LWPOLYLINE
  5
DC
330
17
100
AcDbEntity
  8
bot_y
100
AcDbPolyline
 90
12
 70
1
 10
86973.0
 20
-57444.0
 10
86346.0
 20
-57771.0
 10
86019.0
 20
-57145.0
 10
86169.0
 20
-56667.0
 10
86848.0
 20
-56176.0
 10
87325.0
 20
-56326.0
 10
87802.0
 20
-56476.0
 10
88279.0
 20
-56626.0
 10
88077.0
 20
-57268.0
 10
87927.0
 20
-57745.0
 10
87450.0
 20
-57595.0
 10
86973.0
 20
-57444.0
  0
LWPOLYLINE
  5
DD
330
17
100
AcDbEntity
  8
bot_y
100
AcDbPolyline
 90
22
 70
1
 10
94085.0
 20
-66495.0
 10
93458.0
 20
-66822.0
 10
93131.0
 20
-66195.0
 10
92654.0
 20
-66045.0
 10
92177.0
 20
-65895.0
 10
91550.0
 20
-66222.0
 10
91073.0
 20
-66072.0
 10
90746.0
 20
-65444.99999999999
 10
90896.0
 20
-64968.0
 10
91046.0
 20
-64491.0
 10
91673.0
 20
-64164.0
 10
92300.0
 20
-63838.0
 10
92627.0
 20
-64465.0
 10
93104.0
 20
-64614.99999999999
 10
93731.0
 20
-64287.00000000001
 10
94208.0
 20
-64438.0
 10
94685.0
 20
-64587.99999999999
 10
94535.0
 20
-65063.99999999999
 10
94862.0
 20
-65691.0
 10
94712.0
 20
-66169.0
 10
94562.0
 20
-66645.0
 10
94085.0
 20
-66495.0
  0
LWPOLYLINE
  5
DE
330
17
100
AcDbEntity
  8
bot_y
100
AcDbPolyline
 90
20
 70
1
 10
91358.0
 20
-73500.0
 10
91208.0
 20
-73977.0
 10
90731.0
 20
-73827.0
 10
90254.0
 20
-73677.0
 10
89777.0
 20
-73527.0
 10
89300.0
 20
-73377.0
 10
88673.0
 20
-73704.0
 10
88346.0
 20
-73077.0
 10
88496.0
 20
-72600.0
 10
88646.0
 20
-72123.0
 10
88796.0
 20
-71646.0
 10
89423.0
 20
-71319.0
 10
89900.0
 20
-71469.0
 10
90227.0
 20
-72096.0
 10
90704.0
 20
-72246.0
 10
91331.0
 20
-71919.0
 10
91808.0
 20
-72069.0
 10
92135.0
 20
-72696.0
 10
91985.0
 20
-73173.0
 10
91358.0
 20
-73500.0
  0
LWPOLYLINE
  5
DF
330
17
100
AcDbEntity
  8
bot_y
100
AcDbPolyline
 90
13
 70
1
 10
95708.0
 20
-59668.0
 10
95558.0
 20
-60145.0
 10
95081.0
 20
-59995.0
 10
94604.0
 20
-59845.0
 10
94127.0
 20
-59695.0
 10
93650.0
 20
-59545.0
 10
93800.0
 20
-59068.0
 10
94002.0
 20
-58426.0
 10
94479.0
 20
-58577.0
 10
94956.0
 20
-58727.0
 10
95433.0
 20
-58877.0
 10
95910.0
 20
-59027.0
 10
95708.0
 20
-59668.0
  0
LWPOLYLINE
  5
E0
330
17
100
AcDbEntity
  8
bot_y
100
AcDbPolyline
 90
7
 70
1
 10
89681.0
 20
-77165.0
 10
89021.0
 20
-77596.0
 10
88530.0
 20
-77134.0
 10
88250.0
 20
-76715.0
 10
89102.0
 20
-76326.0
 10
89354.0
 20
-76539.0
 10
89681.0
 20
-77165.0
  0
LWPOLYLINE
  5
E1
330
17
100
AcDbEntity
  8
bot_y
100
AcDbPolyline
 90
19
 70
1
 10
100436.0
 20
-67969.0
 10
100286.0
 20
-68446.0
 10
99809.0
 20
-68296.0
 10
99332.0
 20
-68146.0
 10
98855.0
 20
-67996.0
 10
98378.0
 20
-67846.0
 10
97901.0
 20
-67696.0
 10
97424.0
 20
-67546.0
 10
97574.0
 20
-67069.0
 10
97724.0
 20
-66592.0
 10
98351.0
 20
-66265.0
 10
98828.0
 20
-66415.0
 10
99305.0
 20
-66565.0
 10
99782.0
 20
-66715.0
 10
100259.0
 20
-66865.0
 10
100886.0
 20
-66538.0
 10
101213.0
 20
-67165.0
 10
100586.0
 20
-67492.0
 10
100436.0
 20
-67969.0
  0
LWPOLYLINE
  5
E2
330
17
100
AcDbEntity
  8
bot_y
100
AcDbPolyline
 90
12
 70
1
 10
101909.0
 20
-61618.0
 10
101759.0
 20
-62095.0
 10
101282.0
 20
-61945.0
 10
100805.0
 20
-61795.0
 10
100328.0
 20
-61645.0
 10
99851.0
 20
-61495.0
 10
100478.0
 20
-61168.0
 10
100680.0
 20
-60527.0
 10
101156.0
 20
-60677.0
 10
101633.0
 20
-60827.0
 10
102110.0
 20
-60978.0
 10
101909.0
 20
-61618.0
  0
LWPOLYLINE
  5
E3
330
17
100
AcDbEntity
  8
bot_y
100
AcDbPolyline
 90
21
 70
1
 10
99616.0
 20
-75573.0
 10
99466.0
 20
-76050.0
 10
98989.0
 20
-75900.0
 10
98512.0
 20
-75750.0
 10
98185.0
 20
-75123.0
 10
97558.0
 20
-75450.0
 10
97081.0
 20
-75300.0
 10
96604.0
 20
-75150.0
 10
96754.0
 20
-74673.0
 10
96904.0
 20
-74196.0
 10
97054.0
 20
-73719.0
 10
97204.0
 20
-73242.0
 10
97681.0
 20
-73392.0
 10
98158.0
 20
-73542.0
 10
98635.0
 20
-73692.0
 10
99112.0
 20
-73842.0
 10
99589.0
 20
-73992.0
 10
100066.0
 20
-74142.0
 10
99916.0
 20
-74619.0
 10
99766.0
 20
-75096.0
 10
99616.0
 20
-75573.0
  0
LWPOLYLINE
  5
E4
330
17
100
AcDbEntity
  8
bot_y
100
AcDbPolyline
 90
10
 70
1
 10
98566.0
 20
-78912.0
 10
98634.0
 20
-79491.0
 10
98335.0
 20
-79209.0
 10
98062.0
 20
-79146.0
 10
97790.0
 20
-79027.0
 10
97612.0
 20
-78612.0
 10
97762.0
 20
-78135.0
 10
98126.0
 20
-78226.0
 10
98716.0
 20
-78435.0
 10
98566.0
 20
-78912.0
  0
LWPOLYLINE
  5
E5
330
17
100
AcDbEntity
  8
bot_y
100
AcDbPolyline
 90
34
 70
1
 10
107059.0
 20
-66907.0
 10
106909.0
 20
-67384.0
 10
106432.0
 20
-67234.0
 10
105955.0
 20
-67084.0
 10
105478.0
 20
-66934.0
 10
104851.0
 20
-67261.0
 10
104374.0
 20
-67111.0
 10
103897.0
 20
-66961.0
 10
104047.0
 20
-66484.0
 10
104674.0
 20
-66157.0
 10
104824.0
 20
-65680.0
 10
105451.0
 20
-65352.99999999999
 10
105778.0
 20
-65980.0
 10
106405.0
 20
-65653.0
 10
107032.0
 20
-65325.99999999999
 10
107719.0
 20
-64809.0
 10
107332.0
 20
-64372.0
 10
107959.0
 20
-64045.0
 10
108109.0
 20
-63568.0
 10
108788.0
 20
-63078.0
 10
109265.0
 20
-63228.0
 10
109742.0
 20
-63378.0
 10
110219.0
 20
-63528.0
 10
110017.0
 20
-64169.0
 10
109867.0
 20
-64646.0
 10
109717.0
 20
-65122.0
 10
109390.0
 20
-64495.00000000001
 10
108913.0
 20
-64345.0
 10
108286.0
 20
-64672.0
 10
108196.0
 20
-64959.0
 10
107509.0
 20
-65476.0
 10
107359.0
 20
-65953.0
 10
107209.0
 20
-66430.0
 10
107059.0
 20
-66907.0
  0
LWPOLYLINE
  5
E6
330
17
100
AcDbEntity
  8
bot_y
100
AcDbPolyline
 90
8
 70
1
 10
108813.0
 20
-57500.0
 10
108663.0
 20
-57977.0
 10
108479.0
 20
-57395.0
 10
108690.0
 20
-56725.0
 10
108779.0
 20
-56441.0
 10
109113.0
 20
-56546.0
 10
109024.0
 20
-56830.0
 10
108813.0
 20
-57500.0
  0
LWPOLYLINE
  5
E7
330
17
100
AcDbEntity
  8
bot_y
100
AcDbPolyline
 90
21
 70
1
 10
108148.0
 20
-75112.0
 10
107998.0
 20
-75589.0
 10
107521.0
 20
-75439.0
 10
107044.0
 20
-75289.0
 10
106717.0
 20
-74662.0
 10
106240.0
 20
-74512.0
 10
105763.0
 20
-74362.0
 10
105286.0
 20
-74212.0
 10
105436.0
 20
-73735.0
 10
105586.0
 20
-73258.0
 10
105259.0
 20
-72631.0
 10
105886.0
 20
-72304.0
 10
106363.0
 20
-72454.0
 10
106840.0
 20
-72604.0
 10
107167.0
 20
-73231.0
 10
107794.0
 20
-72904.0
 10
108271.0
 20
-73054.0
 10
108598.0
 20
-73681.0
 10
108448.0
 20
-74158.0
 10
108298.0
 20
-74635.0
 10
108148.0
 20
-75112.0
  0
LWPOLYLINE
  5
E8
330
17
100
AcDbEntity
  8
bot_y
100
AcDbPolyline
 90
9
 70
1
 10
108352.0
 20
-77797.0
 10
108174.0
 20
-78377.0
 10
108059.0
 20
-77966.0
 10
107924.0
 20
-77485.0
 10
107548.0
 20
-77020.0
 10
107698.0
 20
-76543.0
 10
107851.0
 20
-77224.0
 10
108502.0
 20
-77320.0
 10
108352.0
 20
-77797.0
  0
LWPOLYLINE
  5
E9
330
17
100
AcDbEntity
  8
bot_y
100
AcDbPolyline
 90
9
 70
1
 10
119380.0
 20
-66065.0
 10
119758.0
 20
-66530.0
 10
119281.0
 20
-66380.0
 10
118853.0
 20
-66245.0
 10
118327.0
 20
-66079.0
 10
118426.0
 20
-65765.0
 10
119053.0
 20
-65438.0
 10
119530.0
 20
-65588.0
 10
119380.0
 20
-66065.0
  0
LWPOLYLINE
  5
EA
330
17
100
AcDbEntity
  8
bot_y
100
AcDbPolyline
 90
9
 70
1
 10
125826.0
 20
-63903.0
 10
125258.0
 20
-64041.0
 10
124790.0
 20
-63894.0
 10
124304.0
 20
-63741.0
 10
124395.0
 20
-63449.0
 10
124896.0
 20
-63610.0
 10
125499.0
 20
-63272.0
 10
125976.0
 20
-63423.0
 10
125826.0
 20
-63903.0
  0
LWPOLYLINE
  5
EB
330
17
100
AcDbEntity
  8
bot_y
100
AcDbPolyline
 90
13
 70
1
 10
42912.0
 20
-55714.0
 10
43046.0
 20
-56408.0
 10
42632.0
 20
-56128.0
 10
41797.0
 20
-56250.0
 10
41376.0
 20
-55980.0
 10
41059.0
 20
-55777.0
 10
40885.0
 20
-54948.0
 10
41165.0
 20
-54533.0
 10
41445.0
 20
-54119.0
 10
41949.0
 20
-54460.0
 10
42363.0
 20
-54740.0
 10
42778.0
 20
-55020.0
 10
42912.0
 20
-55714.0
  0
LWPOLYLINE
  5
EC
330
17
100
AcDbEntity
  8
bot_y
100
AcDbPolyline
 90
13
 70
1
 10
50153.0
 20
-60607.0
 10
49697.0
 20
-60689.0
 10
49049.0
 20
-60682.0
 10
48618.0
 20
-60430.0
 10
48034.0
 20
-60089.0
 10
47603.0
 20
-59488.0
 10
47883.0
 20
-59073.0
 10
48163.0
 20
-58659.0
 10
49031.0
 20
-58642.0
 10
48918.0
 20
-59134.0
 10
49406.0
 20
-59499.0
 10
49820.0
 20
-59779.0
 10
50153.0
 20
-60607.0
  0
LWPOLYLINE
  5
ED
330
17
100
AcDbEntity
  8
bot_y
100
AcDbPolyline
 90
9
 70
1
 10
57277.0
 20
-64818.0
 10
56958.0
 20
-64186.00000000001
 10
56449.0
 20
-64257.99999999999
 10
56034.0
 20
-63978.0
 10
56314.0
 20
-63564.0
 10
56729.0
 20
-63844.0
 10
57201.0
 20
-63711.0
 10
57557.0
 20
-64404.0
 10
57277.0
 20
-64818.0
  0
LWPOLYLINE
  5
EE
330
17
100
AcDbEntity
  8
bot_y
100
AcDbPolyline
 90
25
 70
1
 10
44457.0
 20
-52534.0
 10
44177.0
 20
-52948.0
 10
43763.0
 20
-52668.0
 10
43349.0
 20
-52388.0
 10
42844.0
 20
-52048.0
 10
43124.0
 20
-51633.0
 10
43404.0
 20
-51219.0
 10
43684.0
 20
-50805.0
 10
43964.0
 20
-50390.0
 10
44244.0
 20
-49976.0
 10
44524.0
 20
-49562.0
 10
44804.0
 20
-49147.0
 10
45084.0
 20
-48733.0
 10
45364.0
 20
-48319.0
 10
46148.0
 20
-48246.0
 10
46563.0
 20
-48526.0
 10
46697.0
 20
-49220.0
 10
46417.0
 20
-49634.0
 10
46137.0
 20
-50048.0
 10
45857.0
 20
-50463.0
 10
45163.0
 20
-50597.0
 10
44883.0
 20
-51011.0
 10
44603.0
 20
-51425.0
 10
44737.0
 20
-52120.0
 10
44457.0
 20
-52534.0
  0
LWPOLYLINE
  5
EF
330
17
100
AcDbEntity
  8
bot_y
100
AcDbPolyline
 90
17
 70
1
 10
59931.0
 20
-61784.0
 10
59237.0
 20
-61918.0
 10
58823.0
 20
-61638.0
 10
58688.0
 20
-60944.0
 10
58274.0
 20
-60664.0
 10
57860.0
 20
-60384.0
 10
57445.0
 20
-60104.0
 10
57725.0
 20
-59690.0
 10
58005.0
 20
-59276.0
 10
58285.0
 20
-58861.0
 10
58700.0
 20
-59141.0
 10
59114.0
 20
-59421.0
 10
59942.0
 20
-59981.0
 10
60357.0
 20
-60261.0
 10
60491.0
 20
-60955.0
 10
59797.0
 20
-61090.0
 10
59931.0
 20
-61784.0
  0
LWPOLYLINE
  5
F0
330
17
100
AcDbEntity
  8
bot_y
100
AcDbPolyline
 90
35
 70
1
 10
64959.0
 20
-56130.0
 10
64679.0
 20
-56544.0
 10
64265.0
 20
-56264.0
 10
63850.0
 20
-55984.0
 10
63436.0
 20
-55704.0
 10
63022.0
 20
-55424.0
 10
62608.0
 20
-55144.0
 10
62193.0
 20
-54864.0
 10
61779.0
 20
-54584.0
 10
61645.0
 20
-53890.0
 10
61230.0
 20
-53610.0
 10
60536.0
 20
-53744.0
 10
60122.0
 20
-53465.0
 10
59908.0
 20
-53320.0
 10
59293.0
 20
-52905.0
 10
58879.0
 20
-52625.0
 10
59159.0
 20
-52210.0
 10
59439.0
 20
-51796.0
 10
59719.0
 20
-51382.0
 10
60133.0
 20
-51662.0
 10
60548.0
 20
-51942.0
 10
60647.0
 20
-52222.0
 10
61376.0
 20
-52502.0
 10
61791.0
 20
-52782.0
 10
62205.0
 20
-53062.0
 10
62619.0
 20
-53341.0
 10
63313.0
 20
-53207.0
 10
63728.0
 20
-53487.0
 10
63862.0
 20
-54181.0
 10
64275.99999999999
 20
-54461.0
 10
64690.0
 20
-54741.0
 10
65385.00000000001
 20
-54607.0
 10
65105.00000000001
 20
-55021.0
 10
65239.00000000001
 20
-55715.0
 10
64959.0
 20
-56130.0
  0
LWPOLYLINE
  5
F1
330
17
100
AcDbEntity
  8
bot_y
100
AcDbPolyline
 90
17
 70
1
 10
52005.0
 20
-43151.0
 10
51725.0
 20
-43566.0
 10
51031.0
 20
-43700.0
 10
50616.0
 20
-43420.0
 10
50202.0
 20
-43140.0
 10
49788.0
 20
-42860.0
 10
49282.0
 20
-42519.0
 10
49562.0
 20
-42104.0
 10
49842.0
 20
-41690.0
 10
50122.0
 20
-41276.0
 10
50402.0
 20
-40861.0
 10
51188.0
 20
-40789.0
 10
51602.0
 20
-41069.0
 10
52016.0
 20
-41349.0
 10
52151.0
 20
-42043.0
 10
52285.0
 20
-42737.0
 10
52005.0
 20
-43151.0
  0
LWPOLYLINE
  5
F2
330
17
100
AcDbEntity
  8
bot_y
100
AcDbPolyline
 90
7
 70
1
 10
63627.0
 20
-47385.0
 10
64041.0
 20
-47665.0
 10
63762.0
 20
-48079.0
 10
63314.0
 20
-47583.0
 10
62933.0
 20
-47519.0
 10
63213.0
 20
-47105.0
 10
63627.0
 20
-47385.0
  0
LWPOLYLINE
  5
F3
330
17
100
AcDbEntity
  8
bot_y
100
AcDbPolyline
 90
10
 70
1
 10
67490.0
 20
-50599.0
 10
67076.0
 20
-50319.0
 10
67001.0
 20
-50074.0
 10
66781.0
 20
-49862.0
 10
66283.0
 20
-49706.0
 10
66527.0
 20
-49344.0
 10
66941.0
 20
-49624.0
 10
67278.0
 20
-50019.0
 10
67776.0
 20
-50175.0
 10
67490.0
 20
-50599.0
  0
LWPOLYLINE
  5
F4
330
17
100
AcDbEntity
  8
bot_y
100
AcDbPolyline
 90
16
 70
1
 10
56070.0
 20
-36243.0
 10
55376.0
 20
-36377.0
 10
54961.0
 20
-36097.0
 10
54547.0
 20
-35817.0
 10
54041.0
 20
-35475.0
 10
54321.0
 20
-35061.0
 10
54601.0
 20
-34647.0
 10
54881.0
 20
-34232.0
 10
55161.0
 20
-33818.0
 10
55947.0
 20
-33746.0
 10
56361.0
 20
-34026.0
 10
56776.0
 20
-34306.0
 10
56910.0
 20
-35000.0
 10
57044.0
 20
-35694.0
 10
56764.0
 20
-36109.0
 10
56070.0
 20
-36243.0
  0
LWPOLYLINE
  5
F5
330
17
100
AcDbEntity
  8
bot_y
100
AcDbPolyline
 90
39
 70
1
 10
71678.0
 20
-46187.0
 10
70984.0
 20
-46321.0
 10
70570.0
 20
-46042.0
 10
70155.0
 20
-45762.0
 10
69461.0
 20
-45896.0
 10
69047.0
 20
-45616.0
 10
68632.0
 20
-45336.0
 10
68218.0
 20
-45056.0
 10
68084.0
 20
-44362.0
 10
67670.0
 20
-44082.0
 10
66975.0
 20
-44216.0
 10
66561.0
 20
-43936.0
 10
66323.0
 20
-43396.0
 10
65825.0
 20
-43239.0
 10
65328.0
 20
-43082.0
 10
64830.0
 20
-42926.0
 10
64769.99999999999
 20
-42122.0
 10
65050.0
 20
-41708.0
 10
65330.0
 20
-41294.0
 10
66024.0
 20
-41159.0
 10
66438.0
 20
-41439.0
 10
66852.0
 20
-41719.0
 10
67267.0
 20
-41999.0
 10
67681.0
 20
-42279.0
 10
68095.0
 20
-42559.0
 10
68509.0
 20
-42839.0
 10
68924.0
 20
-43119.0
 10
69338.0
 20
-43399.0
 10
69472.0
 20
-44093.0
 10
70167.0
 20
-43959.0
 10
70581.0
 20
-44239.0
 10
70995.0
 20
-44519.0
 10
71689.0
 20
-44384.0
 10
72104.0
 20
-44664.0
 10
72518.0
 20
-44944.0
 10
72793.0
 20
-45431.0
 10
72652.0
 20
-45639.0
 10
71958.0
 20
-45773.0
 10
71678.0
 20
-46187.0
  0
LWPOLYLINE
  5
F6
330
17
100
AcDbEntity
  8
bot_y
100
AcDbPolyline
 90
15
 70
1
 10
60829.0
 20
-29200.0
 10
60135.0
 20
-29335.0
 10
59721.0
 20
-29055.0
 10
59306.0
 20
-28775.0
 10
58799.0
 20
-28432.0
 10
59079.0
 20
-28018.0
 10
59359.0
 20
-27604.0
 10
59639.0
 20
-27189.0
 10
59919.0
 20
-26775.0
 10
60426.0
 20
-27118.0
 10
60840.0
 20
-27398.0
 10
61255.0
 20
-27678.0
 10
61389.0
 20
-28372.0
 10
61109.0
 20
-28786.0
 10
60829.0
 20
-29200.0
  0
LWPOLYLINE
  5
F7
330
17
100
AcDbEntity
  8
bot_y
100
AcDbPolyline
 90
18
 70
1
 10
75009.0
 20
-32145.000000000004
 10
74680.0
 20
-31922.0
 10
74266.0
 20
-31642.0
 10
73851.0
 20
-31362.0
 10
73437.0
 20
-31082.0
 10
73023.0
 20
-30802.0
 10
73303.0
 20
-30388.0
 10
73583.0
 20
-29974.0
 10
73863.0
 20
-29560.0
 10
74277.0
 20
-29840.0
 10
74691.0
 20
-30119.0
 10
75105.0
 20
-30399.0
 10
75479.0
 20
-30652.0
 10
76214.0
 20
-30545.0
 10
76348.0
 20
-31239.0
 10
76068.0
 20
-31654.0
 10
75374.0
 20
-31788.0
 10
75009.0
 20
-32145.000000000004
  0
LWPOLYLINE
  5
F8
330
17
100
AcDbEntity
  8
bot_y
100
AcDbPolyline
 90
17
 70
1
 10
65174.00000000001
 20
-21878.0
 10
64894.00000000001
 20
-22292.0
 10
64480.00000000001
 20
-22012.0
 10
64066.0
 20
-21732.0
 10
63558.0
 20
-21389.0
 10
63838.0
 20
-20975.0
 10
64117.99999999999
 20
-20560.0
 10
64397.99999999999
 20
-20146.0
 10
64678.0
 20
-19732.0
 10
65465.0
 20
-19661.0
 10
65880.0
 20
-19941.0
 10
66574.0
 20
-19806.0
 10
66708.0
 20
-20501.0
 10
66428.0
 20
-20915.0
 10
66148.0
 20
-21329.0
 10
65868.0
 20
-21743.0
 10
65174.00000000001
 20
-21878.0
  0
ENDSEC
  0
SECTION
  2
OBJECTS
  0
DICTIONARY
  5
A
330
0
100
AcDbDictionary
281
1
  3
ACAD_COLOR
350
B
  3
ACAD_GROUP
350
C
  3
ACAD_LAYOUT
350
D
  3
ACAD_MATERIAL
350
E
  3
ACAD_MLEADERSTYLE
350
F
  3
ACAD_MLINESTYLE
350
10
  3
ACAD_PLOTSETTINGS
350
11
  3
ACAD_PLOTSTYLENAME
350
12
  3
ACAD_SCALELIST
350
14
  3
ACAD_TABLESTYLE
350
15
  3
ACAD_VISUALSTYLE
350
16
  0
DICTIONARY
  5
B
330
A
100
AcDbDictionary
281
1
  0
DICTIONARY
  5
C
330
A
100
AcDbDictionary
281
1
  0
DICTIONARY
  5
D
330
A
100
AcDbDictionary
281
1
  3
Model
350
1A
  3
Layout1
350
1E
  0
DICTIONARY
  5
E
330
A
100
AcDbDictionary
281
1
  3
ByBlock
350
1F
  3
ByLayer
350
20
  3
Global
350
21
  0
DICTIONARY
  5
F
330
A
100
AcDbDictionary
281
1
  3
Standard
350
2C
  0
DICTIONARY
  5
10
330
A
100
AcDbDictionary
281
1
  3
Standard
350
22
  0
DICTIONARY
  5
11
330
A
100
AcDbDictionary
281
1
  0
ACDBDICTIONARYWDFLT
  5
12
330
A
100
AcDbDictionary
281
1
  3
Normal
350
13
100
AcDbDictionaryWithDefault
340
13
  0
ACDBPLACEHOLDER
  5
13
330
12
  0
DICTIONARY
  5
14
330
A
100
AcDbDictionary
281
1
  0
DICTIONARY
  5
15
330
A
100
AcDbDictionary
281
1
  0
DICTIONARY
  5
16
330
A
100
AcDbDictionary
281
1
  3
2dWireframe
350
58
  3
Basic
350
59
  3
Brighten
350
5A
  3
ColorChange
350
5B
  3
Conceptual
350
5C
  3
Dim
350
5D
  3
EdgeColorOff
350
5E
  3
Facepattern
350
5F
  3
Flat
350
60
  3
FlatWithEdges
350
61
  3
Gouraud
350
62
  3
GouraudWithEdges
350
63
  3
Hidden
350
64
  3
JitterOff
350
65
  3
Linepattern
350
66
  3
Modeling
350
67
  3
OverhangOff
350
68
  3
Realistic
350
69
  3
Shaded
350
6A
  3
Shaded with edges
350
6B
  3
Shades of Gray
350
6C
  3
Sketchy
350
6D
  3
Thicken
350
6E
  3
Wireframe
350
6F
  3
X-Ray
350
70
  0
LAYOUT
  5
1A
330
D
100
AcDbPlotSettings
  1

  2
Adobe PDF
  4
A4
  6

 40
3.175
 41
3.175
 42
3.175
 43
3.175
 44
209.91
 45
297.03
 46
0.0
 47
0.0
 48
0.0
 49
0.0
140
0.0
141
0.0
142
1.0
143
1.0
 70
1024
 72
0
 73
1
 74
5
  7

 75
16
 76
0
 77
2
 78
300
147
1.0
148
0.0
149
0.0
100
AcDbLayout
  1
Model
 70
1
 71
0
 10
-3.175
 20
-3.175
 11
293.857
 21
206.735
 12
0.0
 22
0.0
 32
0.0
 14
29.068
 24
20.356
 34
0.0
 15
261.614
 25
183.204
 35
0.0
146
0.0
 13
0.0
 23
0.0
 33
0.0
 16
1.0
 26
0.0
 36
0.0
 17
0.0
 27
1.0
 37
0.0
 76
1
330
17
  0
LAYOUT
  5
1E
330
D
100
AcDbPlotSettings
  1

  2
Adobe PDF
  4
A4
  6

 40
3.175
 41
3.175
 42
3.175
 43
3.175
 44
209.91
 45
297.03
 46
0.0
 47
0.0
 48
0.0
 49
0.0
140
0.0
141
0.0
142
1.0
143
1.0
 70
0
 72
0
 73
1
 74
5
  7

 75
16
 76
0
 77
2
 78
300
147
1.0
148
0.0
149
0.0
100
AcDbLayout
  1
Layout1
 70
1
 71
1
 10
-3.175
 20
-3.175
 11
293.857
 21
206.735
 12
0.0
 22
0.0
 32
0.0
 14
29.068
 24
20.356
 34
0.0
 15
261.614
 25
183.204
 35
0.0
146
0.0
 13
0.0
 23
0.0
 33
0.0
 16
1.0
 26
0.0
 36
0.0
 17
0.0
 27
1.0
 37
0.0
 76
1
330
1B
  0
MATERIAL
  5
1F
102
{ACAD_REACTORS
330
E
102
}
330
E
100
AcDbMaterial
  1
ByBlock
  2

 70
0
 40
1.0
 71
1
 41
1.0
 91
-1023410177
 42
1.0
 72
1
  3

 73
1
 74
1
 75
1
 44
0.5
 73
0
 45
1.0
 46
1.0
 77
1
  4

 78
1
 79
1
170
1
 48
1.0
171
1
  6

172
1
173
1
174
1
140
1.0
141
1.0
175
1
  7

176
1
177
1
178
1
143
1.0
179
1
  8

270
1
271
1
272
1
145
1.0
146
1.0
273
1
  9

274
1
275
1
276
1
 42
1.0
 72
1
  3

 73
1
 74
1
 75
1
 94
63
  0
MATERIAL
  5
20
102
{ACAD_REACTORS
330
E
102
}
330
E
100
AcDbMaterial
  1
ByLayer
  2

 70
0
 40
1.0
 71
1
 41
1.0
 91
-1023410177
 42
1.0
 72
1
  3

 73
1
 74
1
 75
1
 44
0.5
 73
0
 45
1.0
 46
1.0
 77
1
  4

 78
1
 79
1
170
1
 48
1.0
171
1
  6

172
1
173
1
174
1
140
1.0
141
1.0
175
1
  7

176
1
177
1
178
1
143
1.0
179
1
  8

270
1
271
1
272
1
145
1.0
146
1.0
273
1
  9

274
1
275
1
276
1
 42
1.0
 72
1
  3

 73
1
 74
1
 75
1
 94
63
  0
MATERIAL
  5
21
102
{ACAD_REACTORS
330
E
102
}
330
E
100
AcDbMaterial
  1
Global
  2

 70
0
 40
1.0
 71
1
 41
1.0
 91
-1023410177
 42
1.0
 72
1
  3

 73
1
 74
1
 75
1
 44
0.5
 73
0
 45
1.0
 46
1.0
 77
1
  4

 78
1
 79
1
170
1
 48
1.0
171
1
  6

172
1
173
1
174
1
140
1.0
141
1.0
175
1
  7

176
1
177
1
178
1
143
1.0
179
1
  8

270
1
271
1
272
1
145
1.0
146
1.0
273
1
  9

274
1
275
1
276
1
 42
1.0
 72
1
  3

 73
1
 74
1
 75
1
 94
63
  0
MLINESTYLE
  5
22
102
{ACAD_REACTORS
330
10
102
}
330
10
100
AcDbMlineStyle
  2
Standard
 70
0
  3

 62
256
 51
90.0
 52
90.0
 71
2
 49
0.5
 62
256
  6
BYLAYER
 49
-0.5
 62
256
  6
BYLAYER
  0
MLEADERSTYLE
  5
2C
102
{ACAD_REACTORS
330
F
102
}
330
F
100
AcDbMLeaderStyle
179
2
170
2
171
1
172
0
 90
2
 40
0.0
 41
0.0
173
1
 91
-1056964608
 92
-2
290
1
 42
2.0
291
1
 43
8.0
  3
Standard
 44
4.0
300

342
29
174
1
175
1
176
0
178
1
 93
-1056964608
 45
4.0
292
0
297
0
 46
4.0
 94
-1056964608
 47
1.0
 49
0.0
140
1.0
294
1
141
0.0
177
0
142
1.0
295
0
296
0
143
3.75
271
0
272
9
272
9
  0
VISUALSTYLE
  5
58
102
{ACAD_REACTORS
330
16
102
}
330
16
100
AcDbVisualStyle
  2
2dWireframe
 70
4
 90
0
 40
0.6
 62
7
290
0
291
0
  0
VISUALSTYLE
  5
59
102
{ACAD_REACTORS
330
16
102
}
330
16
100
AcDbVisualStyle
  2
Basic
 70
7
 90
1
 40
0.6
 62
7
290
0
291
1
  0
VISUALSTYLE
  5
5A
102
{ACAD_REACTORS
330
16
102
}
330
16
100
AcDbVisualStyle
  2
Brighten
 70
12
 90
2
 40
0.6
 62
7
290
0
291
1
  0
VISUALSTYLE
  5
5B
102
{ACAD_REACTORS
330
16
102
}
330
16
100
AcDbVisualStyle
  2
ColorChange
 70
16
 90
2
 40
0.6
 62
8
290
0
291
1
  0
VISUALSTYLE
  5
5C
102
{ACAD_REACTORS
330
16
102
}
330
16
100
AcDbVisualStyle
  2
Conceptual
 70
9
 90
3
 40
0.6
 62
7
290
0
291
0
  0
VISUALSTYLE
  5
5D
102
{ACAD_REACTORS
330
16
102
}
330
16
100
AcDbVisualStyle
  2
Dim
 70
11
 90
2
 40
0.6
 62
7
290
0
291
1
  0
VISUALSTYLE
  5
5E
102
{ACAD_REACTORS
330
16
102
}
330
16
100
AcDbVisualStyle
  2
EdgeColorOff
 70
22
 90
2
 40
0.6
 62
7
290
0
291
1
  0
VISUALSTYLE
  5
5F
102
{ACAD_REACTORS
330
16
102
}
330
16
100
AcDbVisualStyle
  2
Facepattern
 70
15
 90
2
 40
0.6
 62
7
290
0
291
1
  0
VISUALSTYLE
  5
60
102
{ACAD_REACTORS
330
16
102
}
330
16
100
AcDbVisualStyle
  2
Flat
 70
0
 90
2
 40
0.6
 62
7
290
0
291
1
  0
VISUALSTYLE
  5
61
102
{ACAD_REACTORS
330
16
102
}
330
16
100
AcDbVisualStyle
  2
FlatWithEdges
 70
1
 90
2
 40
0.6
 62
7
290
0
291
1
  0
VISUALSTYLE
  5
62
102
{ACAD_REACTORS
330
16
102
}
330
16
100
AcDbVisualStyle
  2
Gouraud
 70
2
 90
2
 40
0.6
 62
7
290
0
291
1
  0
VISUALSTYLE
  5
63
102
{ACAD_REACTORS
330
16
102
}
330
16
100
AcDbVisualStyle
  2
GouraudWithEdges
 70
3
 90
2
 40
0.6
 62
7
290
0
291
1
  0
VISUALSTYLE
  5
64
102
{ACAD_REACTORS
330
16
102
}
330
16
100
AcDbVisualStyle
  2
Hidden
 70
6
 90
1
 40
0.6
 62
7
290
0
291
0
  0
VISUALSTYLE
  5
65
102
{ACAD_REACTORS
330
16
102
}
330
16
100
AcDbVisualStyle
  2
JitterOff
 70
20
 90
2
 40
0.6
 62
7
290
0
291
1
  0
VISUALSTYLE
  5
66
102
{ACAD_REACTORS
330
16
102
}
330
16
100
AcDbVisualStyle
  2
Linepattern
 70
14
 90
2
 40
0.6
 62
7
290
0
291
1
  0
VISUALSTYLE
  5
67
102
{ACAD_REACTORS
330
16
102
}
330
16
100
AcDbVisualStyle
  2
Modeling
 70
10
 90
2
 40
0.6
 62
7
290
0
291
0
  0
VISUALSTYLE
  5
68
102
{ACAD_REACTORS
330
16
102
}
330
16
100
AcDbVisualStyle
  2
OverhangOff
 70
21
 90
2
 40
0.6
 62
7
290
0
291
1
  0
VISUALSTYLE
  5
69
102
{ACAD_REACTORS
330
16
102
}
330
16
100
AcDbVisualStyle
  2
Realistic
 70
8
 90
2
 40
0.6
 62
7
290
0
291
0
  0
VISUALSTYLE
  5
6A
102
{ACAD_REACTORS
330
16
102
}
330
16
100
AcDbVisualStyle
  2
Shaded
 70
27
 90
2
 40
0.6
 62
7
290
0
291
0
  0
VISUALSTYLE
  5
6B
102
{ACAD_REACTORS
330
16
102
}
330
16
100
AcDbVisualStyle
  2
Shaded with edges
 70
26
 90
2
 40
0.6
 62
7
290
0
291
0
  0
VISUALSTYLE
  5
6C
102
{ACAD_REACTORS
330
16
102
}
330
16
100
AcDbVisualStyle
  2
Shades of Gray
 70
23
 90
2
 40
0.6
 62
7
290
0
291
0
  0
VISUALSTYLE
  5
6D
102
{ACAD_REACTORS
330
16
102
}
330
16
100
AcDbVisualStyle
  2
Sketchy
 70
24
 90
1
 40
0.6
 62
7
290
0
291
0
  0
VISUALSTYLE
  5
6E
102
{ACAD_REACTORS
330
16
102
}
330
16
100
AcDbVisualStyle
  2
Thicken
 70
13
 90
2
 40
0.6
 62
7
290
0
291
1
  0
VISUALSTYLE
  5
6F
102
{ACAD_REACTORS
330
16
102
}
330
16
100
AcDbVisualStyle
  2
Wireframe
 70
5
 90
0
 40
0.6
 62
7
290
0
291
0
  0
VISUALSTYLE
  5
70
102
{ACAD_REACTORS
330
16
102
}
330
16
100
AcDbVisualStyle
  2
X-Ray
 70
25
 90
2
 40
0.5
 62
7
290
0
291
0
  0
ENDSEC
  0
EOF
